<svg width="130" height="48" viewBox="0 0 130 48" fill="none" xmlns="http://www.w3.org/2000/svg">
<path d="M0.456942 24.4228L6.73724 0.373436H10.4267L12.2632 24.4228H8.73775L8.3606 19.6428H5.49102L4.2448 24.4228H0.456942ZM6.44208 14.0412H8.42619L7.96706 8.21561L6.44208 14.0412Z" fill="#019681"/>
<path d="M12.7677 24.4228L14.9978 0.373436H21.0321C21.9285 0.373436 22.6172 0.858905 23.0982 1.82984C23.5792 2.80078 23.8197 4.08291 23.8197 5.67624C23.8197 5.9003 23.8143 6.13681 23.8033 6.38577C23.7924 6.60983 23.776 6.84634 23.7541 7.0953C23.6448 8.31519 23.4535 9.34837 23.1802 10.1948C22.9069 11.0413 22.5899 11.7135 22.2292 12.2114C22.5462 12.5599 22.7921 13.0205 22.9671 13.5931C23.1529 14.1408 23.2458 14.8628 23.2458 15.759C23.2458 15.9831 23.2404 16.2196 23.2294 16.4686C23.2185 16.6926 23.2021 16.9416 23.1802 17.2154C22.9725 19.4809 22.5298 21.2486 21.852 22.5182C21.1742 23.7879 20.1904 24.4228 18.9004 24.4228H12.7677ZM17.4738 9.78404H19.212C19.5727 9.78404 19.8351 9.62222 19.9991 9.29857C20.174 8.95003 20.2888 8.46457 20.3434 7.84217C20.3544 7.74259 20.3598 7.65545 20.3598 7.58077C20.3708 7.48118 20.3762 7.3816 20.3762 7.28202C20.3762 6.36087 20.092 5.9003 19.5236 5.9003H17.8346L17.4738 9.78404ZM16.6212 18.9332H18.4249C18.7966 18.9332 19.0699 18.7714 19.2448 18.4478C19.4197 18.0992 19.5454 17.564 19.6219 16.842C19.6329 16.7424 19.6383 16.6553 19.6383 16.5806C19.6493 16.481 19.6547 16.3939 19.6547 16.3192C19.6547 15.3731 19.3596 14.9001 18.7693 14.9001H16.9983L16.6212 18.9332Z" fill="#019681"/>
<path d="M23.0207 24.4228L25.2508 0.373436H30.9572C31.9629 0.373436 32.7391 0.983383 33.2857 2.20328C33.8432 3.42317 34.1219 5.02895 34.1219 7.02061C34.1219 7.6928 34.0891 8.40233 34.0235 9.1492C33.8814 10.7674 33.5863 12.1989 33.1381 13.4437C32.6899 14.6636 32.1269 15.6346 31.4491 16.3565C31.5475 16.5557 31.624 16.8047 31.6787 17.1034C31.7443 17.3773 31.7935 17.676 31.8263 17.9997L32.4658 24.4228H28.7927L28.2188 18.8586C28.186 18.51 28.1313 18.2611 28.0548 18.1117C27.9783 17.9374 27.8471 17.8503 27.6613 17.8503H27.1529L26.5462 24.4228H23.0207ZM27.7269 11.6512H29.0223C29.4705 11.6512 29.7984 11.4396 30.0061 11.0164C30.2138 10.5932 30.3559 9.97076 30.4325 9.1492C30.4653 8.77576 30.4817 8.43967 30.4817 8.14092C30.4817 7.61811 30.4106 7.23222 30.2685 6.98327C30.1373 6.73431 29.9077 6.60983 29.5798 6.60983H28.2024L27.7269 11.6512Z" fill="#019681"/>
<path d="M33.0976 24.4228L35.3277 0.373436H43.5429L43.0018 6.31108H38.312L38.0169 9.37326H42.0999L41.5424 15.4603H37.4594L37.1642 18.4851H41.8539L41.3128 24.4228H33.0976Z" fill="#019681"/>
<path d="M45.2424 24.7962C44.5318 24.7962 43.854 24.6593 43.209 24.3854C42.5641 24.1116 42.0339 23.7257 41.6185 23.2278L42.2088 16.954C42.6679 17.5017 43.1872 17.9499 43.7666 18.2984C44.3569 18.6469 44.9089 18.8212 45.4227 18.8212C45.86 18.8212 46.2043 18.7216 46.4558 18.5225C46.7181 18.3233 46.8712 17.9499 46.9149 17.4022C46.9696 16.7798 46.8329 16.3316 46.505 16.0578C46.177 15.759 45.696 15.3483 45.062 14.8254C44.3514 14.2279 43.8103 13.4935 43.4386 12.6222C43.0669 11.7259 42.8811 10.5807 42.8811 9.18654C42.8811 8.61394 42.9139 8.01644 42.9795 7.39405C43.22 4.80489 43.7556 2.92526 44.5864 1.75515C45.4282 0.585051 46.6307 0 48.1939 0C48.5656 0 48.9537 0.0622394 49.3582 0.186718C49.7736 0.286301 50.1671 0.423229 50.5388 0.5975C50.9105 0.746874 51.222 0.921145 51.4735 1.12031L50.8831 7.43139C50.3803 6.93348 49.9047 6.58493 49.4565 6.38577C49.0083 6.16171 48.5929 6.04968 48.2103 6.04968C47.937 6.04968 47.6747 6.08702 47.4232 6.16171C47.1718 6.2115 46.9641 6.34842 46.8001 6.57249C46.6471 6.77165 46.5706 7.0953 46.5706 7.54342C46.5706 7.94175 46.6963 8.25295 46.9477 8.47701C47.2101 8.67618 47.62 8.96248 48.1775 9.33592C49.1067 9.95831 49.7462 10.7923 50.0961 11.8379C50.4568 12.8836 50.6372 14.0661 50.6372 15.3856C50.6372 16.0329 50.6044 16.6926 50.5388 17.3648C50.3311 19.6054 49.7954 21.4104 48.9318 22.7796C48.0791 24.124 46.8493 24.7962 45.2424 24.7962Z" fill="#019681"/>
<path d="M50.3849 24.4228L52.615 0.373436H56.1405L55.3698 8.77576H58.5018L59.2725 0.373436H62.7979L60.5679 24.4228H57.0424L57.8131 16.0204H54.6811L53.9104 24.4228H50.3849Z" fill="#019681"/>
<path d="M61.4066 24.4228L63.6367 0.373436H67.1622L64.9321 24.4228H61.4066Z" fill="#019681"/>
<path d="M65.7667 24.4228L67.9968 0.373436H71.2599L72.6209 11.4645L76.0152 0.373436H79.5079L77.2778 24.4228H73.7523L74.7034 14.1906L72.8177 20.315H70.9811L70.2432 14.1906L69.2922 24.4228H65.7667Z" fill="#019681"/>
<path d="M113.856 48C113.147 48 112.469 47.901 111.821 47.7031C111.172 47.4966 110.658 47.2341 110.278 46.9156L110.861 45.6118C111.224 45.8958 111.674 46.1325 112.21 46.3218C112.745 46.5112 113.294 46.6058 113.856 46.6058C114.332 46.6058 114.716 46.5542 115.01 46.4509C115.304 46.3476 115.52 46.21 115.658 46.0378C115.797 45.8571 115.866 45.6549 115.866 45.4311C115.866 45.1557 115.766 44.9363 115.568 44.7728C115.369 44.6006 115.109 44.4672 114.79 44.3726C114.478 44.2693 114.128 44.1746 113.739 44.0886C113.359 44.0025 112.975 43.9035 112.586 43.7917C112.205 43.6712 111.855 43.5206 111.535 43.3398C111.224 43.1505 110.969 42.9009 110.771 42.5911C110.572 42.2813 110.472 41.8854 110.472 41.4035C110.472 40.913 110.602 40.4654 110.861 40.061C111.129 39.6479 111.531 39.3208 112.067 39.0799C112.612 38.8303 113.299 38.7055 114.128 38.7055C114.673 38.7055 115.213 38.7744 115.749 38.9121C116.285 39.0498 116.752 39.2477 117.149 39.5059L116.618 40.8097C116.211 40.5687 115.792 40.3923 115.36 40.2804C114.928 40.1599 114.513 40.0997 114.115 40.0997C113.649 40.0997 113.268 40.1556 112.975 40.2675C112.689 40.3794 112.478 40.5257 112.339 40.7064C112.21 40.8871 112.145 41.0937 112.145 41.326C112.145 41.6014 112.24 41.8252 112.43 41.9973C112.629 42.1608 112.884 42.2899 113.195 42.3846C113.515 42.4792 113.869 42.5739 114.258 42.6686C114.647 42.7546 115.032 42.8536 115.412 42.9655C115.801 43.0774 116.151 43.2237 116.462 43.4044C116.782 43.5851 117.037 43.8304 117.227 44.1402C117.426 44.45 117.525 44.8416 117.525 45.3149C117.525 45.7969 117.391 46.2444 117.123 46.6575C116.864 47.0619 116.462 47.389 115.918 47.6386C115.373 47.8795 114.686 48 113.856 48Z" fill="#263238"/>
<path d="M102.466 48C101.774 48 101.13 47.8881 100.534 47.6644C99.9463 47.432 99.432 47.1093 98.9912 46.6962C98.559 46.2745 98.2219 45.7797 97.9799 45.2117C97.7379 44.6437 97.6169 44.024 97.6169 43.3528C97.6169 42.6815 97.7379 42.0619 97.9799 41.4939C98.2219 40.9259 98.5633 40.4353 99.0041 40.0222C99.4449 39.6005 99.9592 39.2778 100.547 39.0541C101.135 38.8217 101.779 38.7055 102.479 38.7055C103.222 38.7055 103.901 38.8346 104.514 39.0928C105.128 39.3424 105.646 39.7167 106.07 40.2159L104.981 41.2357C104.652 40.8828 104.285 40.6203 103.879 40.4482C103.473 40.2675 103.032 40.1771 102.556 40.1771C102.081 40.1771 101.645 40.2546 101.247 40.4095C100.858 40.5644 100.517 40.7839 100.223 41.0679C99.9376 41.3519 99.7129 41.6875 99.5487 42.0748C99.3931 42.462 99.3153 42.888 99.3153 43.3528C99.3153 43.8175 99.3931 44.2435 99.5487 44.6307C99.7129 45.018 99.9376 45.3537 100.223 45.6377C100.517 45.9216 100.858 46.1411 101.247 46.296C101.645 46.4509 102.081 46.5284 102.556 46.5284C103.032 46.5284 103.473 46.4423 103.879 46.2702C104.285 46.0895 104.652 45.8184 104.981 45.4569L106.07 46.4897C105.646 46.9802 105.128 47.3546 104.514 47.6127C103.901 47.8709 103.218 48 102.466 48Z" fill="#263238"/>
<path d="M90.7534 47.871V38.8347H92.4388V47.871H90.7534Z" fill="#263238"/>
<path d="M81.4256 47.871V40.2547H78.4178V38.8347H86.1188V40.2547H83.111V47.871H81.4256Z" fill="#263238"/>
<path d="M71 48C70.2912 48 69.6128 47.901 68.9645 47.7031C68.3163 47.4966 67.802 47.2341 67.4217 46.9156L68.0051 45.6118C68.3681 45.8958 68.8176 46.1325 69.3535 46.3218C69.8893 46.5112 70.4382 46.6058 71 46.6058C71.4754 46.6058 71.86 46.5542 72.1538 46.4509C72.4477 46.3476 72.6638 46.21 72.8021 46.0378C72.9404 45.8571 73.0095 45.6549 73.0095 45.4311C73.0095 45.1557 72.9101 44.9363 72.7113 44.7728C72.5126 44.6006 72.2533 44.4672 71.9335 44.3726C71.6223 44.2693 71.2722 44.1746 70.8833 44.0886C70.503 44.0025 70.1184 43.9035 69.7294 43.7917C69.3491 43.6712 68.9991 43.5206 68.6793 43.3398C68.3681 43.1505 68.1132 42.9009 67.9144 42.5911C67.7156 42.2813 67.6162 41.8854 67.6162 41.4035C67.6162 40.913 67.7458 40.4654 68.0051 40.061C68.2731 39.6479 68.675 39.3208 69.2108 39.0799C69.7554 38.8303 70.4425 38.7055 71.2722 38.7055C71.8168 38.7055 72.357 38.7744 72.8928 38.9121C73.4287 39.0498 73.8955 39.2477 74.293 39.5059L73.7615 40.8097C73.3553 40.5687 72.9361 40.3923 72.5039 40.2804C72.0717 40.1599 71.6569 40.0997 71.2593 40.0997C70.7925 40.0997 70.4122 40.1556 70.1184 40.2675C69.8332 40.3794 69.6214 40.5257 69.4831 40.7064C69.3535 40.8871 69.2886 41.0937 69.2886 41.326C69.2886 41.6014 69.3837 41.8252 69.5739 41.9973C69.7727 42.1608 70.0276 42.2899 70.3388 42.3846C70.6586 42.4792 71.0129 42.5739 71.4019 42.6686C71.7908 42.7546 72.1755 42.8536 72.5558 42.9655C72.9447 43.0774 73.2948 43.2237 73.6059 43.4044C73.9257 43.5851 74.1807 43.8304 74.3708 44.1402C74.5696 44.45 74.669 44.8416 74.669 45.3149C74.669 45.7969 74.535 46.2444 74.2671 46.6575C74.0078 47.0619 73.6059 47.389 73.0614 47.6386C72.5169 47.8795 71.8297 48 71 48Z" fill="#263238"/>
<path d="M58.1536 48C57.4449 48 56.7923 47.8838 56.1959 47.6515C55.5996 47.4191 55.081 47.0964 54.6402 46.6833C54.1994 46.2616 53.858 45.771 53.6159 45.2117C53.3739 44.6437 53.2529 44.024 53.2529 43.3528C53.2529 42.6815 53.3739 42.0662 53.6159 41.5068C53.858 40.9388 54.1994 40.4482 54.6402 40.0351C55.081 39.6134 55.5996 39.2864 56.1959 39.0541C56.7923 38.8217 57.4406 38.7055 58.1407 38.7055C58.8494 38.7055 59.4976 38.8217 60.0854 39.0541C60.6818 39.2864 61.2003 39.6134 61.6412 40.0351C62.082 40.4482 62.4234 40.9388 62.6654 41.5068C62.9074 42.0662 63.0284 42.6815 63.0284 43.3528C63.0284 44.024 62.9074 44.6437 62.6654 45.2117C62.4234 45.7797 62.082 46.2702 61.6412 46.6833C61.2003 47.0964 60.6818 47.4191 60.0854 47.6515C59.4976 47.8838 58.8537 48 58.1536 48ZM58.1407 46.5284C58.5987 46.5284 59.0223 46.4509 59.4112 46.296C59.8001 46.1411 60.1372 45.9216 60.4225 45.6377C60.7077 45.345 60.9281 45.0094 61.0837 44.6307C61.2479 44.2435 61.33 43.8175 61.33 43.3528C61.33 42.888 61.2479 42.4663 61.0837 42.0877C60.9281 41.7004 60.7077 41.3648 60.4225 41.0808C60.1372 40.7882 59.8001 40.5644 59.4112 40.4095C59.0223 40.2546 58.5987 40.1771 58.1407 40.1771C57.6826 40.1771 57.259 40.2546 56.8701 40.4095C56.4898 40.5644 56.1527 40.7882 55.8589 41.0808C55.5736 41.3648 55.3489 41.7004 55.1847 42.0877C55.0291 42.4663 54.9513 42.888 54.9513 43.3528C54.9513 43.8089 55.0291 44.2306 55.1847 44.6178C55.3489 45.0051 55.5736 45.345 55.8589 45.6377C56.1441 45.9216 56.4812 46.1411 56.8701 46.296C57.259 46.4509 57.6826 46.5284 58.1407 46.5284Z" fill="#263238"/>
<path d="M44.755 48C44.0463 48 43.3937 47.8881 42.7973 47.6644C42.2096 47.432 41.6953 47.1093 41.2545 46.6962C40.8137 46.2745 40.4723 45.7797 40.2303 45.2117C39.9883 44.6437 39.8673 44.024 39.8673 43.3528C39.8673 42.6815 39.9883 42.0619 40.2303 41.4939C40.4723 40.9259 40.8137 40.4353 41.2545 40.0222C41.704 39.6005 42.2269 39.2778 42.8233 39.0541C43.4196 38.8217 44.0722 38.7055 44.7809 38.7055C45.5502 38.7055 46.2416 38.8303 46.8553 39.0799C47.4776 39.3295 48.0005 39.6952 48.4241 40.1771L47.3609 41.2099C47.0066 40.857 46.6219 40.5988 46.2071 40.4353C45.8008 40.2632 45.3514 40.1771 44.8587 40.1771C44.3834 40.1771 43.9426 40.2546 43.5363 40.4095C43.1301 40.5644 42.7801 40.7839 42.4862 41.0679C42.1923 41.3519 41.9633 41.6875 41.799 42.0748C41.6435 42.462 41.5657 42.888 41.5657 43.3528C41.5657 43.8089 41.6435 44.2306 41.799 44.6178C41.9633 45.0051 42.1923 45.345 42.4862 45.6377C42.7801 45.9216 43.1258 46.1411 43.5234 46.296C43.921 46.4509 44.3618 46.5284 44.8458 46.5284C45.2952 46.5284 45.7274 46.4595 46.1423 46.3218C46.5658 46.1755 46.9677 45.9346 47.348 45.5989L48.3074 46.8511C47.832 47.2298 47.2788 47.5181 46.6479 47.716C46.0256 47.9053 45.3946 48 44.755 48ZM46.7127 46.6316V43.2495H48.3074V46.8511L46.7127 46.6316Z" fill="#263238"/>
<path d="M30.4841 48C29.7753 48 29.1228 47.8838 28.5264 47.6515C27.93 47.4191 27.4114 47.0964 26.9706 46.6833C26.5298 46.2616 26.1884 45.771 25.9464 45.2117C25.7044 44.6437 25.5834 44.024 25.5834 43.3528C25.5834 42.6815 25.7044 42.0662 25.9464 41.5068C26.1884 40.9388 26.5298 40.4482 26.9706 40.0351C27.4114 39.6134 27.93 39.2864 28.5264 39.0541C29.1228 38.8217 29.771 38.7055 30.4711 38.7055C31.1799 38.7055 31.8281 38.8217 32.4158 39.0541C33.0122 39.2864 33.5308 39.6134 33.9716 40.0351C34.4124 40.4482 34.7538 40.9388 34.9958 41.5068C35.2378 42.0662 35.3588 42.6815 35.3588 43.3528C35.3588 44.024 35.2378 44.6437 34.9958 45.2117C34.7538 45.7797 34.4124 46.2702 33.9716 46.6833C33.5308 47.0964 33.0122 47.4191 32.4158 47.6515C31.8281 47.8838 31.1842 48 30.4841 48ZM30.4711 46.5284C30.9292 46.5284 31.3527 46.4509 31.7417 46.296C32.1306 46.1411 32.4677 45.9216 32.7529 45.6377C33.0382 45.345 33.2585 45.0094 33.4141 44.6307C33.5784 44.2435 33.6605 43.8175 33.6605 43.3528C33.6605 42.888 33.5784 42.4663 33.4141 42.0877C33.2585 41.7004 33.0382 41.3648 32.7529 41.0808C32.4677 40.7882 32.1306 40.5644 31.7417 40.4095C31.3527 40.2546 30.9292 40.1771 30.4711 40.1771C30.013 40.1771 29.5895 40.2546 29.2006 40.4095C28.8203 40.5644 28.4832 40.7882 28.1893 41.0808C27.9041 41.3648 27.6794 41.7004 27.5152 42.0877C27.3596 42.4663 27.2818 42.888 27.2818 43.3528C27.2818 43.8089 27.3596 44.2306 27.5152 44.6178C27.6794 45.0051 27.9041 45.345 28.1893 45.6377C28.4745 45.9216 28.8116 46.1411 29.2006 46.296C29.5895 46.4509 30.013 46.5284 30.4711 46.5284Z" fill="#263238"/>
<path d="M15.2638 47.871V38.8347H16.9492V46.451H21.6944V47.871H15.2638Z" fill="#263238"/>
<path d="M79.7418 23.4313C79.7633 21.5735 79.8656 19.7265 79.9841 17.8849C80.108 16.0433 80.2641 14.207 80.4418 12.3708C80.6195 10.5345 80.8296 8.70899 81.0504 6.88347C81.2765 5.05796 81.5296 3.23244 81.7881 1.41229C81.885 0.730401 82.4774 0.236437 83.1452 0.241806H83.1613C84.3353 0.241806 85.4554 0.209591 86.667 0.241806L87.5663 0.263283L88.4657 0.322343C89.0688 0.349189 89.6612 0.424358 90.2589 0.499526C92.6445 0.789462 94.9978 1.33712 97.2542 2.12639C99.5159 2.91029 101.675 3.95727 103.695 5.19755C105.703 6.44857 107.588 7.89825 109.209 9.58417C107.163 8.44053 105.122 7.38818 103.011 6.513C100.911 5.62709 98.7566 4.92373 96.5756 4.35996C94.4001 3.79083 92.1814 3.4311 89.9573 3.21096C89.4027 3.16264 88.8426 3.10895 88.2879 3.08747L87.4533 3.03915L86.6132 3.02841C85.5038 3.00693 84.3083 3.0123 83.1613 3.00156L84.5345 1.83108C84.2276 3.64586 83.9045 5.45527 83.5598 7.26469C83.2098 9.0741 82.8544 10.8781 82.4613 12.6768C82.0681 14.4755 81.6535 16.2742 81.2065 18.0675C80.7596 19.8608 80.291 21.6487 79.7364 23.4205L79.7418 23.4313Z" fill="#263238"/>
<path d="M86.5905 10.9159C88.9963 10.6485 91.3967 10.4613 93.8025 10.3008C95.0054 10.2099 96.2083 10.151 97.4058 10.0815C98.6087 10.012 99.8116 9.94245 101.009 9.90501L102.811 9.83547L103.712 9.79803L104.165 9.78199H104.677C105.373 9.78199 106.096 9.89966 106.813 10.1404C107.525 10.3917 108.216 10.7822 108.782 11.3117C109.926 12.3708 110.53 13.7507 110.853 15.0505C111.183 16.3609 111.285 17.65 111.29 18.9123L110.082 17.5376C112.315 17.8211 114.543 18.1367 116.765 18.4469L120.104 18.939L120.941 19.0674C121.07 19.0834 121.237 19.1209 121.41 19.1583C121.577 19.1957 121.75 19.2332 121.901 19.2813C122.537 19.4632 123.158 19.7092 123.729 20.0355C124.878 20.6773 125.871 21.5866 126.599 22.6617C126.966 23.1966 127.257 23.7796 127.484 24.384L127.64 24.8279L127.764 25.2291L128.012 26.0261L128.999 29.2192L129.949 32.4285L129.97 32.5034C130.084 32.8938 129.863 33.3003 129.469 33.4126C129.388 33.434 129.307 33.4447 129.226 33.4394C127.554 33.3645 112.99 32.8617 111.317 32.6799C112.99 32.498 127.554 31.9952 129.226 31.9203L128.503 32.9313L127.219 29.8397L125.979 26.7321L125.671 25.9565L125.515 25.5661L125.369 25.2344C125.17 24.8065 124.921 24.4107 124.641 24.0363C124.08 23.2929 123.33 22.6991 122.51 22.2819C122.1 22.0733 121.663 21.9182 121.216 21.8113C121.102 21.7792 120.994 21.7631 120.892 21.7417C120.79 21.7203 120.682 21.6989 120.531 21.6882L119.695 21.592L116.361 21.1801C114.139 20.8913 111.922 20.6024 109.705 20.2922H109.699C109.003 20.1906 108.496 19.5969 108.496 18.9176C108.496 17.7997 108.431 16.6925 108.21 15.6816C107.984 14.6707 107.606 13.7668 107.002 13.1624C106.419 12.5419 105.567 12.205 104.553 12.1033L104.165 12.0712L103.712 12.0552L102.811 12.0178L101.009 11.9482C99.8062 11.9054 98.6033 11.8412 97.4058 11.7717C96.2029 11.7022 95 11.6487 93.8025 11.5524C91.3967 11.3866 88.9963 11.2047 86.5905 10.9373V10.9159Z" fill="#263238"/>
<path d="M0 32.2404C2.48436 31.8693 75.1356 31.0998 77.6145 31.0015C82.5778 30.7996 87.5411 30.7778 92.5044 30.8706L91.1488 32.2404C91.1704 30.2539 92.094 28.3165 93.5738 27.0722C94.3029 26.4446 95.167 25.9862 96.0797 25.7188C96.5334 25.5878 97.0033 25.5169 97.4731 25.4841C97.7054 25.4732 97.943 25.4841 98.1753 25.4787L98.7747 25.5169L99.3742 25.566C99.6011 25.5933 99.8333 25.6151 100.055 25.6533C100.503 25.7406 100.946 25.8607 101.362 26.0353C102.204 26.3737 102.944 26.914 103.538 27.5579C104.743 28.8404 105.283 30.6468 105.04 32.2458C104.921 31.4436 104.651 30.6959 104.262 30.0356C103.868 29.3862 103.36 28.8295 102.782 28.3984C102.199 27.9672 101.545 27.678 100.881 27.5143C100.546 27.4324 100.206 27.3942 99.8711 27.3833C99.7037 27.3833 99.5308 27.3942 99.3634 27.3997L98.7747 27.4433L98.1861 27.4815C98.024 27.5034 97.8566 27.5197 97.7 27.547C97.3813 27.6125 97.0681 27.7053 96.771 27.8253C96.177 28.0655 95.6423 28.4366 95.1994 28.8841C94.3083 29.7845 93.8222 31.0179 93.8654 32.2513C93.8924 32.9826 93.3254 33.5938 92.6017 33.6156H92.5152C87.5519 33.7084 82.5886 33.6866 77.6253 33.4847C75.141 33.3864 2.47895 32.6115 0 32.2404Z" fill="#263238"/>
</svg>
