<svg width="29" height="29" viewBox="0 0 29 29" fill="none" xmlns="http://www.w3.org/2000/svg">
<g clip-path="url(#clip0_74_1069)">
<path d="M1.01064 7.94173C1.13694 7.97682 1.26319 8.01208 1.38942 8.04742C1.45973 8.06704 1.53004 8.08666 1.60248 8.10688C1.88157 8.18906 2.15082 8.29018 2.42136 8.39659C2.80407 8.54412 3.18627 8.68239 3.57817 8.80391C3.81151 8.87995 4.0409 8.96517 4.27079 9.05094C4.56085 9.15911 4.85063 9.26338 5.14613 9.35607C5.44163 9.44876 5.73141 9.55303 6.02147 9.6612C6.30453 9.76675 6.58706 9.86889 6.87568 9.95855C7.29656 10.0904 7.70805 10.247 8.12133 10.4006C8.46918 10.5294 8.81772 10.6501 9.17206 10.76C9.4505 10.8512 9.72432 10.9547 9.99813 11.0588C10.2973 11.1713 10.5891 11.2552 10.8994 11.3431C11.0181 11.8596 11.1369 12.3761 11.2592 12.9082C11.3452 12.8284 11.4312 12.7486 11.5199 12.6664C11.9416 12.2796 12.3775 11.9093 12.812 11.537C13.2596 11.1533 13.7037 10.766 14.1447 10.3748C14.4218 10.1298 14.7041 9.89259 14.9911 9.65908C15.2622 9.4373 15.5294 9.21086 15.7969 8.9847C15.8523 8.93799 15.9077 8.89128 15.9648 8.84315C16.0443 8.77595 16.0443 8.77595 16.1255 8.70739C16.1731 8.6672 16.2206 8.62702 16.2697 8.58562C16.3667 8.50151 16.46 8.41306 16.5517 8.3232C16.9611 8.17845 17.2529 8.31592 17.6362 8.46694C17.7684 8.5169 17.9007 8.56673 18.033 8.61645C18.1372 8.65602 18.1372 8.65602 18.2435 8.69639C18.6182 8.83605 18.9965 8.96507 19.3745 9.09523C19.8906 9.27393 20.4035 9.45671 20.9121 9.65561C21.0988 9.72543 21.2868 9.78474 21.4775 9.84285C21.8267 9.95322 22.1398 10.0985 22.4567 10.2814C22.5053 10.3088 22.5538 10.3362 22.6039 10.3644C23.6456 11.0065 23.9492 12.1462 24.3109 13.2397C24.3267 13.287 24.3424 13.3343 24.3586 13.3831C24.6449 14.2453 24.9025 15.113 25.1131 15.9971C25.1259 16.0449 25.1387 16.0928 25.1519 16.142C25.2385 16.5008 25.1891 16.7617 25.0723 17.1082C25.0584 17.155 25.0445 17.2018 25.0302 17.2501C24.8169 17.9156 24.4108 18.342 23.875 18.7725C23.7636 18.864 23.6524 18.9556 23.5412 19.0473C23.4873 19.0916 23.4334 19.1358 23.3779 19.1813C23.1722 19.3526 22.9737 19.5311 22.7758 19.7113C22.1577 20.2686 21.6601 20.4954 20.8429 20.6474C20.7787 20.6598 20.7145 20.6722 20.6483 20.685C20.321 20.7467 20.0062 20.7952 19.673 20.7986C19.7176 21.0729 19.7651 21.3465 19.8131 21.6202C19.8319 21.7362 19.8319 21.7362 19.8511 21.8545C19.9316 22.3039 20.0114 22.6028 20.3299 22.9357C20.4212 23.0089 20.4212 23.0089 20.6452 22.964C21.0104 22.8898 21.2315 22.6811 21.5004 22.4349C21.5752 22.3687 21.5752 22.3687 21.6515 22.3013C21.7968 22.1724 21.941 22.0422 22.0849 21.9117C22.1527 21.8511 22.2206 21.7906 22.2885 21.7302C22.3808 21.6481 22.4731 21.566 22.565 21.4835C22.8336 21.2427 23.1069 21.0076 23.3809 20.7731C23.5622 20.6176 23.7427 20.4613 23.9233 20.305C24.1437 20.1146 24.3658 19.9272 24.5918 19.7436C24.7497 19.6146 24.9055 19.4831 25.0618 19.3523C25.121 19.3056 25.1802 19.2588 25.2412 19.2107C25.5466 18.9609 25.5466 18.9609 25.6631 18.6005C25.6473 18.4301 25.6211 18.2731 25.5764 18.1081C25.8097 18.1145 25.9687 18.1734 26.1813 18.2721C26.2711 18.3133 26.2711 18.3133 26.3626 18.3553C26.6509 18.4975 26.6509 18.4975 26.7076 18.656C26.718 18.7069 26.7285 18.7578 26.7393 18.8102C26.7505 18.8602 26.7618 18.9101 26.7734 18.9616C26.7818 19.3069 26.6779 19.5359 26.4561 19.7892C26.3899 19.8491 26.3229 19.9081 26.2551 19.9662C26.2179 19.9993 26.1807 20.0324 26.1423 20.0665C26.0157 20.1783 25.8878 20.2883 25.7593 20.3979C25.7126 20.4377 25.666 20.4775 25.618 20.5185C25.3597 20.7383 25.1002 20.9568 24.8404 21.1747C24.5178 21.4459 24.1994 21.7218 23.8818 21.9988C23.3933 22.4246 22.9021 22.8472 22.409 23.2677C22.377 23.295 22.345 23.3223 22.3121 23.3504C21.0351 24.4397 21.0351 24.4397 20.6782 24.4403C20.4251 24.3814 20.1847 24.2937 19.9415 24.2031C19.8848 24.1822 19.8281 24.1614 19.7696 24.14C19.6579 24.0987 19.5462 24.0573 19.4346 24.0155C19.2065 23.933 18.9755 23.8611 18.7439 23.789C18.5735 23.7321 18.407 23.6712 18.2396 23.6064C18.1888 23.587 18.1379 23.5677 18.0855 23.5478C17.9844 23.5092 17.8837 23.4696 17.7833 23.4291C17.567 23.3471 17.4287 23.2987 17.1974 23.3373C16.9765 23.4673 16.7972 23.6236 16.6106 23.7983C16.5395 23.8635 16.4684 23.9287 16.3972 23.9939C16.3395 24.047 16.2818 24.1 16.2224 24.1547C16.0009 24.3234 15.717 24.3504 15.4448 24.365C14.5273 24.1822 13.8965 23.4788 13.384 22.7417C13.2 22.4546 13.0916 22.1659 13.0004 21.8382C12.9763 21.793 12.9522 21.7479 12.9273 21.7014C12.8192 21.6766 12.7102 21.6559 12.6008 21.6377C12.4919 21.6046 12.3836 21.5695 12.2758 21.5327C12.2137 21.5116 12.1515 21.4904 12.0874 21.4686C12.0215 21.446 11.9555 21.4233 11.8876 21.3999C11.8196 21.3767 11.7516 21.3535 11.6815 21.3295C11.4726 21.258 11.2639 21.1861 11.0552 21.1142C10.9916 21.0923 10.9279 21.0704 10.8623 21.0478C10.6868 20.9874 10.5114 20.9267 10.3361 20.8658C10.2834 20.8476 10.2308 20.8294 10.1765 20.8107C9.98118 20.7424 9.79809 20.6782 9.61623 20.5788C9.49996 20.5152 9.49996 20.5152 9.38684 20.5702C9.15095 20.7009 8.96207 20.9053 8.7655 21.0883C8.457 21.3703 8.19022 21.5763 7.75322 21.5852C7.08772 21.5438 6.54391 21.1739 6.10935 20.6899C6.01114 20.5768 5.91354 20.4631 5.81671 20.3488C5.77416 20.3023 5.73162 20.2558 5.68779 20.2079C5.37577 19.8479 5.23116 19.4299 5.11573 18.974C5.07017 18.9663 5.02461 18.9586 4.97767 18.9506C4.77311 18.9069 4.58335 18.8446 4.38623 18.7747C4.31816 18.7509 4.25008 18.727 4.17995 18.7025C3.52492 18.445 3.10127 18.0403 2.8053 17.4019C2.7132 17.0929 2.65534 16.7799 2.59863 16.463C2.581 16.3697 2.56326 16.2764 2.54542 16.1831C2.49768 15.9318 2.45143 15.6803 2.40546 15.4287C2.35703 15.165 2.3072 14.9016 2.25753 14.6382C2.16384 14.1403 2.07139 13.6421 1.97939 13.1438C1.87453 12.5762 1.76827 12.0088 1.6619 11.4414C1.44327 10.2751 1.22638 9.10855 1.01064 7.94173Z" fill="#C77F01"/>
<path d="M16.9771 8.24292C17.2049 8.29811 17.4189 8.38143 17.6367 8.46725C17.7689 8.51721 17.9012 8.56705 18.0335 8.61677C18.1378 8.65634 18.1378 8.65634 18.2441 8.69671C18.6187 8.83637 18.9971 8.96539 19.3751 9.09555C19.8912 9.27424 20.4041 9.45702 20.9127 9.65592C21.0994 9.72574 21.2874 9.78506 21.478 9.84317C21.8273 9.95353 22.1404 10.0988 22.4573 10.2817C22.5058 10.3091 22.5544 10.3365 22.6044 10.3647C23.6461 11.0068 23.9497 12.1465 24.3115 13.24C24.3272 13.2874 24.343 13.3347 24.3592 13.3834C24.6455 14.2456 24.903 15.1133 25.1136 15.9974C25.1264 16.0453 25.1393 16.0931 25.1525 16.1423C25.239 16.5012 25.1897 16.762 25.0729 17.1085C25.059 17.1554 25.0451 17.2022 25.0308 17.2504C24.8174 17.916 24.4114 18.3423 23.8755 18.7728C23.7642 18.8643 23.6529 18.9559 23.5418 19.0477C23.4879 19.0919 23.434 19.1361 23.3785 19.1816C23.1727 19.353 22.9742 19.5314 22.7763 19.7117C22.288 20.152 21.8711 20.4547 21.2135 20.5758C21.1489 20.5878 21.0843 20.5999 21.0178 20.6123C20.9513 20.6244 20.8847 20.6365 20.8162 20.6489C20.7483 20.6615 20.6804 20.6741 20.6105 20.6871C20.4437 20.718 20.2768 20.7486 20.1099 20.779C20.0951 20.7205 20.0951 20.7205 20.0799 20.6609C19.8054 19.5871 19.4875 18.5338 19.1375 17.4827C19.0747 17.2935 19.0133 17.1038 18.9522 16.914C18.6031 15.8462 18.1153 15.0384 17.0876 14.5092C16.7492 14.3493 16.4003 14.2227 16.048 14.097C15.9411 14.058 15.9411 14.058 15.832 14.0182C15.4373 13.8752 15.0407 13.7409 14.6405 13.6138C14.3533 13.5217 14.0683 13.4235 13.7833 13.3251C13.723 13.3044 13.6627 13.2837 13.6005 13.2624C13.3047 13.1604 13.0097 13.0568 12.7161 12.9486C12.6642 12.9296 12.6122 12.9105 12.5588 12.8909C12.4617 12.8551 12.3648 12.8189 12.2681 12.7822C12.0351 12.6963 11.8389 12.6389 11.5894 12.6575C11.8248 12.3556 12.1121 12.1255 12.4052 11.8824C12.8545 11.5065 13.2999 11.1268 13.7412 10.7415C14.2207 10.3233 14.704 9.90997 15.1919 9.50146C15.4325 9.29956 15.6703 9.09599 15.9024 8.88437C15.9436 8.847 15.9849 8.80964 16.0274 8.77114C16.1031 8.7022 16.1781 8.6326 16.2524 8.56219C16.4881 8.34804 16.657 8.24995 16.9771 8.24292Z" fill="#FED514"/>
<path d="M1.01094 7.94199C1.13724 7.97708 1.26348 8.01235 1.38971 8.04769C1.46002 8.06731 1.53033 8.08693 1.60278 8.10714C1.88186 8.18933 2.15112 8.29044 2.42166 8.39685C2.80436 8.54438 3.18656 8.68266 3.57847 8.80418C3.8118 8.88022 4.04119 8.96543 4.27109 9.0512C4.56114 9.15938 4.85093 9.26364 5.14642 9.35633C5.44192 9.44902 5.7317 9.55329 6.02176 9.66146C6.30483 9.76701 6.58735 9.86915 6.87597 9.95882C7.29685 10.0907 7.70834 10.2473 8.12162 10.4009C8.46947 10.5296 8.81801 10.6504 9.17235 10.7603C9.45079 10.8515 9.72461 10.955 9.99843 11.0591C10.2976 11.1715 10.5894 11.2555 10.8997 11.3433C11.3742 13.8448 11.8488 16.3463 12.3377 18.9236C11.4208 18.6641 11.4208 18.6641 10.9804 18.5018C10.9322 18.4843 10.884 18.4668 10.8344 18.4488C10.5961 18.3622 10.3583 18.2743 10.1205 18.1861C10.034 18.154 9.94739 18.122 9.86082 18.0899C9.81905 18.0744 9.77729 18.0589 9.73425 18.0429C9.42971 17.9307 9.12275 17.8295 8.81317 17.7323C8.58536 17.6584 8.36194 17.574 8.13768 17.4901C7.95914 17.4255 7.77943 17.367 7.59844 17.3097C7.3037 17.2163 7.01449 17.1125 6.725 17.0042C6.54646 16.9396 6.36675 16.8811 6.18576 16.8238C5.95772 16.7515 5.73269 16.6753 5.50885 16.591C5.20023 16.4755 4.88847 16.3718 4.57537 16.2694C4.12569 16.1221 3.67788 15.9701 3.2313 15.8136C3.1494 15.785 3.1494 15.785 3.06584 15.7558C2.85744 15.6825 2.65252 15.6084 2.44897 15.5223C2.40127 15.3932 2.40127 15.3932 2.36971 15.2241C2.35733 15.1602 2.34495 15.0963 2.33219 15.0304C2.31948 14.9599 2.30677 14.8893 2.29368 14.8166C2.27962 14.7426 2.26556 14.6687 2.25108 14.5925C2.21266 14.3894 2.17505 14.1861 2.13779 13.9828C2.09868 13.7705 2.05855 13.5583 2.01852 13.3461C1.94286 12.9442 1.86813 12.5421 1.79372 12.1399C1.70898 11.6821 1.62321 11.2245 1.53735 10.7669C1.36073 9.82549 1.18541 8.88382 1.01094 7.94199Z" fill="#82A4B8"/>
<path d="M2.44901 15.5223C3.03615 15.6768 3.59995 15.8602 4.16525 16.082C4.44269 16.1902 4.71814 16.2822 5.00552 16.3601C5.1943 16.4144 5.37513 16.4861 5.55769 16.5582C5.88518 16.6858 6.21483 16.7987 6.55023 16.9037C6.78741 16.9816 7.02088 17.0678 7.25473 17.1551C7.60985 17.2875 7.96632 17.4099 8.32802 17.5235C8.55281 17.5964 8.7733 17.6795 8.99457 17.7624C9.1674 17.825 9.34094 17.8823 9.51614 17.9379C10.0401 18.1055 10.5612 18.2808 11.0808 18.4612C11.3007 18.5372 11.5191 18.6072 11.7444 18.6652C11.9732 18.7308 12.1463 18.782 12.3378 18.9237C12.44 19.1669 12.481 19.3581 12.5109 19.6202C12.5517 19.8415 12.5517 19.8415 12.7732 19.9383C12.969 20.011 12.969 20.011 13.1156 19.958C13.1853 19.908 13.2542 19.8568 13.3224 19.8049C13.9484 19.6705 14.4025 19.7965 14.9335 20.1353C15.6233 20.6326 16.2656 21.3779 16.4263 22.2336C16.4982 22.7303 16.4982 22.7303 16.7716 23.1225C16.9094 23.1736 17.0311 23.2063 17.1772 23.22C16.9001 23.6781 16.4164 24.0979 15.9311 24.323C15.4465 24.4417 15.0629 24.2699 14.6367 24.0475C13.8558 23.5713 13.243 22.7091 13.0008 21.8385C12.9766 21.7934 12.9525 21.7482 12.9276 21.7017C12.8196 21.6769 12.7105 21.6562 12.6012 21.638C12.4922 21.6049 12.3839 21.5698 12.2762 21.533C12.214 21.5119 12.1518 21.4907 12.0877 21.469C12.0218 21.4463 11.9559 21.4236 11.8879 21.4003C11.8199 21.377 11.7519 21.3538 11.6818 21.3298C11.473 21.2583 11.2643 21.1864 11.0556 21.1145C10.9919 21.0926 10.9283 21.0707 10.8627 21.0481C10.6872 20.9877 10.5118 20.927 10.3364 20.8661C10.2838 20.8479 10.2311 20.8297 10.1768 20.811C9.98152 20.7427 9.79842 20.6785 9.61657 20.5791C9.5003 20.5155 9.5003 20.5155 9.38717 20.5705C9.15129 20.7012 8.96241 20.9056 8.76583 21.0886C8.45734 21.3706 8.19056 21.5767 7.75355 21.5855C7.08806 21.5441 6.54424 21.1742 6.10969 20.6902C6.01148 20.5771 5.91387 20.4634 5.81704 20.3492C5.7745 20.3026 5.73195 20.2561 5.68812 20.2082C5.37611 19.8482 5.2315 19.4302 5.11606 18.9743C5.0705 18.9666 5.02495 18.9589 4.97801 18.951C4.77344 18.9072 4.58368 18.845 4.38657 18.775C4.31849 18.7512 4.25042 18.7273 4.18028 18.7028C3.52854 18.4466 3.09571 18.0411 2.80564 17.4022C2.7158 17.0793 2.65858 16.754 2.60424 16.4235C2.58886 16.3357 2.57336 16.248 2.55774 16.1603C2.52018 15.9478 2.48416 15.7352 2.44901 15.5223Z" fill="#242A2F"/>
<path d="M23.3631 11.7434C23.4836 11.8255 23.4999 11.9583 23.5469 12.0933C23.5692 12.1574 23.5915 12.2215 23.6146 12.2875C23.6385 12.3571 23.6625 12.4268 23.6871 12.4987C23.7117 12.57 23.7363 12.6413 23.7616 12.7148C24.7097 15.4828 24.7097 15.4828 24.5408 15.916C24.3558 16.215 24.0747 16.4201 23.8044 16.6386C23.6908 16.7323 23.5773 16.8262 23.4638 16.9201C23.4081 16.9659 23.3524 17.0118 23.295 17.059C23.0865 17.2321 22.8829 17.4103 22.6801 17.59C22.2544 17.9658 21.8206 18.3318 21.3857 18.697C21.3092 18.7613 21.3092 18.7613 21.2312 18.8269C21.1856 18.8651 21.1401 18.9033 21.0932 18.9427C20.9977 19.025 20.9062 19.1119 20.8162 19.2001C20.4067 19.3267 20.4067 19.3267 20.15 19.2104C19.8957 18.9795 19.8225 18.7324 19.7155 18.4116C19.6938 18.3495 19.6721 18.2874 19.6498 18.2235C19.5821 18.0285 19.5163 17.8329 19.4507 17.6372C19.408 17.5132 19.3654 17.3892 19.3226 17.2652C19.2826 17.1471 19.2426 17.0289 19.2028 16.9107C19.1846 16.857 19.1664 16.8032 19.1476 16.7479C18.8413 15.8146 18.8413 15.8146 18.9112 15.4188C19.0287 15.2292 19.1622 15.1071 19.3323 14.9622C19.384 14.9175 19.384 14.9175 19.4368 14.8719C19.5155 14.8041 19.5944 14.7366 19.6734 14.6693C19.9384 14.4432 20.2007 14.2142 20.4636 13.9858C20.5199 13.9371 20.5762 13.8883 20.6342 13.8381C20.9793 13.5389 21.3188 13.2351 21.6547 12.9257C21.8474 12.7523 22.0473 12.5891 22.2497 12.4273C22.4735 12.2426 22.6849 12.0442 22.8966 11.8459C23.0713 11.7241 23.1551 11.7139 23.3631 11.7434Z" fill="#314E73"/>
<path d="M12.3049 13.7784C12.6226 13.7319 12.8746 13.8247 13.165 13.9411C13.5197 14.0799 13.8763 14.2036 14.2394 14.3189C14.7572 14.4843 15.271 14.6623 15.7853 14.8384C15.9605 14.8981 16.136 14.9568 16.3117 15.0152C17.1224 15.2889 17.8507 15.6179 18.2495 16.4216C18.4115 16.7619 18.5177 17.1065 18.6135 17.4702C18.6303 17.5325 18.6471 17.5949 18.6644 17.6591C18.9355 18.682 18.9355 18.682 18.9641 19.0489C18.8657 19.1932 18.8657 19.1932 18.7106 19.2525C18.4124 19.2664 18.2273 19.1505 17.9702 19.0097C17.8644 18.9542 17.7586 18.8989 17.6528 18.8436C17.5981 18.8148 17.5433 18.786 17.487 18.7563C17.2165 18.6159 16.9418 18.4848 16.6667 18.3539C16.6119 18.3276 16.5571 18.3014 16.5006 18.2744C16.1295 18.0974 15.7573 17.9228 15.3848 17.7489C15.2312 17.6771 15.0777 17.6053 14.9241 17.5334C14.8131 17.4815 14.7021 17.4297 14.591 17.3781C14.4154 17.2964 14.2402 17.214 14.065 17.1315C14.012 17.107 13.9589 17.0825 13.9043 17.0572C13.3768 16.8074 12.9063 16.5651 12.6092 16.0452C12.5604 15.8762 12.5224 15.7198 12.492 15.5479C12.4832 15.5017 12.4744 15.4554 12.4653 15.4078C12.4471 15.3109 12.4293 15.2139 12.4119 15.1169C12.3852 14.9679 12.3568 14.8194 12.3282 14.6708C12.3106 14.5764 12.2932 14.4819 12.2758 14.3874C12.2673 14.3429 12.2588 14.2985 12.25 14.2527C12.1952 13.9394 12.1952 13.9394 12.3049 13.7784Z" fill="#253B57"/>
<path d="M14.1568 19.764C15.0684 20.0261 15.6951 20.7464 16.1679 21.5298C16.2948 21.763 16.377 21.9729 16.4259 22.2333C16.4978 22.73 16.4978 22.73 16.7712 23.1222C16.9089 23.1733 17.0307 23.206 17.1768 23.2197C16.8997 23.6778 16.4159 24.0976 15.9307 24.3227C15.4461 24.4414 15.0625 24.2695 14.6363 24.0472C13.8484 23.5667 13.2543 22.702 12.9815 21.8356C12.9636 21.7913 12.9457 21.747 12.9272 21.7014C12.8834 21.689 12.8395 21.6765 12.7943 21.6638C12.8344 21.6562 12.8745 21.6486 12.9157 21.6407C12.9047 21.5942 12.8937 21.5477 12.8824 21.4998C12.7766 21.0117 12.7506 20.6697 12.9492 20.2012C13.2477 19.7493 13.6315 19.6781 14.1568 19.764Z" fill="#31393E"/>
<path d="M6.11754 16.9626C7.00503 17.1332 7.67102 17.8092 8.16302 18.5261C8.54645 19.1385 8.86623 19.9278 8.74121 20.6624C8.7096 20.7772 8.67786 20.8919 8.64535 21.0065C8.71114 21.0251 8.71114 21.0251 8.77825 21.0441C8.43918 21.3583 8.14584 21.614 7.66545 21.599C6.84525 21.4845 6.32335 20.9519 5.81682 20.3494C5.77437 20.3029 5.73192 20.2565 5.68818 20.2086C5.40224 19.879 5.25929 19.5104 5.15722 19.0904C5.14357 19.0522 5.12991 19.0139 5.11584 18.9746C5.07199 18.9621 5.02813 18.9497 4.98294 18.9369C5.023 18.9293 5.06306 18.9217 5.10434 18.9139C5.09206 18.8646 5.07978 18.8152 5.06713 18.7644C4.96483 18.3065 4.91812 17.9208 5.08253 17.4731C5.35508 17.0835 5.65092 16.9882 6.11754 16.9626Z" fill="#30393F"/>
<path d="M16.6311 6.42399C16.745 7.02435 16.8589 7.62471 16.9762 8.24326C16.8036 8.31749 16.6309 8.39171 16.453 8.46818C16.2972 8.58832 16.1556 8.70549 16.0123 8.83842C15.9732 8.87358 15.9342 8.90875 15.8939 8.94498C15.8135 9.0175 15.7333 9.0903 15.6533 9.16337C15.5076 9.29641 15.3607 9.42801 15.2135 9.55929C15.1194 9.64322 15.0257 9.72758 14.932 9.81198C14.7222 9.99774 14.5047 10.1739 14.2875 10.3509C14.0341 10.5584 13.7841 10.7697 13.5341 10.9812C13.4806 11.0266 13.427 11.0719 13.3718 11.1186C12.8997 11.5183 12.43 11.9207 11.9632 12.3266C11.8683 12.409 11.7729 12.4908 11.6774 12.5725C11.6287 12.6148 11.58 12.657 11.5298 12.7004C11.4901 12.7345 11.4504 12.7686 11.4096 12.8037C11.3023 12.9042 11.3023 12.9042 11.2326 13.1023C11.1188 12.502 11.0049 11.9016 10.8875 11.2831C11.0326 11.1726 11.1776 11.0622 11.3271 10.9484C11.4079 10.879 11.4877 10.8085 11.5659 10.7362C11.606 10.6994 11.6462 10.6625 11.6876 10.6245C11.728 10.5871 11.7684 10.5497 11.8101 10.5112C12.076 10.2652 12.3429 10.0305 12.6336 9.81405C12.7701 9.71112 12.8983 9.60011 13.0267 9.48726C13.0815 9.4392 13.1364 9.39114 13.1929 9.34162C13.2226 9.31548 13.2523 9.28935 13.2829 9.26242C13.3907 9.16768 13.4988 9.07326 13.607 8.97888C14.0987 8.54961 14.0987 8.54961 14.5861 8.11556C14.7595 7.96036 14.9368 7.81162 15.1177 7.66525C15.5564 7.30931 15.9773 6.93067 16.3916 6.54674C16.5097 6.44702 16.5097 6.44702 16.6311 6.42399Z" fill="#CECECD"/>
<path d="M25.5768 18.1082C25.81 18.1146 25.9691 18.1735 26.1817 18.2722C26.2415 18.2997 26.3014 18.3271 26.363 18.3554C26.6512 18.4976 26.6512 18.4976 26.7079 18.6561C26.7236 18.7324 26.7236 18.7324 26.7396 18.8103C26.7509 18.8603 26.7622 18.9102 26.7738 18.9617C26.7821 19.3069 26.6782 19.536 26.4564 19.7892C26.3903 19.8492 26.3233 19.9082 26.2555 19.9663C26.2182 19.9994 26.181 20.0325 26.1427 20.0666C26.0161 20.1784 25.8881 20.2884 25.7596 20.398C25.713 20.4378 25.6664 20.4776 25.6183 20.5186C25.36 20.7384 25.1006 20.9568 24.8407 21.1748C24.5181 21.446 24.1997 21.7219 23.8822 21.9989C23.3936 22.4247 22.9025 22.8473 22.4094 23.2678C22.3774 23.2951 22.3454 23.3224 22.3125 23.3505C21.0783 24.4032 21.0783 24.4032 20.6786 24.4403C20.4706 24.3898 20.2735 24.3196 20.0748 24.2408C20.0347 24.0742 19.9969 23.9076 19.9602 23.7403C19.9486 23.6931 19.937 23.6459 19.9251 23.5974C19.8969 23.4642 19.8759 23.3459 19.8792 23.2098C19.9927 23.056 19.9927 23.056 20.1482 22.9703C20.233 22.9727 20.3179 22.9778 20.4025 22.9849C20.8849 22.9635 21.1538 22.7527 21.5007 22.435C21.5506 22.3909 21.6005 22.3468 21.6518 22.3013C21.7972 22.1724 21.9414 22.0423 22.0853 21.9118C22.1531 21.8512 22.2209 21.7907 22.2889 21.7303C22.3812 21.6482 22.4735 21.5661 22.5654 21.4836C22.834 21.2428 23.1072 21.0077 23.3812 20.7732C23.5625 20.6177 23.7431 20.4614 23.9236 20.3051C24.144 20.1147 24.3662 19.9273 24.5922 19.7436C24.7501 19.6147 24.9059 19.4832 25.0622 19.3524C25.1214 19.3057 25.1806 19.2589 25.2416 19.2108C25.547 18.961 25.547 18.961 25.6635 18.6006C25.6477 18.4302 25.6214 18.2732 25.5768 18.1082Z" fill="#30393F"/>
<path d="M24.7559 17.7609C24.7973 17.8152 24.7973 17.8152 24.8396 17.8707C24.8318 17.9253 24.824 17.9799 24.816 18.0361C24.7523 18.5267 24.8572 19.0019 24.9566 19.4819C24.9046 19.5253 24.8526 19.5687 24.7991 19.6134C24.3001 20.0309 23.8082 20.4556 23.3195 20.885C23.0391 21.1309 22.7579 21.3759 22.4769 21.621C22.3435 21.7373 22.2103 21.8535 22.077 21.9699C22.0133 22.0254 21.9496 22.0808 21.8858 22.1362C21.7314 22.2704 21.5781 22.4055 21.426 22.5422C21.3693 22.5928 21.3127 22.6434 21.2543 22.6956C21.2045 22.7406 21.1547 22.7856 21.1034 22.8319C20.8907 22.9944 20.6822 23.0741 20.4135 23.0452C20.1323 22.8753 19.9692 22.6366 19.8836 22.3214C19.8707 22.2522 19.8579 22.183 19.8446 22.1117C19.8304 22.0363 19.8163 21.9609 19.8016 21.8832C19.7876 21.8049 19.7735 21.7266 19.759 21.6459C19.744 21.5668 19.729 21.4877 19.7136 21.4062C19.6053 20.82 19.6053 20.82 19.6613 20.7378C19.7599 20.734 19.8585 20.7305 19.9572 20.7275C20.2484 20.7075 20.5342 20.6466 20.8207 20.5924C20.8838 20.5812 20.9469 20.57 21.0119 20.5585C21.7335 20.423 22.1667 20.1745 22.7213 19.6939C22.7801 19.6438 22.8389 19.5936 22.8994 19.5419C23.0783 19.3886 23.2563 19.2343 23.4341 19.0797C23.488 19.0331 23.542 18.9866 23.5976 18.9386C23.7461 18.8104 23.8939 18.6815 24.0414 18.5522C24.0854 18.514 24.1293 18.4758 24.1746 18.4364C24.4092 18.228 24.5923 18.029 24.7559 17.7609Z" fill="#FDFDFD"/>
<path d="M23.0589 11.8004C23.6157 12.5809 23.9362 13.8104 23.9983 14.7634C23.8999 14.9077 23.8999 14.9077 23.7451 14.9673C23.4454 14.9809 23.2582 14.8628 22.9999 14.7211C22.8953 14.6661 22.7907 14.6113 22.6859 14.5566C22.6318 14.5282 22.5777 14.4997 22.522 14.4704C22.2439 14.3275 21.9605 14.1963 21.6767 14.0651C21.5743 14.0176 21.4719 13.9701 21.3695 13.9227C21.3264 13.9028 21.2833 13.8829 21.239 13.8625C21.1035 13.799 20.9691 13.7334 20.8349 13.6672C21.7945 12.7888 21.7945 12.7888 22.265 12.4126C22.4595 12.2533 22.6442 12.0836 22.829 11.9132C22.9375 11.8234 22.9375 11.8234 23.0589 11.8004Z" fill="#597089"/>
<path d="M24.3249 14.8275C24.3907 14.8461 24.3907 14.8461 24.4578 14.8651C24.4915 14.9974 24.5227 15.1302 24.553 15.2633C24.5707 15.3372 24.5883 15.4111 24.6065 15.4872C24.6218 15.7678 24.5593 15.9244 24.3844 16.1355C24.2004 16.3152 24.0038 16.4767 23.8038 16.6383C23.6903 16.7321 23.5767 16.826 23.4633 16.9199C23.4076 16.9657 23.3519 17.0116 23.2945 17.0588C23.086 17.2319 22.8823 17.4101 22.6796 17.5898C22.2538 17.9656 21.8201 18.3316 21.3852 18.6967C21.3342 18.7396 21.2832 18.7825 21.2307 18.8267C21.1851 18.8649 21.1396 18.9031 21.0926 18.9424C20.9971 19.0247 20.9057 19.1117 20.8156 19.1999C20.5373 19.2859 20.4059 19.3197 20.1316 19.2197C19.8902 18.9623 19.8409 18.6696 19.7703 18.3302C19.8185 18.3521 19.8668 18.3741 19.9165 18.3967C20.1435 18.4652 20.2478 18.459 20.4725 18.3854C20.6116 18.2915 20.734 18.1999 20.8609 18.0919C20.8963 18.0626 20.9317 18.0333 20.9682 18.0031C21.2557 17.7632 21.5328 17.5127 21.8057 17.2564C22.0072 17.0754 22.2153 16.9047 22.4253 16.7337C22.6924 16.5159 22.957 16.295 23.2211 16.0735C23.301 16.0072 23.301 16.0072 23.3825 15.9396C23.9827 15.4739 23.9827 15.4739 24.3249 14.8275Z" fill="#30393D"/>
<path d="M25.5764 18.1086C25.7714 18.1168 25.9299 18.145 26.1145 18.2107C26.162 18.2266 26.2094 18.2425 26.2583 18.259C26.3738 18.3342 26.3738 18.3342 26.4198 18.4775C26.4313 18.6375 26.4313 18.6375 26.3705 18.7456C26.0655 19.0539 25.7421 19.3373 25.4098 19.6159C25.2406 19.7578 25.0722 19.9007 24.9037 20.0434C24.8696 20.0722 24.8354 20.1011 24.8002 20.1308C24.4735 20.4072 24.1503 20.6877 23.8278 20.969C23.3806 21.3586 22.9315 21.746 22.479 22.1295C22.2446 22.3283 22.0122 22.5289 21.7826 22.7332C21.7365 22.7739 21.6905 22.8147 21.643 22.8566C21.5562 22.9335 21.4698 23.0108 21.3839 23.0888C21.1455 23.2991 20.9465 23.4428 20.627 23.508C20.428 23.4832 20.428 23.4832 20.2386 23.4286C20.1432 23.4021 20.1432 23.4021 20.046 23.3751C19.9984 23.3607 19.9509 23.3463 19.9019 23.3315C19.8943 23.2915 19.8867 23.2514 19.8788 23.2102C19.996 23.082 19.996 23.082 20.1478 22.9707C20.2685 22.9725 20.2685 22.9725 20.4021 22.9853C20.8846 22.9638 21.1535 22.753 21.5004 22.4353C21.5502 22.3912 21.6001 22.3471 21.6515 22.3017C21.7969 22.1728 21.941 22.0427 22.085 21.9122C22.1527 21.8516 22.2206 21.7911 22.2885 21.7307C22.3808 21.6486 22.4731 21.5665 22.565 21.4839C22.8336 21.2432 23.1069 21.0081 23.3809 20.7735C23.5622 20.6181 23.7427 20.4618 23.9233 20.3054C24.1437 20.115 24.3658 19.9277 24.5918 19.744C24.7497 19.6151 24.9055 19.4836 25.0618 19.3527C25.121 19.306 25.1802 19.2593 25.2412 19.2112C25.5466 18.9613 25.5466 18.9613 25.6632 18.601C25.6473 18.4306 25.6211 18.2736 25.5764 18.1086Z" fill="#292F33"/>
<path d="M24.5451 18.3045C24.6546 18.5243 24.6818 18.7122 24.7006 18.9582C24.7074 19.0319 24.7143 19.1056 24.7213 19.1816C24.6461 19.7516 24.0625 20.0978 23.6452 20.4385C23.5231 20.5392 23.401 20.6399 23.279 20.7406C23.2253 20.7846 23.1716 20.8286 23.1162 20.8739C22.9722 20.9919 22.9722 20.9919 22.8202 21.1447C22.6773 21.1993 22.6773 21.1993 22.5167 21.2023C22.3015 21.0559 22.1604 20.8935 22.0375 20.665C22.0261 20.6049 22.0147 20.5449 22.003 20.483C22.034 20.457 22.0649 20.431 22.0969 20.4042C22.92 19.7123 23.7352 19.0118 24.5451 18.3045Z" fill="#323B40"/>
<path d="M14.4746 20.906C14.9946 21.0734 15.3107 21.5616 15.5659 22.0183C15.6528 22.3071 15.7265 22.5767 15.6043 22.863C15.4685 23.1029 15.4685 23.1029 15.2779 23.1723C14.9311 23.1936 14.7377 23.0608 14.467 22.855C14.0742 22.4991 13.8294 22.0177 13.7467 21.4988C13.7413 21.2939 13.8069 21.1711 13.9283 21.0096C14.1081 20.8727 14.2522 20.8941 14.4746 20.906Z" fill="#C6C7C7"/>
<path d="M6.22795 18.1679C6.61021 18.1468 6.86343 18.2108 7.15689 18.4616C7.57605 18.883 7.78864 19.3103 7.80867 19.9086C7.78899 20.1073 7.76368 20.1542 7.63491 20.3185C7.38687 20.4236 7.25968 20.4494 7.00644 20.3604C6.57163 20.1317 6.3055 19.7814 6.0695 19.359C6.03475 19.2323 6.00447 19.1044 5.97719 18.976C5.96202 18.9084 5.94685 18.8408 5.93122 18.7712C5.91634 18.5064 5.96764 18.2813 6.22795 18.1679Z" fill="#C8C8C9"/>
<path d="M24.7562 17.7615C24.7976 17.8158 24.7976 17.8158 24.8399 17.8713C24.8282 17.9532 24.8282 17.9532 24.8163 18.0367C24.7526 18.5273 24.8575 19.0024 24.9569 19.4825C24.9049 19.5259 24.8529 19.5693 24.7994 19.614C24.2866 20.043 23.7812 20.4796 23.2792 20.9211C23.0287 21.1409 22.7766 21.359 22.5247 21.5774C22.3732 21.423 22.2588 21.2659 22.1336 21.0901C21.927 20.815 21.7886 20.6735 21.4564 20.5863C21.5547 20.442 21.5547 20.442 21.7823 20.3532C22.1494 20.202 22.4242 19.9522 22.7216 19.6945C22.7804 19.6443 22.8391 19.5942 22.8997 19.5425C23.0786 19.3891 23.2565 19.2348 23.4344 19.0803C23.4883 19.0337 23.5423 18.9872 23.5979 18.9392C23.7464 18.811 23.8942 18.6821 24.0417 18.5528C24.0857 18.5145 24.1296 18.4763 24.1749 18.437C24.4094 18.2285 24.5926 18.0296 24.7562 17.7615ZM24.3396 18.4749C24.2737 18.5312 24.2737 18.5312 24.2065 18.5887C24.1583 18.6301 24.1101 18.6715 24.0605 18.7141C24.011 18.7565 23.9615 18.7988 23.9106 18.8425C23.743 18.9861 23.5755 19.1299 23.4082 19.2737C23.3443 19.3285 23.2805 19.3834 23.2167 19.4382C22.8118 19.7861 22.4071 20.1343 22.0026 20.4827C22.1131 20.7664 22.256 21.0248 22.5164 21.202C22.9639 21.1151 23.2533 20.8052 23.5835 20.5087C23.6408 20.4583 23.698 20.4079 23.757 20.3559C24.36 19.9015 24.36 19.9015 24.7 19.2804C24.6957 19.2348 24.6913 19.1893 24.6868 19.1423C24.6825 19.0927 24.6781 19.0431 24.6736 18.992C24.6683 18.9407 24.663 18.8893 24.6575 18.8364C24.6528 18.7843 24.648 18.7321 24.6431 18.6783C24.6313 18.5497 24.6185 18.4212 24.6054 18.2927C24.4964 18.3134 24.4221 18.4042 24.3396 18.4749Z" fill="#CCC9B8"/>
<path d="M19.6614 20.7386C20.0775 20.7049 20.0775 20.7049 20.17 20.7678C20.206 20.9285 20.238 21.0883 20.2676 21.2501C20.2767 21.2985 20.2858 21.3469 20.2952 21.3968C20.3242 21.5519 20.3529 21.7072 20.3815 21.8624C20.4011 21.9674 20.4208 22.0723 20.4404 22.1773C20.4886 22.4351 20.5365 22.693 20.5841 22.9509C20.7043 22.9281 20.8245 22.9053 20.9483 22.8818C20.9521 22.9018 20.9559 22.9218 20.9598 22.9425C20.7779 22.9954 20.6032 23.0366 20.4135 23.0461C20.1323 22.8762 19.9693 22.6374 19.8836 22.3222C19.8708 22.253 19.8579 22.1838 19.8446 22.1125C19.8305 22.0371 19.8163 21.9617 19.8017 21.8841C19.7876 21.8058 19.7735 21.7275 19.759 21.6468C19.744 21.5676 19.7291 21.4885 19.7136 21.407C19.6053 20.8209 19.6053 20.8209 19.6614 20.7386Z" fill="#CECDCC"/>
<path d="M14.4673 21.4091C14.6922 21.4492 14.822 21.5436 14.9991 21.6852C15.0925 21.8523 15.1272 21.9744 15.1639 22.1604C15.1749 22.2135 15.1859 22.2666 15.1972 22.3213C15.2094 22.462 15.2094 22.462 15.111 22.6063C14.9764 22.6633 14.9764 22.6633 14.8075 22.6639C14.4967 22.4472 14.2887 22.2642 14.2019 21.8953C14.1756 21.6529 14.1756 21.6529 14.2239 21.5142C14.3231 21.4365 14.3231 21.4365 14.4673 21.4091Z" fill="#677A84"/>
<path d="M6.58072 18.6609C6.85183 18.6647 7.01293 18.8319 7.19882 19.0188C7.31796 19.232 7.36864 19.4309 7.38606 19.6743C7.33392 19.8138 7.33392 19.8138 7.23849 19.8908C7.04742 19.927 6.9666 19.8658 6.79826 19.7662C6.5553 19.578 6.44289 19.437 6.3874 19.1334C6.37816 19.0864 6.36892 19.0394 6.3594 18.991C6.34862 18.8015 6.41281 18.7384 6.58072 18.6609Z" fill="#657983"/>
<path d="M22.1011 20.3386C22.0936 20.3815 22.0862 20.4244 22.0786 20.4685C22.1068 20.7381 22.2324 20.9125 22.4327 21.0924C22.6383 21.1532 22.6383 21.1532 22.8199 21.1446C22.7937 21.3381 22.7937 21.3381 22.6273 21.4757C22.5734 21.5131 22.5195 21.5505 22.4641 21.5891C22.4302 21.5349 22.3963 21.4808 22.3614 21.425C22.3154 21.3535 22.2694 21.2821 22.2233 21.2107C22.2012 21.175 22.179 21.1394 22.1562 21.1027C21.9972 20.8589 21.8538 20.7414 21.5893 20.6242C21.5417 20.5918 21.494 20.5593 21.4449 20.5259C21.8833 20.3093 21.8833 20.3093 22.1011 20.3386Z" fill="#CAC9C6"/>
<path d="M24.5321 19.5632C24.5793 19.6475 24.5793 19.6475 24.6273 19.7336C23.4766 20.7612 23.4766 20.7612 22.9036 21.2543C22.8722 21.198 22.8408 21.1418 22.8084 21.0838C22.8613 21.0397 22.8613 21.0397 22.9153 20.9946C23.0776 20.8588 23.2397 20.7226 23.4018 20.5865C23.4573 20.5402 23.5127 20.4938 23.5699 20.4461C23.9046 20.1645 24.2252 19.8749 24.5321 19.5632Z" fill="#B3B4B1"/>
<path d="M16.5846 23.0809C16.9009 23.084 16.9565 23.0981 17.1884 23.2805C17.115 23.3595 17.0405 23.4375 16.9656 23.5151C16.9243 23.5587 16.883 23.6022 16.8404 23.6471C16.7111 23.748 16.7111 23.748 16.4568 23.7334C16.499 23.5181 16.5412 23.3027 16.5846 23.0809Z" fill="#292E32"/>
<path d="M24.6775 18.3418C24.6975 18.338 24.7176 18.3342 24.7382 18.3303C24.8103 18.7106 24.8825 19.0908 24.9568 19.4825C24.8442 19.5454 24.7316 19.6082 24.6156 19.6729C24.6171 19.5236 24.6186 19.3744 24.6203 19.2251C24.6214 19.1048 24.622 18.9844 24.6221 18.864C24.6222 18.8079 24.6223 18.7517 24.6225 18.6939C24.6224 18.642 24.6224 18.5901 24.6223 18.5366C24.6283 18.414 24.6283 18.414 24.6775 18.3418Z" fill="#C2C3C3"/>
<path d="M24.7438 19.0203C24.7638 19.0165 24.7838 19.0127 24.8045 19.0088C24.8549 19.1651 24.9053 19.3214 24.9572 19.4825C24.8446 19.5453 24.732 19.6081 24.616 19.6728C24.6165 19.551 24.6165 19.551 24.6307 19.4187C24.667 19.3911 24.7032 19.3635 24.7406 19.3351C24.7513 19.1743 24.7513 19.1743 24.7438 19.0203Z" fill="#CBCBCA"/>
<path d="M24.1166 18.6997C23.956 18.8887 23.7784 19.0323 23.5786 19.1787C23.5722 19.0621 23.5722 19.0621 23.5933 18.9246C23.7484 18.7626 23.8981 18.7287 24.1166 18.6997Z" fill="#C3C1B8"/>
<path d="M25.1938 16.4215C25.2138 16.4177 25.2339 16.4139 25.2545 16.41C25.2849 16.5701 25.3152 16.7302 25.3465 16.8951C25.2864 16.9065 25.2264 16.9179 25.1644 16.9297C25.1368 16.8935 25.1092 16.8572 25.0807 16.8199C25.1141 16.686 25.1516 16.5529 25.1938 16.4215Z" fill="#F8F3DE"/>
<path d="M16.5705 6.43448L10.8991 11.3427L1.14326 7.97898L7.50947 3.25308L16.5705 6.43448Z" fill="#CECECD"/>
</g>
<defs>
<clipPath id="clip0_74_1069">
<rect width="24" height="24" fill="white" transform="translate(0 4.47266) rotate(-10.7417)"/>
</clipPath>
</defs>
</svg>
