<svg width="72" height="73" viewBox="0 0 72 73" fill="none" xmlns="http://www.w3.org/2000/svg">
<path d="M8.67796 5.19144C8.96955 5.18987 8.96955 5.18987 9.26704 5.18826C9.48 5.18876 9.69296 5.18927 9.91238 5.18979C10.1414 5.18918 10.3704 5.18843 10.5994 5.18755C11.2286 5.18555 11.8579 5.1856 12.4871 5.18598C13.1658 5.18605 13.8444 5.18425 14.5231 5.1827C15.8527 5.18 17.1823 5.1791 18.5119 5.17892C19.5927 5.17877 20.6734 5.1781 21.7542 5.17706C24.818 5.17419 27.8817 5.17269 30.9455 5.17293C31.1933 5.17295 31.1933 5.17295 31.4461 5.17297C31.6115 5.17299 31.7769 5.173 31.9473 5.17301C34.6278 5.17314 37.3083 5.17003 39.9889 5.16543C42.7409 5.16075 45.493 5.1585 48.245 5.15878C49.7902 5.15889 51.3354 5.15799 52.8806 5.15448C54.1962 5.15152 55.5117 5.15081 56.8273 5.15302C57.4985 5.15409 58.1696 5.1541 58.8408 5.15128C59.4556 5.14871 60.0702 5.14918 60.685 5.15202C61.012 5.15276 61.3391 5.15029 61.6662 5.14771C63.071 5.15847 63.9308 5.34685 65.037 6.25191C66.1728 7.64003 66.1494 8.93488 66.1399 10.6516C66.1408 10.9202 66.142 11.1888 66.1434 11.4574C66.1464 12.1844 66.1452 12.9114 66.1431 13.6384C66.1415 14.4012 66.143 15.164 66.144 15.9268C66.1452 17.2081 66.1437 18.4893 66.1406 19.7706C66.137 21.2486 66.1382 22.7266 66.1418 24.2046C66.1447 25.4764 66.1451 26.7482 66.1434 28.02C66.1424 28.7783 66.1423 29.5366 66.1444 30.295C66.1463 31.0086 66.145 31.7222 66.1412 32.4358C66.1404 32.6966 66.1406 32.9573 66.1421 33.218C66.151 34.9973 66.0882 36.6641 64.8066 38.0292C64.1004 38.6708 63.3433 39.242 62.5722 39.8027C62.2826 40.0166 61.9931 40.2307 61.7039 40.445C61.5592 40.552 61.4146 40.6589 61.2656 40.7691C60.6213 41.2496 59.9868 41.7422 59.3536 42.237C59.2342 42.3302 59.1148 42.4234 58.9918 42.5194C58.6301 42.8019 58.2687 43.0847 57.9072 43.3676C56.379 44.5627 54.847 45.7509 53.2924 46.9117C51.8994 47.9521 50.5258 49.0174 49.1546 50.0864C47.8987 51.0651 46.6381 52.0347 45.3588 52.9826C45.1474 53.1413 44.9361 53.3001 44.7248 53.4588C44.505 53.6227 44.2851 53.7865 44.0652 53.9503C43.963 54.0274 43.8608 54.1045 43.7554 54.184C43.6579 54.2562 43.5603 54.3285 43.4598 54.4029C43.3741 54.4669 43.2885 54.531 43.2002 54.597C42.4416 55.0701 41.7441 55.1509 40.8659 55.1537C40.7445 55.1554 40.623 55.157 40.4978 55.1586C40.0974 55.1634 39.697 55.1656 39.2966 55.1674C39.0904 55.1688 39.0904 55.1688 38.88 55.1702C38.1522 55.1751 37.4244 55.1781 36.6966 55.1795C35.9482 55.1813 35.2001 55.1891 34.4518 55.1984C33.8733 55.2045 33.295 55.2062 32.7165 55.2067C32.4409 55.2077 32.1652 55.2103 31.8895 55.2146C30.286 55.2378 29.0576 55.1744 27.7584 54.1234C27.6381 54.0343 27.5178 53.9453 27.3939 53.8535C27.0539 53.6013 26.7237 53.3392 26.3935 53.0743C26.138 52.8725 25.8823 52.6709 25.6264 52.4696C25.4952 52.3663 25.364 52.2629 25.2288 52.1565C24.5547 51.6313 23.87 51.1204 23.1851 50.6094C22.1654 49.848 21.1493 49.0823 20.1397 48.3075C19.1547 47.5518 18.1643 46.804 17.17 46.0607C16.3632 45.4568 15.5616 44.8464 14.7618 44.2334C13.667 43.3943 12.567 42.5631 11.4617 41.7379C10.9044 41.3219 10.348 40.9048 9.79271 40.4862C9.46522 40.2406 9.13609 39.9973 8.80711 39.7537C8.56134 39.5698 8.31562 39.3858 8.06994 39.2018C7.89751 39.0752 7.89751 39.0752 7.72161 38.946C6.42344 37.9678 5.46553 37.0178 5.10598 35.3822C5.03346 34.4976 5.03566 33.6151 5.03755 32.7283C5.03635 32.461 5.03495 32.1937 5.03336 31.9264C5.02976 31.2038 5.02927 30.4813 5.02957 29.7587C5.02959 29.1541 5.0282 28.5494 5.02684 27.9448C5.02371 26.5178 5.02323 25.0908 5.02434 23.6638C5.02542 22.1946 5.02169 20.7254 5.01565 19.2562C5.01064 17.9919 5.0088 16.7275 5.00943 15.4632C5.00977 14.7093 5.00889 13.9555 5.00488 13.2017C5.00124 12.4925 5.00157 11.7835 5.00487 11.0744C5.00543 10.8152 5.00461 10.556 5.00227 10.2967C4.98906 8.72426 5.05739 7.32929 6.16169 6.10767C6.93008 5.41857 7.66475 5.19283 8.67796 5.19144Z" fill="#EAFCFF"/>
<path d="M35.9054 9.47029C36.2685 9.61361 36.2685 9.61361 36.612 9.81787C36.7431 9.89433 36.8742 9.97078 37.0092 10.0496C37.1491 10.134 37.289 10.2185 37.4332 10.3055C37.5821 10.393 37.7309 10.4805 37.8843 10.5707C38.2027 10.758 38.5206 10.9462 38.8381 11.1352C39.3224 11.4228 39.8087 11.7066 40.2959 11.9893C41.9565 12.9526 43.6119 13.9246 45.2658 14.8991C45.4203 14.99 45.5748 15.0808 45.734 15.1744C45.9456 15.2994 45.9456 15.2994 46.1615 15.4269C46.2859 15.5002 46.4104 15.5736 46.5386 15.6492C46.8242 15.826 46.8242 15.826 46.9871 15.989C47.0104 16.4051 47.0232 16.8171 47.0289 17.2336C47.0313 17.364 47.0337 17.4944 47.0361 17.6287C47.0567 18.8332 47.0679 20.0379 47.0765 21.2425C47.0823 22.0523 47.091 22.8617 47.1067 23.6714C47.1219 24.4535 47.1298 25.2354 47.1326 26.0177C47.1349 26.3158 47.1398 26.6138 47.1472 26.9118C47.2024 29.2404 47.2024 29.2404 46.6862 29.8994C46.3064 30.158 45.9483 30.3282 45.5204 30.493C45.3462 30.5991 45.172 30.7051 44.9925 30.8144C44.8312 30.9077 44.67 31.001 44.5038 31.0971C44.3185 31.2049 44.1332 31.3126 43.9423 31.4237C43.8459 31.4795 43.7495 31.5353 43.6501 31.5928C41.8376 32.643 40.0377 33.7128 38.248 34.8015C38.1492 34.8615 38.0504 34.9216 37.9486 34.9834C36.8358 35.6564 36.8358 35.6564 35.7424 36.3598C35.0521 36.3087 34.5565 36.0162 33.9689 35.6666C33.877 35.6124 33.7852 35.5581 33.6905 35.5023C33.3892 35.3241 33.0889 35.1443 32.7887 34.9644C32.5786 34.8397 32.3685 34.7151 32.1583 34.5905C31.7232 34.3326 31.2886 34.074 30.8542 33.8149C30.2251 33.4399 29.5941 33.0681 28.9628 32.6969C28.6685 32.5236 28.3743 32.3503 28.0801 32.177C27.8053 32.0151 27.5303 31.8534 27.2553 31.6917C24.6352 30.1416 24.6352 30.1416 24.1718 29.6782C24.1476 29.2629 24.134 28.8518 24.1274 28.4361C24.1248 28.306 24.1221 28.1759 24.1194 28.0418C24.0965 26.839 24.0838 25.636 24.074 24.4331C24.0673 23.6246 24.0575 22.8164 24.0399 22.0081C24.023 21.227 24.0141 20.4462 24.0108 19.6649C24.0082 19.3674 24.0028 19.0699 23.9945 18.7726C23.9327 16.4489 23.9327 16.4489 24.5107 15.7309C24.9289 15.4328 25.3324 15.2181 25.8014 15.0112C25.9768 14.899 26.1522 14.7869 26.3329 14.6713C26.4865 14.5788 26.6401 14.4864 26.7983 14.3911C26.9757 14.2839 27.1531 14.1766 27.3359 14.0661C27.5238 13.9533 27.7117 13.8405 27.8996 13.7278C28.3021 13.4859 28.7044 13.2437 29.1066 13.0015C29.2092 12.9397 29.3119 12.878 29.4176 12.8144C30.0569 12.4291 30.6924 12.0384 31.3253 11.6428C31.7398 11.3837 32.1553 11.1262 32.5708 10.8688C32.7691 10.7453 32.9668 10.6211 33.1642 10.4961C33.4396 10.3218 33.717 10.1503 33.9944 9.97893C34.1514 9.8805 34.3084 9.78206 34.4701 9.68065C35 9.43698 35.3282 9.40523 35.9054 9.47029Z" fill="#0A0A08"/>
<path d="M8.67796 5.19144C8.96955 5.18987 8.96955 5.18987 9.26704 5.18826C9.48 5.18876 9.69296 5.18927 9.91238 5.18979C10.1414 5.18918 10.3704 5.18843 10.5994 5.18755C11.2286 5.18555 11.8579 5.1856 12.4871 5.18598C13.1658 5.18605 13.8444 5.18425 14.5231 5.1827C15.8527 5.18 17.1823 5.1791 18.5119 5.17892C19.5927 5.17877 20.6734 5.1781 21.7542 5.17706C24.818 5.17419 27.8817 5.17269 30.9455 5.17293C31.1933 5.17295 31.1933 5.17295 31.4461 5.17297C31.6115 5.17299 31.7769 5.173 31.9473 5.17301C34.6278 5.17314 37.3083 5.17003 39.9889 5.16543C42.7409 5.16075 45.493 5.1585 48.245 5.15878C49.7902 5.15889 51.3354 5.15799 52.8806 5.15448C54.1962 5.15152 55.5117 5.15081 56.8273 5.15302C57.4985 5.15409 58.1696 5.1541 58.8408 5.15128C59.4556 5.14871 60.0702 5.14918 60.685 5.15202C61.012 5.15276 61.3391 5.15029 61.6662 5.14771C63.071 5.15847 63.9308 5.34685 65.037 6.25191C66.1728 7.64003 66.1494 8.93488 66.1399 10.6516C66.1408 10.9202 66.142 11.1888 66.1434 11.4574C66.1464 12.1844 66.1452 12.9114 66.1431 13.6384C66.1415 14.4012 66.143 15.164 66.144 15.9268C66.1452 17.2081 66.1437 18.4893 66.1406 19.7706C66.137 21.2486 66.1382 22.7266 66.1418 24.2046C66.1447 25.4764 66.1451 26.7482 66.1434 28.02C66.1424 28.7783 66.1423 29.5366 66.1444 30.295C66.1463 31.0086 66.145 31.7222 66.1412 32.4358C66.1404 32.6966 66.1406 32.9573 66.1421 33.218C66.151 34.9973 66.0882 36.6641 64.8066 38.0292C64.1004 38.6708 63.3433 39.242 62.5722 39.8027C62.2826 40.0166 61.9931 40.2307 61.7039 40.445C61.5592 40.552 61.4146 40.6589 61.2656 40.7691C60.6213 41.2496 59.9868 41.7422 59.3536 42.237C59.2342 42.3302 59.1148 42.4234 58.9918 42.5194C58.6301 42.8019 58.2687 43.0847 57.9072 43.3676C56.379 44.5627 54.847 45.7509 53.2924 46.9117C51.8994 47.9521 50.5258 49.0174 49.1546 50.0864C47.8987 51.0651 46.6381 52.0347 45.3588 52.9826C45.1474 53.1413 44.9361 53.3001 44.7248 53.4588C44.505 53.6227 44.2851 53.7865 44.0652 53.9503C43.963 54.0274 43.8608 54.1045 43.7554 54.184C43.6579 54.2562 43.5603 54.3285 43.4598 54.4029C43.3741 54.4669 43.2885 54.531 43.2002 54.597C42.4416 55.0701 41.7441 55.1509 40.8659 55.1537C40.7445 55.1554 40.623 55.157 40.4978 55.1586C40.0974 55.1634 39.697 55.1656 39.2966 55.1674C39.0904 55.1688 39.0904 55.1688 38.88 55.1702C38.1522 55.1751 37.4244 55.1781 36.6966 55.1795C35.9482 55.1813 35.2001 55.1891 34.4518 55.1984C33.8733 55.2045 33.295 55.2062 32.7165 55.2067C32.4409 55.2077 32.1652 55.2103 31.8895 55.2146C30.286 55.2378 29.0576 55.1744 27.7584 54.1234C27.6381 54.0343 27.5178 53.9453 27.3939 53.8535C27.0539 53.6013 26.7237 53.3392 26.3935 53.0743C26.138 52.8725 25.8823 52.6709 25.6264 52.4696C25.4952 52.3663 25.364 52.2629 25.2288 52.1565C24.5547 51.6313 23.87 51.1204 23.1851 50.6094C22.1654 49.848 21.1493 49.0823 20.1397 48.3075C19.1547 47.5518 18.1643 46.804 17.17 46.0607C16.3632 45.4568 15.5616 44.8464 14.7618 44.2334C13.667 43.3943 12.567 42.5631 11.4617 41.7379C10.9044 41.3219 10.348 40.9048 9.79271 40.4862C9.46522 40.2406 9.13609 39.9973 8.80711 39.7537C8.56134 39.5698 8.31562 39.3858 8.06994 39.2018C7.89751 39.0752 7.89751 39.0752 7.72161 38.946C6.42344 37.9678 5.46553 37.0178 5.10598 35.3822C5.03346 34.4976 5.03566 33.6151 5.03755 32.7283C5.03635 32.461 5.03495 32.1937 5.03336 31.9264C5.02976 31.2038 5.02927 30.4813 5.02957 29.7587C5.02959 29.1541 5.0282 28.5494 5.02684 27.9448C5.02371 26.5178 5.02323 25.0908 5.02434 23.6638C5.02542 22.1946 5.02169 20.7254 5.01565 19.2562C5.01064 17.9919 5.0088 16.7275 5.00943 15.4632C5.00977 14.7093 5.00889 13.9555 5.00488 13.2017C5.00124 12.4925 5.00157 11.7835 5.00487 11.0744C5.00543 10.8152 5.00461 10.556 5.00227 10.2967C4.98906 8.72426 5.05739 7.32929 6.16169 6.10767C6.93008 5.41857 7.66475 5.19283 8.67796 5.19144ZM6.66707 7.65903C6.53191 8.15273 6.53049 8.6082 6.5291 9.1201C6.52836 9.23232 6.52762 9.34453 6.52686 9.46015C6.5248 9.83609 6.52507 10.212 6.52534 10.5879C6.52436 10.8575 6.52325 11.1271 6.52202 11.3967C6.51914 12.129 6.51837 12.8614 6.51817 13.5937C6.51786 14.2053 6.51666 14.8168 6.5155 15.4283C6.51285 16.8713 6.51205 18.3143 6.51229 19.7573C6.51248 21.2453 6.50904 22.7332 6.50389 24.2212C6.49963 25.4991 6.49788 26.777 6.49809 28.0548C6.49818 28.8179 6.49725 29.5809 6.4938 30.344C6.49064 31.0619 6.49062 31.7797 6.49299 32.4977C6.49333 32.7608 6.49256 33.0239 6.49059 33.287C6.48807 33.647 6.48959 34.0068 6.4921 34.3668C6.49192 34.568 6.49174 34.7692 6.49156 34.9765C6.72996 36.6478 8.1156 37.5226 9.37367 38.4684C9.62387 38.6537 9.62387 38.6537 9.87913 38.8427C10.4858 39.2928 11.0854 39.7518 11.6853 40.2108C12.9335 41.1658 14.1865 42.1129 15.4544 43.0417C16.8683 44.0775 18.2628 45.1378 19.6552 46.2023C20.2354 46.6458 20.8176 47.0863 21.4027 47.5233C22.3035 48.1963 23.1975 48.8783 24.0916 49.5603C25.3098 50.4893 26.5282 51.4177 27.7584 52.3308C28.0051 52.5148 28.0051 52.5148 28.2568 52.7025C28.4184 52.8219 28.5799 52.9412 28.7464 53.0641C28.8894 53.17 29.0325 53.2759 29.1799 53.385C29.8362 53.8263 30.3715 53.8188 31.1446 53.8212C31.2562 53.8217 31.3679 53.8223 31.4829 53.8228C31.8519 53.8244 32.221 53.8247 32.5901 53.8249C32.8469 53.8254 33.1036 53.8259 33.3604 53.8265C33.8988 53.8275 34.4372 53.8278 34.9755 53.8277C35.6647 53.8277 36.3539 53.8299 37.0431 53.8327C37.5735 53.8345 38.1039 53.8348 38.6344 53.8348C38.8884 53.8349 39.1425 53.8357 39.3965 53.8369C39.7522 53.8385 40.1079 53.8381 40.4637 53.8371C40.7671 53.8374 40.7671 53.8374 41.0766 53.8378C41.8947 53.776 42.4385 53.5012 43.0722 52.9979C43.191 52.9044 43.3099 52.8109 43.4324 52.7145C43.5572 52.6148 43.682 52.515 43.8106 52.4123C44.0743 52.2043 44.3381 51.9963 44.6019 51.7884C44.7955 51.6351 44.7955 51.6351 44.993 51.4787C45.4817 51.093 45.9747 50.713 46.469 50.3344C46.6381 50.2046 46.8072 50.0748 46.9815 49.941C47.2269 49.7526 47.2269 49.7526 47.4774 49.5603C47.7153 49.3769 47.7153 49.3769 47.958 49.1898C49.2207 48.2165 50.4886 47.2501 51.7571 46.2843C52.8865 45.4243 54.0128 44.5605 55.1368 43.6935C56.2469 42.8373 57.3593 41.9842 58.4754 41.1357C59.0643 40.6878 59.6525 40.2389 60.2406 39.7898C60.5285 39.5702 60.8167 39.3509 61.1052 39.1319C61.5068 38.8269 61.9072 38.5205 62.3073 38.2138C62.4271 38.1233 62.5469 38.0328 62.6703 37.9396C63.4775 37.3177 64.257 36.7037 64.5889 35.7082C64.6049 35.3401 64.6109 34.9715 64.6118 34.6031C64.6123 34.4901 64.6127 34.3771 64.6132 34.2607C64.6146 33.8813 64.6149 33.5019 64.6151 33.1224C64.6159 32.8507 64.6167 32.579 64.6176 32.3073C64.6197 31.5686 64.6208 30.8299 64.6215 30.0911C64.622 29.6297 64.6227 29.1684 64.6234 28.707C64.6256 27.2638 64.6272 25.8207 64.6278 24.3776C64.6285 22.7109 64.6314 21.0442 64.6361 19.3775C64.6396 18.0896 64.6413 16.8018 64.6415 15.514C64.6417 14.7446 64.6426 13.9752 64.6456 13.2057C64.6482 12.4821 64.6486 11.7585 64.6472 11.0348C64.647 10.7692 64.6477 10.5036 64.6494 10.238C64.6514 9.87538 64.6505 9.51288 64.6488 9.15027C64.6491 8.84589 64.6491 8.84589 64.6495 8.53537C64.5535 7.69377 64.293 7.34407 63.6374 6.81735C62.7383 6.35227 61.7317 6.44691 60.7447 6.45323C60.518 6.45236 60.2913 6.45121 60.0646 6.4498C59.4432 6.44677 58.8219 6.44779 58.2004 6.4495C57.5297 6.45064 56.8589 6.44803 56.1882 6.44591C54.8748 6.44239 53.5614 6.44241 52.248 6.44373C51.1805 6.44476 50.1131 6.44458 49.0456 6.44353C48.8937 6.44338 48.7417 6.44323 48.5852 6.44308C48.2765 6.44278 47.9679 6.44248 47.6592 6.44217C44.765 6.43947 41.8709 6.44089 38.9767 6.44364C36.3287 6.44603 33.6808 6.44365 31.0328 6.43895C28.3137 6.43416 25.5947 6.43237 22.8756 6.43393C22.568 6.43409 22.2605 6.43425 21.953 6.43441C21.8017 6.43449 21.6504 6.43457 21.4945 6.43465C20.4283 6.435 19.3622 6.4334 18.2961 6.43103C16.9967 6.42817 15.6975 6.42819 14.3981 6.4319C13.7352 6.43372 13.0724 6.43423 12.4095 6.4312C11.8025 6.42846 11.1956 6.42949 10.5886 6.43351C10.2653 6.43469 9.94202 6.43186 9.61874 6.42888C8.30628 6.44266 7.49473 6.56131 6.66707 7.65903Z" fill="#0A0A08"/>
<path d="M31.4137 56.5369C31.8313 56.5674 31.8313 56.5674 32.1572 56.8934C32.1572 57.4311 32.1572 57.9689 32.1572 58.523C34.631 58.523 37.1049 58.523 39.6537 58.523C39.6537 57.9315 39.6537 57.3399 39.6537 56.7304C40.1222 56.6285 40.1222 56.6285 40.6315 56.5674C40.9574 56.8934 40.9574 56.8934 40.9892 57.2817C40.9855 57.4291 40.9817 57.5766 40.9778 57.7286C40.9748 57.8769 40.9719 58.0252 40.9689 58.178C40.9651 58.2919 40.9613 58.4057 40.9574 58.523C41.0468 58.5216 41.1361 58.5201 41.2281 58.5186C42.1614 58.5042 43.0946 58.4944 44.028 58.4872C44.3759 58.4839 44.7238 58.4795 45.0716 58.4738C45.5729 58.4659 46.074 58.4622 46.5753 58.4594C46.7298 58.456 46.8844 58.4526 47.0436 58.4492C48.2166 58.4488 48.9308 58.683 49.7875 59.5244C50.2 60.1728 50.4696 60.8531 50.7456 61.5685C50.8283 61.7757 50.8283 61.7757 50.9127 61.987C51.2862 62.9371 51.5976 63.8968 51.8762 64.8787C52.0629 64.8779 52.2497 64.877 52.4421 64.8761C53.1324 64.8732 53.8227 64.8713 54.5131 64.8698C54.8123 64.869 55.1116 64.8678 55.4108 64.8664C55.84 64.8645 56.2692 64.8635 56.6984 64.8628C56.833 64.862 56.9676 64.8611 57.1063 64.8603C57.4272 64.8602 57.7481 64.8686 58.0689 64.8787C58.2319 65.0417 58.2319 65.0417 58.2523 65.5306C58.2319 66.0195 58.2319 66.0195 58.0689 66.1825C57.8322 66.1985 57.5948 66.2032 57.3575 66.2034C57.203 66.204 57.0485 66.2045 56.8892 66.205C56.7175 66.2048 56.5457 66.2045 56.3687 66.2043C56.0973 66.2048 56.0973 66.2048 55.8205 66.2054C55.2091 66.2064 54.5978 66.2063 53.9865 66.2061C53.5503 66.2066 53.1141 66.2072 52.6779 66.2078C51.613 66.2092 50.5481 66.2096 49.4832 66.2097C48.618 66.2098 47.7529 66.2101 46.8877 66.2106C44.4374 66.2121 41.987 66.2128 39.5367 66.2127C39.4045 66.2127 39.2722 66.2127 39.136 66.2127C39.0036 66.2127 38.8712 66.2126 38.7348 66.2126C36.5884 66.2126 34.442 66.2141 32.2956 66.2164C30.0942 66.2188 27.8928 66.2199 25.6914 66.2198C24.4545 66.2197 23.2175 66.2202 21.9806 66.2219C20.9276 66.2234 19.8745 66.2237 18.8215 66.2226C18.2838 66.2221 17.7461 66.2223 17.2084 66.2235C16.6266 66.2248 16.0447 66.224 15.4629 66.2228C15.2915 66.2236 15.12 66.2244 14.9434 66.2253C14.7885 66.2245 14.6335 66.2238 14.4739 66.223C14.3394 66.2231 14.205 66.2231 14.0665 66.2231C13.7419 66.1825 13.7419 66.1825 13.416 65.8565C13.5066 65.1141 13.5066 65.1141 13.7419 64.8787C14.2002 64.8643 14.6543 64.86 15.1125 64.8628C15.2497 64.863 15.387 64.8633 15.5284 64.8635C15.9684 64.8644 16.4085 64.8665 16.8485 64.8685C17.1461 64.8694 17.4437 64.8701 17.7413 64.8708C18.4724 64.8726 19.2036 64.8754 19.9347 64.8787C19.9686 64.6532 19.9686 64.6532 20.0032 64.4231C20.11 63.8327 20.3098 63.3577 20.556 62.8111C20.8749 62.1012 21.1518 61.3961 21.381 60.6518C21.7288 59.6542 22.4164 58.9933 23.357 58.523C23.5983 58.5084 23.8404 58.5039 24.0821 58.5045C24.3072 58.5045 24.3072 58.5045 24.5369 58.5046C24.7803 58.5058 24.7803 58.5058 25.0287 58.5071C25.2776 58.5075 25.2776 58.5075 25.5315 58.5078C26.0629 58.5087 26.5942 58.5108 27.1256 58.5128C27.4853 58.5137 27.8449 58.5144 28.2046 58.5151C29.0876 58.5169 29.9705 58.5196 30.8535 58.523C30.8516 58.3955 30.8497 58.268 30.8477 58.1366C30.8463 57.9717 30.8448 57.8068 30.8433 57.6369C30.8414 57.4724 30.8395 57.3079 30.8376 57.1384C30.8588 56.5947 30.873 56.5785 31.4137 56.5369Z" fill="#3D8DC4"/>
<path d="M31.4137 56.5369C31.8313 56.5674 31.8313 56.5674 32.1572 56.8934C32.1572 57.4311 32.1572 57.9689 32.1572 58.523C34.631 58.523 37.1049 58.523 39.6537 58.523C39.6537 57.9315 39.6537 57.3399 39.6537 56.7304C40.1222 56.6285 40.1222 56.6285 40.6315 56.5674C40.9574 56.8934 40.9574 56.8934 40.9892 57.2817C40.9855 57.4291 40.9817 57.5766 40.9778 57.7286C40.9748 57.8769 40.9719 58.0252 40.9689 58.178C40.9651 58.2919 40.9613 58.4057 40.9574 58.523C41.0468 58.5216 41.1361 58.5201 41.2281 58.5186C42.1614 58.5042 43.0946 58.4944 44.028 58.4872C44.3759 58.4839 44.7238 58.4795 45.0716 58.4738C45.5729 58.4659 46.074 58.4622 46.5753 58.4594C46.7298 58.456 46.8844 58.4526 47.0436 58.4492C48.2166 58.4488 48.9308 58.683 49.7875 59.5244C50.2 60.1728 50.4696 60.8531 50.7456 61.5685C50.8283 61.7757 50.8283 61.7757 50.9127 61.987C51.2862 62.9371 51.5976 63.8968 51.8762 64.8787C52.0629 64.8779 52.2497 64.877 52.4421 64.8761C53.1324 64.8732 53.8227 64.8713 54.5131 64.8698C54.8123 64.869 55.1116 64.8678 55.4108 64.8664C55.84 64.8645 56.2692 64.8635 56.6984 64.8628C56.833 64.862 56.9676 64.8611 57.1063 64.8603C57.4272 64.8602 57.7481 64.8686 58.0689 64.8787C58.2319 65.0417 58.2319 65.0417 58.2523 65.5306C58.2319 66.0195 58.2319 66.0195 58.0689 66.1825C57.8322 66.1985 57.5948 66.2032 57.3575 66.2034C57.203 66.204 57.0485 66.2045 56.8892 66.205C56.7175 66.2048 56.5457 66.2045 56.3687 66.2043C56.0973 66.2048 56.0973 66.2048 55.8205 66.2054C55.2091 66.2064 54.5978 66.2063 53.9865 66.2061C53.5503 66.2066 53.1141 66.2072 52.6779 66.2078C51.613 66.2092 50.5481 66.2096 49.4832 66.2097C48.618 66.2098 47.7529 66.2101 46.8877 66.2106C44.4374 66.2121 41.987 66.2128 39.5367 66.2127C39.4045 66.2127 39.2722 66.2127 39.136 66.2127C39.0036 66.2127 38.8712 66.2126 38.7348 66.2126C36.5884 66.2126 34.442 66.2141 32.2956 66.2164C30.0942 66.2188 27.8928 66.2199 25.6914 66.2198C24.4545 66.2197 23.2175 66.2202 21.9806 66.2219C20.9276 66.2234 19.8745 66.2237 18.8215 66.2226C18.2838 66.2221 17.7461 66.2223 17.2084 66.2235C16.6266 66.2248 16.0447 66.224 15.4629 66.2228C15.2915 66.2236 15.12 66.2244 14.9434 66.2253C14.7885 66.2245 14.6335 66.2238 14.4739 66.223C14.3394 66.2231 14.205 66.2231 14.0665 66.2231C13.7419 66.1825 13.7419 66.1825 13.416 65.8565C13.5066 65.1141 13.5066 65.1141 13.7419 64.8787C14.2002 64.8643 14.6543 64.86 15.1125 64.8628C15.2497 64.863 15.387 64.8633 15.5284 64.8635C15.9684 64.8644 16.4085 64.8665 16.8485 64.8685C17.1461 64.8694 17.4437 64.8701 17.7413 64.8708C18.4724 64.8726 19.2036 64.8754 19.9347 64.8787C19.9686 64.6532 19.9686 64.6532 20.0032 64.4231C20.11 63.8327 20.3098 63.3577 20.556 62.8111C20.8749 62.1012 21.1518 61.3961 21.381 60.6518C21.7288 59.6542 22.4164 58.9933 23.357 58.523C23.5983 58.5084 23.8404 58.5039 24.0821 58.5045C24.3072 58.5045 24.3072 58.5045 24.5369 58.5046C24.7803 58.5058 24.7803 58.5058 25.0287 58.5071C25.2776 58.5075 25.2776 58.5075 25.5315 58.5078C26.0629 58.5087 26.5942 58.5108 27.1256 58.5128C27.4853 58.5137 27.8449 58.5144 28.2046 58.5151C29.0876 58.5169 29.9705 58.5196 30.8535 58.523C30.8516 58.3955 30.8497 58.268 30.8477 58.1366C30.8463 57.9717 30.8448 57.8068 30.8433 57.6369C30.8414 57.4724 30.8395 57.3079 30.8376 57.1384C30.8588 56.5947 30.873 56.5785 31.4137 56.5369ZM23.1431 60.3015C23.0523 60.4675 22.9616 60.6335 22.8681 60.8046C22.8047 60.9183 22.7413 61.032 22.676 61.1492C22.6139 61.3032 22.6139 61.3032 22.5504 61.4602C22.5031 61.5762 22.4557 61.6922 22.4069 61.8116C22.3608 61.9297 22.3147 62.0478 22.2672 62.1694C22.2191 62.2862 22.1711 62.403 22.1217 62.5233C21.8049 63.312 21.6124 64.0348 21.4014 64.8787C30.9741 64.8787 40.5467 64.8787 50.4095 64.8787C50.0598 63.8297 49.7003 62.8205 49.2789 61.8027C49.2244 61.6658 49.1699 61.5288 49.1137 61.3877C49.0592 61.2562 49.0047 61.1247 48.9485 60.9892C48.9004 60.8713 48.8523 60.7535 48.8028 60.6321C48.5688 60.2338 48.3608 60.0673 47.965 59.8268C47.496 59.752 47.496 59.752 46.9702 59.7614C46.6642 59.7583 46.6642 59.7583 46.352 59.7551C46.1263 59.7552 45.9006 59.7555 45.6749 59.7557C45.4369 59.7543 45.1989 59.7526 44.9609 59.7508C44.3147 59.7464 43.6686 59.7453 43.0225 59.745C42.483 59.7445 41.9436 59.7427 41.4041 59.741C40.1315 59.737 38.8588 59.7358 37.5862 59.7362C36.2733 59.7365 34.9605 59.7313 33.6476 59.7236C32.5203 59.7172 31.3931 59.7146 30.2658 59.7149C29.5925 59.715 28.9193 59.7136 28.2461 59.7084C27.6129 59.7037 26.98 59.7037 26.3468 59.7072C26.1146 59.7077 25.8823 59.7066 25.6501 59.7036C24.2596 59.6215 24.2596 59.6215 23.1431 60.3015Z" fill="#0A0A08"/>
<path d="M45.6834 17.6189C45.7901 19.0155 45.8706 20.4103 45.9198 21.81C45.9435 22.4605 45.9754 23.1081 46.0276 23.757C46.3473 27.8302 46.3473 27.8302 45.4833 28.963C44.4327 30.0318 43.0257 30.6488 41.6674 31.2299C40.9355 31.5526 40.2685 31.953 39.5925 32.3776C38.427 33.0686 37.2445 33.7324 36.0684 34.4045C36.0684 30.6399 36.0684 26.8754 36.0684 22.9968C40.3055 20.5523 40.3055 20.5523 41.6175 19.796C41.7913 19.6958 41.9652 19.5956 42.1443 19.4924C42.4867 19.295 42.8292 19.0976 43.1717 18.9004C43.4259 18.7538 43.4259 18.7538 43.6851 18.6043C43.8314 18.52 43.9777 18.4358 44.1284 18.3489C44.4162 18.1814 44.701 18.0088 44.9833 17.8323C45.3575 17.6189 45.3575 17.6189 45.6834 17.6189Z" fill="#3D8DC4"/>
<path d="M25.6387 17.7812C26.8522 18.4418 28.0618 19.1081 29.2647 19.7878C29.4272 19.8796 29.5897 19.9714 29.7571 20.0659C30.8851 20.7054 32.0021 21.3602 33.1097 22.0343C33.6562 22.3637 34.2108 22.6796 34.7648 22.9962C34.7648 26.7607 34.7648 30.5253 34.7648 34.4039C32.9327 33.4878 32.9327 33.4878 32.0752 32.9607C31.9836 32.9047 31.892 32.8487 31.7977 32.791C31.5064 32.6128 31.2157 32.4338 30.9249 32.2547C30.5215 32.0076 30.1178 31.761 29.7141 31.5144C29.6157 31.4542 29.5173 31.394 29.4159 31.332C28.4739 30.7567 27.5239 30.1959 26.5693 29.6421C25.8172 29.2044 25.8172 29.2044 25.6387 29.026C25.6233 28.676 25.6196 28.3255 25.6202 27.9752C25.6202 27.8655 25.6201 27.7558 25.6201 27.6428C25.6202 27.2786 25.6215 26.9145 25.6228 26.5503C25.6231 26.2984 25.6233 26.0465 25.6235 25.7946C25.6241 25.1305 25.6257 24.4663 25.6275 23.8022C25.6292 23.1249 25.6299 22.4477 25.6307 21.7704C25.6325 20.4407 25.6353 19.111 25.6387 17.7812Z" fill="#3D8DC4"/>
<path d="M35.4999 10.9309C36.0676 11.1667 36.5979 11.4534 37.1283 11.7617C37.2429 11.8272 37.3576 11.8927 37.4757 11.9602C38.3768 12.4784 39.2604 13.0223 40.1426 13.5721C40.7301 13.9297 41.3315 14.2543 41.9377 14.5786C42.9317 15.1282 43.8986 15.7251 44.8692 16.3145C44.4126 16.6691 43.947 16.9742 43.4471 17.2643C43.2943 17.3532 43.1416 17.4422 42.9842 17.5338C42.8197 17.6289 42.6553 17.724 42.4858 17.822C42.3154 17.9209 42.145 18.0198 41.9694 18.1217C41.6052 18.3328 41.241 18.5438 40.8766 18.7546C40.393 19.0345 39.91 19.3155 39.4271 19.5968C38.9497 19.8748 38.4719 20.1521 37.9941 20.4295C37.7243 20.5868 37.7243 20.5868 37.4491 20.7473C37.2804 20.8449 37.1117 20.9425 36.938 21.0431C36.7896 21.1293 36.6413 21.2155 36.4884 21.3043C36.0778 21.5248 35.7013 21.7223 35.2542 21.8554C34.7806 21.6447 34.3852 21.4276 33.9505 21.1526C33.6764 20.9866 33.4022 20.8206 33.128 20.6548C32.976 20.5616 32.824 20.4684 32.6674 20.3723C31.7811 19.834 30.8842 19.3138 29.9887 18.791C29.578 18.551 29.1679 18.31 28.7577 18.0691C27.9383 17.5878 27.1178 17.1089 26.291 16.6405C26.291 16.5329 26.291 16.4254 26.291 16.3145C26.6665 16.0563 26.6665 16.0563 27.1905 15.7524C27.2839 15.6977 27.3773 15.643 27.4736 15.5867C27.7747 15.4105 28.0768 15.2361 28.379 15.0617C28.7708 14.8341 29.1623 14.6059 29.5535 14.3774C29.6502 14.321 29.7469 14.2646 29.8466 14.2065C30.988 13.5378 32.0976 12.8226 33.2006 12.0927C33.4166 11.9518 33.6326 11.8109 33.8486 11.67C34.0128 11.5591 34.0128 11.5591 34.1803 11.4459C34.9679 10.9384 34.9679 10.9384 35.4999 10.9309Z" fill="#F2F1F2"/>
<path d="M22.5429 25.604C22.7059 25.767 22.7059 25.767 22.7161 26.1846C22.7127 26.3157 22.7094 26.4468 22.7059 26.5818C22.6198 26.6252 22.5337 26.6686 22.445 26.7133C18.8649 28.4195 18.8649 28.4195 16.5132 31.4708C16.3819 32.6698 16.2823 33.9315 17.0606 34.9237C17.1489 35.0211 17.2371 35.1186 17.328 35.2191C17.4654 35.3905 17.4654 35.3905 17.6056 35.5654C19.3575 37.5518 22.0325 38.5253 24.4985 39.2932C24.521 39.1243 24.5435 38.9554 24.5667 38.7814C24.647 38.2486 24.7435 37.7373 24.8754 37.2154C24.9118 37.065 24.9481 36.9146 24.9855 36.7596C25.1858 36.274 25.3364 36.1115 25.8023 35.8709C26.3812 35.7922 26.6837 35.8185 27.199 36.0988C27.3363 36.2051 27.4737 36.3114 27.6153 36.4209C27.7701 36.5398 27.9249 36.6587 28.0845 36.7812C28.7461 37.3143 29.4011 37.8544 30.0496 38.4033C30.6294 38.889 31.2237 39.3544 31.8225 39.8165C32.1618 40.1114 32.4132 40.3759 32.6469 40.7599C32.6125 41.7387 32.6125 41.7387 32.2735 42.1656C31.9535 42.423 31.7027 42.5142 31.3075 42.6226C31.1704 42.661 31.0334 42.6994 30.8922 42.739C30.7452 42.7783 30.5983 42.8176 30.4468 42.8581C30.2956 42.8997 30.1443 42.9414 29.9885 42.9842C29.6735 43.0705 29.3584 43.156 29.0431 43.2407C28.5922 43.3622 28.1422 43.4866 27.6923 43.6118C27.4188 43.6867 27.1453 43.7614 26.8718 43.8359C26.7457 43.871 26.6197 43.906 26.4898 43.9422C25.8133 44.1225 25.2049 44.2511 24.4985 44.1822C24.03 43.8563 24.03 43.8563 23.6837 43.3674C23.5708 42.3996 23.7668 41.5337 24.0096 40.597C23.7273 40.5516 23.7273 40.5516 23.4393 40.5053C21.6222 40.1005 19.8461 39.1756 18.3058 38.1525C18.1896 38.0764 18.0735 38.0004 17.9538 37.922C17.6832 37.738 17.4227 37.5393 17.165 37.3376C17.165 37.2301 17.165 37.1225 17.165 37.0117C17.0695 36.9739 16.9739 36.9361 16.8754 36.8971C16.4233 36.6333 16.2253 36.3438 15.9326 35.9117C15.8383 35.7747 15.744 35.6377 15.6468 35.4966C15.0779 34.5832 14.7957 33.8893 14.8122 32.8051C14.8137 32.6896 14.8151 32.5742 14.8167 32.4552C14.8729 30.7502 15.6769 29.5823 16.8391 28.3744C18.1239 27.2514 20.7362 25.052 22.5429 25.604Z" fill="#0A0A08"/>
<path d="M48.78 25.4412C49.5408 25.4925 50.1901 25.8645 50.8578 26.2051C51.0314 26.2929 51.0314 26.2929 51.2085 26.3826C52.0716 26.8262 52.8901 27.3045 53.669 27.8857C53.8404 28.0134 54.0118 28.1411 54.1884 28.2727C55.2753 29.2871 56.1659 30.509 56.3388 32.0139C56.3999 33.8919 55.9211 35.1892 54.7073 36.6146C52.5495 38.8328 49.5941 40.0997 46.6614 40.923C46.4649 40.9784 46.4649 40.9784 46.2644 41.035C43.7201 41.7341 40.839 42.3909 38.1871 42.2267C37.8714 42.0332 37.8714 42.0332 37.6982 41.7378C37.7669 41.0174 37.7669 41.0174 38.0242 40.76C38.3326 40.717 38.6423 40.6837 38.9523 40.6544C39.1452 40.6354 39.338 40.6165 39.5367 40.5969C39.7434 40.5768 39.9501 40.5567 40.1631 40.536C43.5978 40.1791 46.775 39.4473 49.9208 37.9896C50.0686 37.923 50.2165 37.8564 50.3689 37.7878C52.076 36.9728 53.9033 35.7145 54.6468 33.9154C54.807 32.7863 54.8642 31.6425 54.2292 30.6561C54.0486 30.4337 53.862 30.216 53.669 30.0042C53.5959 29.9103 53.5228 29.8164 53.4475 29.7197C52.2509 28.3269 50.2851 27.4414 48.617 26.7449C48.4541 26.5819 48.4541 26.5819 48.4235 26.1847C48.4541 25.7671 48.4541 25.7671 48.78 25.4412Z" fill="#0A0A08"/>
<path d="M26.2912 37.3374C26.902 37.6008 27.3554 37.9873 27.8597 38.4171C28.0332 38.564 28.2067 38.7109 28.3804 38.8576C28.467 38.9308 28.5537 39.004 28.6429 39.0794C29.1454 39.4991 29.6616 39.9015 30.1769 40.3052C30.5338 40.6013 30.8545 40.9189 31.1802 41.2486C30.4787 41.4318 29.7772 41.6145 29.0754 41.7967C28.8371 41.8586 28.5987 41.9208 28.3604 41.983C28.0166 42.0728 27.6727 42.1621 27.3288 42.2512C27.1223 42.305 26.9157 42.3588 26.703 42.4142C26.1866 42.5383 25.6752 42.6358 25.1504 42.7153C25.2918 41.546 25.4354 40.4288 25.8462 39.3217C26.0628 38.6765 26.1724 38.0064 26.2912 37.3374Z" fill="#EFEEF0"/>
<path d="M28.2467 45.323C28.6351 45.361 28.8429 45.437 29.1367 45.6956C29.7986 46.5076 30.4033 47.3525 30.9967 48.2157C31.7261 49.2717 32.4624 50.313 33.2566 51.3216C33.5032 51.7512 33.5284 52.0056 33.4616 52.4935C33.354 52.6011 33.2465 52.7087 33.1357 52.8195C32.5635 52.8099 32.3611 52.6978 31.9592 52.286C31.8366 52.1192 31.7139 51.9524 31.5875 51.7806C31.5195 51.6889 31.4515 51.5973 31.3814 51.5029C30.4912 50.2897 29.6501 49.0394 28.8128 47.7893C28.6554 47.5614 28.4921 47.3373 28.3228 47.118C27.749 46.3747 27.749 46.3747 27.798 45.9628C27.9207 45.6489 27.9207 45.6489 28.2467 45.323Z" fill="#0A0A08"/>
<path d="M42.0992 45.323C42.8937 45.4656 42.8937 45.4656 43.077 45.6489C43.0496 46.7166 42.6148 47.3153 41.977 48.1444C41.7842 48.4014 41.5915 48.6586 41.399 48.9159C41.2498 49.1136 41.2498 49.1136 41.0975 49.3154C40.794 49.7251 40.5019 50.1411 40.2124 50.5609C40.1188 50.6952 40.0253 50.8296 39.9289 50.9681C39.7492 51.2269 39.571 51.4869 39.3945 51.748C38.7869 52.6116 38.7869 52.6116 38.2287 52.8392C37.8621 52.8195 37.8621 52.8195 37.5361 52.4935C37.5736 51.6389 37.7634 51.163 38.3 50.5074C39.1289 49.4573 39.8918 48.3691 40.653 47.2693C41.1159 46.6029 41.5799 45.9475 42.0992 45.323Z" fill="#0A0A08"/>
<path d="M35.4987 46.0872C35.7004 46.1124 35.7004 46.1124 35.9062 46.1381C36.3078 46.7406 36.2741 47.0498 36.2754 47.7684C36.2757 47.8791 36.276 47.9897 36.2763 48.1038C36.2765 48.3373 36.276 48.5709 36.2746 48.8044C36.2728 49.1624 36.2746 49.5203 36.2767 49.8784C36.2764 50.1053 36.276 50.3323 36.2754 50.5592C36.275 50.766 36.2746 50.9729 36.2743 51.186C36.2321 51.679 36.2321 51.679 35.9062 52.0049C35.4987 52.0456 35.4987 52.0456 35.0913 52.0049C34.618 51.5316 34.7232 51.179 34.7221 50.5178C34.7218 50.4033 34.7215 50.2888 34.7212 50.1708C34.7209 49.9286 34.7215 49.6864 34.7229 49.4442C34.7246 49.0729 34.7229 48.7018 34.7208 48.3305C34.721 48.0954 34.7215 47.8603 34.7221 47.6252C34.7225 47.4105 34.7228 47.1958 34.7232 46.9746C34.775 46.3477 34.8624 46.1667 35.4987 46.0872Z" fill="#0A0A08"/>
</svg>
