<svg width="72" height="73" viewBox="0 0 72 73" fill="none" xmlns="http://www.w3.org/2000/svg">
<path d="M38.5672 1.24829C39.318 1.53064 39.9638 1.88586 40.6365 2.31957C40.8819 2.47354 41.1274 2.62729 41.3731 2.78081C41.486 2.85288 41.5989 2.92496 41.7152 2.99921C42.0383 3.20358 42.0383 3.20358 42.4792 3.37901C42.7805 3.56336 42.7805 3.56336 42.896 3.93205C42.9207 4.31457 42.9454 4.69708 42.97 5.07959C43.0964 5.05272 43.2227 5.02584 43.3528 4.99815C44.9547 4.74275 45.8114 5.16999 47.1397 6.02724C47.2985 6.07896 47.4574 6.13067 47.621 6.18396C48.2578 6.43721 48.5931 6.63418 49.035 7.16441C49.3794 8.42272 49.228 9.79674 49.1771 11.0853C49.1709 11.446 49.1654 11.8066 49.1608 12.1673C49.1327 13.7399 49.0722 15.2701 48.7353 16.8117C48.6324 17.3271 48.6276 17.8231 48.6559 18.3466C48.7661 18.4084 48.8764 18.4701 48.9899 18.5337C51.2218 19.7854 53.4415 21.0541 55.641 22.3619C56.9961 23.1664 58.3617 23.951 59.7316 24.7301C60.9194 25.4064 62.1014 26.092 63.2769 26.7897C63.8778 27.1464 64.4801 27.4983 65.0916 27.8364C65.3008 27.9532 65.5099 28.07 65.7254 28.1903C65.9074 28.2897 66.0894 28.3892 66.2769 28.4916C66.4671 28.6298 66.4671 28.6298 66.6612 28.7707C66.6612 28.9584 66.6612 29.146 66.6612 29.3393C66.2352 29.6411 65.8225 29.9005 65.37 30.1567C65.1735 30.2711 65.1735 30.2711 64.9729 30.3878C64.1107 30.8869 63.2393 31.3685 62.3605 31.838C61.8139 32.1381 61.2732 32.4457 60.7332 32.7575C60.4634 32.9131 60.4634 32.9131 60.188 33.0719C59.8236 33.2825 59.4595 33.4938 59.0958 33.7058C58.8443 33.8509 58.8443 33.8509 58.5877 33.9991C58.4362 34.0871 58.2847 34.1752 58.1286 34.2659C57.7533 34.4566 57.7533 34.4566 57.3743 34.4566C57.3743 34.5817 57.3743 34.7068 57.3743 34.8357C57.5835 34.9156 57.5835 34.9156 57.797 34.9972C58.2691 35.1929 58.6959 35.4086 59.1385 35.6626C59.2938 35.7514 59.4492 35.8402 59.6092 35.9317C59.7747 36.0274 59.9401 36.123 60.1106 36.2216C60.2825 36.3209 60.4544 36.4202 60.6316 36.5225C60.9976 36.7343 61.3634 36.9463 61.7292 37.1586C62.3144 37.4962 62.9025 37.8286 63.491 38.1606C63.8726 38.3788 64.2541 38.5972 64.6356 38.8158C64.9104 38.9691 64.9104 38.9691 65.1908 39.1255C65.3587 39.2226 65.5265 39.3198 65.6995 39.4199C65.8488 39.5047 65.9982 39.5895 66.1521 39.6768C66.2575 39.7679 66.363 39.8591 66.4717 39.9529C66.4717 40.2031 66.4717 40.4533 66.4717 40.7111C66.0698 41.0401 66.0698 41.0401 65.5085 41.367C65.3041 41.4877 65.0997 41.6084 64.8892 41.7327C64.6726 41.8569 64.456 41.981 64.2328 42.1088C64.0243 42.2315 63.8158 42.3541 63.601 42.4805C62.4466 43.1561 61.2799 43.8061 60.1035 44.4423C59.3347 44.8629 58.5866 45.3164 57.8355 45.7676C57.3743 46.0179 57.3743 46.0179 56.9952 46.0179C57.0053 46.1711 57.0154 46.3243 57.0258 46.4821C57.1175 47.937 57.1865 49.3904 57.2309 50.8474C57.2545 51.5965 57.2864 52.3431 57.3384 53.0908C57.6635 57.8925 57.6635 57.8925 56.5747 59.2347C55.4987 60.1178 54.2888 60.6545 52.9973 61.1514C52.2947 61.4299 51.6934 61.7807 51.0509 62.1775C50.6752 62.394 50.2993 62.6104 49.9234 62.8267C49.5068 63.0668 49.0902 63.307 48.6737 63.5471C48.4763 63.6609 48.2789 63.7746 48.0755 63.8918C45.7329 65.2419 43.3958 66.6009 41.0629 67.9677C40.9455 68.0365 40.828 68.1053 40.7071 68.1761C40.4771 68.3108 40.2472 68.4456 40.0173 68.5805C39.6887 68.7731 39.3596 68.9648 39.0306 69.1564C38.6408 69.3887 38.2551 69.628 37.8751 69.8759C37.7116 69.9818 37.5481 70.0878 37.3797 70.1969C37.2408 70.2906 37.1019 70.3844 36.9588 70.481C36.3595 70.7243 36.0075 70.6365 35.3889 70.4671C34.894 70.2237 34.894 70.2237 34.3946 69.9134C34.2068 69.7983 34.0191 69.6833 33.8256 69.5648C33.5264 69.3782 33.5264 69.3782 33.2211 69.1878C32.7952 68.927 32.369 68.6666 31.9426 68.4067C31.8347 68.3408 31.7268 68.2749 31.6156 68.207C30.5495 67.5578 29.4655 66.9425 28.3763 66.333C26.8816 65.4949 25.3977 64.6421 23.9231 63.7692C22.7049 63.0482 21.4807 62.3374 20.2573 61.6252C19.888 61.41 19.5224 61.1882 19.1604 60.961C18.6423 60.678 18.2225 60.5081 17.6683 60.3341C16.6884 59.9795 15.8834 59.6105 15.2988 58.7163C14.7806 56.7817 14.9811 54.6805 15.0776 52.6997C15.1107 51.9465 15.1253 51.1929 15.1415 50.4392C15.1759 48.9645 15.2307 47.4915 15.2988 46.0179C15.077 45.9305 15.077 45.9305 14.8506 45.8413C14.3893 45.6543 13.9653 45.445 13.5294 45.2057C13.3759 45.1216 13.2224 45.0375 13.0643 44.9508C12.9026 44.8612 12.7409 44.7716 12.5743 44.6793C12.4065 44.5867 12.2387 44.494 12.0658 44.3986C10.8088 43.7007 9.56898 42.9786 8.34323 42.2273C7.94032 41.9832 7.5333 41.7457 7.12165 41.5166C6.94697 41.4188 6.77228 41.3211 6.5923 41.2204C6.44205 41.1391 6.2918 41.0577 6.13699 40.9739C5.98124 40.8438 5.98124 40.8438 5.82234 40.7111C5.82234 40.4609 5.82234 40.2107 5.82234 39.9529C6.31922 39.6089 6.79616 39.3246 7.32673 39.0408C7.65448 38.859 7.98195 38.6766 8.30917 38.4937C8.57592 38.3455 8.57592 38.3455 8.84805 38.1943C10.1185 37.474 11.3612 36.7056 12.6091 35.9471C12.8997 35.7715 12.8997 35.7715 13.1962 35.5923C13.3688 35.4875 13.5414 35.3826 13.7193 35.2746C14.1616 35.0252 14.1616 35.0252 14.7302 34.8357C14.7928 34.7106 14.8553 34.5855 14.9197 34.4566C14.8223 34.4417 14.7248 34.4268 14.6243 34.4114C13.9623 34.2049 13.4079 33.8371 12.8231 33.4734C11.9988 32.9695 11.1757 32.4725 10.3237 32.0164C9.31125 31.4694 8.30499 30.9121 7.30304 30.3462C7.13941 30.2559 6.97578 30.1657 6.80719 30.0727C6.57952 29.9431 6.57952 29.9431 6.34725 29.8109C6.20965 29.7338 6.07206 29.6567 5.93029 29.5772C5.78304 29.4594 5.78304 29.4594 5.63281 29.3393C5.63281 29.1517 5.63281 28.9641 5.63281 28.7707C6.05916 28.4555 6.05916 28.4555 6.6619 28.1103C6.77048 28.0474 6.87906 27.9844 6.99094 27.9195C7.35051 27.7116 7.71172 27.5068 8.073 27.3019C8.32411 27.1574 8.5751 27.0127 8.82598 26.8679C9.46912 26.497 10.1136 26.1286 10.7584 25.7607C11.3214 25.4389 11.8831 25.1148 12.4448 24.7906C12.6503 24.6721 12.8558 24.5535 13.0675 24.4314C13.4719 24.1978 13.876 23.9638 14.28 23.7295C15.2737 23.1537 16.2707 22.5865 17.2777 22.0343C17.6605 21.8199 18.0433 21.6054 18.426 21.3909C18.6028 21.2971 18.7795 21.2032 18.9616 21.1065C19.833 20.6469 19.833 20.6469 20.38 19.8723C20.4299 19.6134 20.4739 19.3533 20.5117 19.0923C20.6879 18.4044 21.2459 18.0439 21.7783 17.6122C24.1499 15.5496 25.8036 12.6627 26.3751 9.55204C26.4023 9.4052 26.4294 9.25837 26.4573 9.10709C26.4764 8.97906 26.4954 8.85104 26.5151 8.71914C26.9833 7.46161 27.9687 6.89326 29.0989 6.31153C29.403 6.14893 29.7067 5.98578 30.0103 5.82216C30.1734 5.73454 30.3366 5.64693 30.5047 5.55665C31.4729 5.02642 32.4232 4.46546 33.3751 3.90688C33.5595 3.79889 33.744 3.69091 33.934 3.57965C34.1146 3.47386 34.2951 3.36807 34.4812 3.25908C34.6605 3.15515 34.8397 3.05123 35.0244 2.94415C35.4123 2.71419 35.7957 2.47651 36.1753 2.23323C37.6627 1.29984 37.6627 1.29984 38.5672 1.24829Z" fill="#27303C"/>
<path d="M21.3646 30.0974C22.0648 30.5642 22.1767 31.0344 22.4426 31.7913C23.3462 34.1879 24.8288 36.0103 27.0505 37.2995C26.9454 37.1168 26.8404 36.934 26.7322 36.7457C26.5934 36.5039 26.4548 36.262 26.3161 36.0202C26.2124 35.8399 26.2124 35.8399 26.1066 35.6559C25.1018 33.9021 25.1018 33.9021 25.1552 32.9403C25.7724 33.4968 26.0958 34.0093 26.4345 34.7646C27.8624 37.7063 30.0487 39.2794 33.068 40.3675C34.3239 40.7714 35.5984 40.9431 36.906 41.0901C36.8435 41.2152 36.7809 41.3403 36.7165 41.4692C36.6875 41.8125 36.6692 42.1568 36.6565 42.5012C36.6486 42.7052 36.6406 42.9092 36.6325 43.1194C36.625 43.3332 36.6176 43.5469 36.6099 43.7672C36.5976 44.0901 36.5976 44.0901 36.5851 44.4194C36.5649 44.9522 36.5456 45.485 36.527 46.0179C36.652 46.0179 36.7771 46.0179 36.906 46.0179C36.8435 46.268 36.7809 46.5182 36.7165 46.776C36.9041 46.8385 37.0918 46.9011 37.2851 46.9655C37.2851 47.1531 37.2851 47.3408 37.2851 47.5341C37.3973 47.5968 37.5095 47.6595 37.6251 47.7242C38.1596 48.0235 38.6937 48.3236 39.2277 48.6239C39.4235 48.7336 39.6194 48.8433 39.8211 48.9564C40.8053 49.5112 41.7799 50.0753 42.7377 50.6746C42.9918 50.8327 42.9918 50.8327 43.251 50.9939C43.5717 51.1949 43.8907 51.3985 44.2079 51.6051C44.4257 51.7411 44.4257 51.7411 44.6478 51.8799C44.7729 51.9605 44.898 52.0411 45.0269 52.1242C45.759 52.3901 46.3684 52.1756 47.0561 51.8622C47.2147 51.7708 47.3733 51.6794 47.5367 51.5853C47.7152 51.4834 47.8937 51.3816 48.0776 51.2766C48.2649 51.1674 48.4521 51.0582 48.645 50.9456C48.8389 50.8342 49.0329 50.7227 49.2327 50.6079C50.5453 49.8511 51.849 49.0797 53.1448 48.2944C53.7832 47.9076 54.423 47.5236 55.0653 47.1432C55.2463 47.0354 55.4273 46.9277 55.6139 46.8167C56.0485 46.5864 56.0485 46.5864 56.4275 46.5864C56.4848 48.0923 56.5285 49.5976 56.5552 51.1042C56.568 51.804 56.5854 52.503 56.6134 53.2024C56.6403 53.8783 56.6549 54.5536 56.6613 55.23C56.668 55.6116 56.6872 55.9928 56.7067 56.3739C56.7072 57.1048 56.6792 57.6499 56.4275 58.3372C55.6764 59.0274 54.8879 59.4195 53.9636 59.8535C53.5755 60.0756 53.1889 60.3007 52.805 60.5302C52.4135 60.7551 52.0219 60.9796 51.6301 61.2039C51.1996 61.4513 50.7692 61.6988 50.3389 61.9464C50.0149 62.1327 50.0149 62.1327 49.6844 62.3228C47.2855 63.7047 44.889 65.0886 42.5393 66.5529C42.035 66.859 41.5242 67.1437 41.0046 67.4228C40.1361 67.8916 39.2756 68.3721 38.4222 68.868C38.2995 68.937 38.1768 69.006 38.0503 69.0771C37.3182 69.5077 36.8947 69.8874 36.527 70.6566C35.6859 70.5567 35.1132 70.3594 34.3955 69.9133C34.2077 69.7983 34.02 69.6833 33.8265 69.5648C33.5273 69.3782 33.5273 69.3782 33.222 69.1878C32.7961 68.927 32.3699 68.6666 31.9435 68.4067C31.8356 68.3408 31.7277 68.2749 31.6165 68.207C30.5504 67.5578 29.4664 66.9424 28.3772 66.333C26.8825 65.4948 25.3986 64.6421 23.924 63.7692C22.7058 63.0481 21.4816 62.3374 20.2582 61.6252C19.8889 61.41 19.5233 61.1882 19.1613 60.9609C18.6432 60.678 18.2234 60.5081 17.6692 60.3341C16.6893 59.9794 15.8843 59.6105 15.2997 58.7163C14.7815 56.7817 14.982 54.6804 15.0785 52.6996C15.1116 51.9465 15.1262 51.1929 15.1424 50.4392C15.1768 48.9645 15.2316 47.4915 15.2997 46.0179C15.1518 45.9596 15.0039 45.9013 14.8515 45.8413C14.3902 45.6543 13.9662 45.445 13.5303 45.2057C13.3768 45.1216 13.2233 45.0375 13.0652 44.9508C12.9035 44.8612 12.7418 44.7716 12.5752 44.6793C12.4074 44.5867 12.2396 44.494 12.0667 44.3986C10.8097 43.7007 9.56988 42.9786 8.34413 42.2273C7.94122 41.9831 7.5342 41.7456 7.12255 41.5165C6.94787 41.4188 6.77318 41.3211 6.5932 41.2204C6.44295 41.139 6.2927 41.0577 6.13789 40.9739C6.03406 40.8871 5.93022 40.8004 5.82324 40.711C5.82324 40.4609 5.82324 40.2107 5.82324 39.9529C6.32013 39.6088 6.79702 39.3246 7.32763 39.0408C7.6559 38.859 7.98385 38.6766 8.31155 38.4937C8.48944 38.3949 8.66734 38.2961 8.85062 38.1943C10.1113 37.4774 11.3427 36.7088 12.5767 35.947C12.7692 35.83 12.9617 35.7129 13.1601 35.5923C13.3307 35.4874 13.5013 35.3826 13.6771 35.2746C14.1627 35.0251 14.5723 34.9132 15.1102 34.8356C15.1102 34.648 15.1102 34.4604 15.1102 34.2671C15.3159 34.1991 15.5216 34.1312 15.7335 34.0612C16.8233 33.6525 17.7903 33.0446 18.7823 32.4428C19.1549 32.2192 19.5275 31.9956 19.9002 31.7721C20.0633 31.6735 20.2263 31.5749 20.3943 31.4733C20.796 31.2346 20.796 31.2346 21.1751 31.0451C21.2993 30.5661 21.2993 30.5661 21.3646 30.0974Z" fill="#F3AA00"/>
<path d="M41.2643 6.2168C41.5101 6.55662 41.5101 6.55662 41.7855 7.01045C42.4951 8.10861 43.2186 8.82852 44.4863 9.24926C44.9152 9.30256 45.346 9.34157 45.7774 9.36772C46.1076 9.38897 46.1076 9.38897 46.4445 9.41066C46.6113 9.41994 46.7782 9.42923 46.9501 9.43879C47.0144 12.9159 46.9244 16.3003 46.0025 19.6734C45.9634 19.8194 45.9243 19.9655 45.8839 20.116C43.9411 27.3341 40.3307 33.3664 35.9574 39.3844C33.546 39.3245 31.2475 38.3875 29.4912 36.7317C26.6557 33.7303 26.065 29.705 25.9939 25.7303C25.987 25.4279 25.9766 25.1255 25.9628 24.8234C25.8503 22.3065 25.8503 22.3065 26.4563 21.4424C26.8882 21.0656 27.332 20.75 27.8077 20.4315C30.1278 18.0817 31.4602 15.0017 32.1114 11.8152C32.4076 11.0043 32.6521 10.838 33.3929 10.4183C33.6053 10.2953 33.8178 10.1722 34.0367 10.0455C34.2662 9.91817 34.4958 9.79095 34.7255 9.66386C34.9582 9.53131 35.1906 9.39841 35.4229 9.26518C35.8864 9.0003 36.3513 8.73799 36.8176 8.4781C37.3998 8.1533 37.9795 7.82463 38.5583 7.4939C40.81 6.2168 40.81 6.2168 41.2643 6.2168Z" fill="#F92936"/>
<path d="M56.427 46.5864C56.4843 48.0922 56.528 49.5976 56.5547 51.1042C56.5675 51.804 56.5848 52.503 56.6129 53.2024C56.6398 53.8783 56.6544 54.5536 56.6608 55.23C56.6675 55.6115 56.6867 55.9928 56.7061 56.3739C56.7067 57.1048 56.6787 57.6499 56.427 58.3372C55.6759 59.0274 54.8874 59.4195 53.9631 59.8535C53.5749 60.0756 53.1884 60.3007 52.8045 60.5301C52.413 60.755 52.0214 60.9796 51.6295 61.2039C51.1991 61.4513 50.7687 61.6988 50.3384 61.9464C50.1224 62.0706 49.9064 62.1948 49.6839 62.3228C47.2845 63.705 44.8879 65.0895 42.5373 66.5536C41.88 66.9528 41.2064 67.3156 40.528 67.6775C39.6014 68.189 38.695 68.7353 37.7889 69.2824C37.6555 69.3621 37.522 69.4418 37.3845 69.5239C37.2648 69.5961 37.145 69.6682 37.0217 69.7426C36.716 69.8985 36.716 69.8985 36.3369 69.8985C36.3369 62.3932 36.3369 54.8878 36.3369 47.155C37.0072 47.4231 37.5773 47.6797 38.1974 48.0301C38.3717 48.1285 38.5461 48.227 38.7257 48.3284C38.9107 48.4337 39.0958 48.539 39.2865 48.6476C39.478 48.7556 39.6695 48.8636 39.8668 48.9749C40.834 49.5235 41.7908 50.0835 42.7335 50.6731C42.9034 50.7787 43.0733 50.8843 43.2484 50.9931C43.5699 51.1943 43.8897 51.3982 44.2076 51.6052C44.4253 51.7412 44.4253 51.7412 44.6473 51.8799C44.7724 51.9605 44.8975 52.0411 45.0264 52.1241C45.7585 52.3901 46.3679 52.1755 47.0556 51.8621C47.2142 51.7708 47.3728 51.6794 47.5362 51.5853C47.7147 51.4834 47.8932 51.3816 48.0771 51.2766C48.2643 51.1674 48.4516 51.0581 48.6445 50.9456C48.8384 50.8342 49.0323 50.7227 49.2322 50.6079C50.5448 49.8511 51.8485 49.0797 53.1443 48.2944C53.7827 47.9076 54.4225 47.5235 55.0648 47.1432C55.2458 47.0354 55.4268 46.9277 55.6134 46.8167C56.0479 46.5864 56.0479 46.5864 56.427 46.5864Z" fill="#F4D254"/>
<path d="M16.0575 35.2148C16.3348 35.3535 16.6073 35.5021 16.8756 35.6575C17.034 35.7487 17.1925 35.8398 17.3557 35.9338C17.5254 36.0327 17.6951 36.1316 17.8699 36.2335C18.0481 36.3364 18.2263 36.4394 18.41 36.5454C18.7778 36.758 19.1454 36.971 19.5128 37.1844C19.9772 37.454 20.4421 37.7225 20.9075 37.9903C22.8298 39.0979 24.7431 40.2208 26.656 41.3443C28.5835 42.4763 30.5171 43.5972 32.4566 44.7084C33.5114 45.3142 34.5524 45.934 35.579 46.5865C34.8777 47.1808 34.1448 47.6419 33.3402 48.0791C32.3583 48.6197 31.3859 49.1732 30.4217 49.7448C30.2189 49.8648 30.0161 49.9848 29.8071 50.1084C29.4032 50.3479 28.9999 50.5885 28.5973 50.8301C28.4105 50.9406 28.2236 51.051 28.0312 51.1648C27.8649 51.2641 27.6986 51.3635 27.5272 51.4658C27.0324 51.7127 26.6536 51.8476 26.1026 51.8933C25.7168 51.7572 25.7168 51.7572 25.3326 51.5276C25.1845 51.441 25.0364 51.3545 24.8838 51.2653C24.7231 51.1676 24.5624 51.07 24.3968 50.9694C24.2247 50.8679 24.0526 50.7665 23.8754 50.662C23.4951 50.4376 23.1155 50.212 22.7365 49.9854C22.0966 49.6036 21.4544 49.2259 20.8113 48.8498C20.5838 48.7167 20.3563 48.5836 20.1288 48.4505C20.0146 48.3836 19.9003 48.3168 19.7826 48.248C19.4307 48.0419 19.079 47.8354 18.7274 47.6288C17.19 46.7254 15.6484 45.8296 14.103 44.94C12.4502 43.9884 10.7993 43.0336 9.15154 42.0734C8.95834 41.9609 8.76513 41.8485 8.56607 41.7327C8.38816 41.6289 8.21025 41.5251 8.02695 41.4181C7.87073 41.3271 7.71451 41.236 7.55355 41.1421C7.2235 40.9448 6.90101 40.7349 6.58105 40.5216C6.58105 40.3965 6.58105 40.2714 6.58105 40.1425C6.93244 39.895 6.93244 39.895 7.42949 39.6117C7.61352 39.5057 7.79755 39.3997 7.98716 39.2904C8.18768 39.1768 8.3882 39.0632 8.5948 38.9461C9.011 38.7079 9.42707 38.4695 9.84303 38.2309C10.0563 38.1088 10.2695 37.9868 10.4892 37.861C11.1089 37.5012 11.722 37.1326 12.3336 36.7591C12.5218 36.6449 12.71 36.5306 12.9039 36.4129C13.2639 36.1937 13.6228 35.9729 13.9806 35.7502C14.1431 35.6519 14.3057 35.5537 14.4732 35.4524C14.6149 35.3651 14.7567 35.2778 14.9028 35.1878C15.392 34.9873 15.5706 35.023 16.0575 35.2148Z" fill="#FCFCFD"/>
<path d="M57.3744 35.2148C57.8298 35.4602 58.2636 35.7111 58.7011 35.9848C58.8255 36.061 58.95 36.1371 59.0781 36.2156C59.4588 36.4491 59.8382 36.6845 60.2174 36.9206C61.5625 37.7564 62.9054 38.5789 64.3041 39.323C64.7826 39.583 65.2486 39.8594 65.7137 40.1426C65.4728 40.8653 65.2658 40.8999 64.601 41.239C63.495 41.8179 62.4187 42.4361 61.3427 43.0684C59.7074 44.026 58.069 44.9777 56.4268 45.9232C54.8094 46.855 53.1943 47.7904 51.5819 48.7306C51.395 48.8392 51.208 48.9478 51.0153 49.0597C50.1534 49.5614 49.2959 50.0679 48.4473 50.5918C48.2994 50.6822 48.1515 50.7725 47.9991 50.8655C47.7277 51.0318 47.4577 51.2002 47.1894 51.3713C46.3123 51.9059 46.3123 51.9059 45.7312 51.8452C45.2355 51.7012 44.8475 51.5192 44.4013 51.2611C44.2421 51.1697 44.083 51.0783 43.919 50.9842C43.7505 50.8855 43.5821 50.7868 43.4085 50.6851C43.1466 50.5336 43.1466 50.5336 42.8795 50.379C41.3002 49.4608 39.7401 48.5118 38.1868 47.5504C37.7619 47.2886 37.3341 47.0315 36.9053 46.7761C37.6571 45.938 38.4496 45.4509 39.4402 44.9282C39.7499 44.7605 40.0594 44.5925 40.3686 44.424C40.5215 44.3409 40.6744 44.2578 40.8319 44.1722C41.4281 43.8427 42.0091 43.4934 42.5911 43.1395C43.8907 42.3497 45.206 41.5884 46.5239 40.8296C46.7377 40.7065 46.9515 40.5833 47.1718 40.4565C47.9638 40.0005 48.7561 39.5449 49.5484 39.0893C50.0013 38.8287 50.4541 38.5676 50.9067 38.3065C51.0477 38.2256 51.1886 38.1447 51.3338 38.0614C52.1204 37.6075 52.8965 37.1404 53.6668 36.6592C53.8388 36.5528 54.0108 36.4463 54.1881 36.3366C54.5199 36.1305 54.8504 35.9221 55.1792 35.7111C55.3285 35.6187 55.4778 35.5262 55.6316 35.431C55.7626 35.348 55.8935 35.265 56.0284 35.1795C56.5526 34.9766 56.8424 35.0526 57.3744 35.2148Z" fill="#FCFCFD"/>
<path d="M21.3646 30.0974C22.0648 30.5642 22.1767 31.0344 22.4426 31.7913C23.3462 34.1879 24.8288 36.0103 27.0505 37.2995C26.9454 37.1168 26.8404 36.934 26.7322 36.7457C26.5934 36.5039 26.4548 36.262 26.3161 36.0202C26.2124 35.8399 26.2124 35.8399 26.1066 35.6559C25.1018 33.9021 25.1018 33.9021 25.1552 32.9403C25.7724 33.4968 26.0958 34.0093 26.4345 34.7646C27.8624 37.7063 30.0487 39.2794 33.068 40.3675C34.3239 40.7714 35.5984 40.9431 36.906 41.0901C36.8435 41.2152 36.7809 41.3403 36.7165 41.4692C36.6875 41.8125 36.6692 42.1568 36.6565 42.5012C36.6486 42.7052 36.6406 42.9092 36.6325 43.1194C36.625 43.3332 36.6176 43.5469 36.6099 43.7672C36.5976 44.0901 36.5976 44.0901 36.5851 44.4194C36.5649 44.9522 36.5456 45.485 36.527 46.0179C36.652 46.0179 36.7771 46.0179 36.906 46.0179C36.8435 46.268 36.7809 46.5182 36.7165 46.776C36.9041 46.8385 37.0918 46.9011 37.2851 46.9655C37.2851 47.0906 37.2851 47.2157 37.2851 47.3446C36.9723 47.282 36.6596 47.2195 36.3374 47.155C36.3374 54.6604 36.3374 62.1657 36.3374 69.8985C36.5251 69.8985 36.7127 69.8985 36.906 69.8985C36.7809 70.1487 36.6558 70.3989 36.527 70.6566C35.6859 70.5567 35.1132 70.3594 34.3955 69.9133C34.2077 69.7983 34.02 69.6833 33.8265 69.5648C33.5273 69.3782 33.5273 69.3782 33.222 69.1878C32.7961 68.927 32.3699 68.6666 31.9435 68.4067C31.8356 68.3408 31.7277 68.2749 31.6165 68.207C30.5504 67.5578 29.4664 66.9424 28.3772 66.333C26.8825 65.4948 25.3986 64.6421 23.924 63.7692C22.7058 63.0481 21.4816 62.3374 20.2582 61.6252C19.8889 61.41 19.5233 61.1882 19.1613 60.9609C18.6432 60.678 18.2234 60.5081 17.6692 60.3341C16.6893 59.9794 15.8843 59.6105 15.2997 58.7163C14.7815 56.7817 14.982 54.6804 15.0785 52.6996C15.1116 51.9465 15.1262 51.1929 15.1424 50.4392C15.1768 48.9645 15.2316 47.4915 15.2997 46.0179C15.1518 45.9596 15.0039 45.9013 14.8515 45.8413C14.3902 45.6543 13.9662 45.445 13.5303 45.2057C13.3768 45.1216 13.2233 45.0375 13.0652 44.9508C12.9035 44.8612 12.7418 44.7716 12.5752 44.6793C12.4074 44.5867 12.2396 44.494 12.0667 44.3986C10.8097 43.7007 9.56988 42.9786 8.34413 42.2273C7.94122 41.9831 7.5342 41.7456 7.12255 41.5165C6.94787 41.4188 6.77318 41.3211 6.5932 41.2204C6.44295 41.139 6.2927 41.0577 6.13789 40.9739C6.03406 40.8871 5.93022 40.8004 5.82324 40.711C5.82324 40.4609 5.82324 40.2107 5.82324 39.9529C6.32013 39.6088 6.79702 39.3246 7.32763 39.0408C7.6559 38.859 7.98385 38.6766 8.31155 38.4937C8.48944 38.3949 8.66734 38.2961 8.85062 38.1943C10.1113 37.4774 11.3427 36.7088 12.5767 35.947C12.7692 35.83 12.9617 35.7129 13.1601 35.5923C13.3307 35.4874 13.5013 35.3826 13.6771 35.2746C14.1627 35.0251 14.5723 34.9132 15.1102 34.8356C15.1102 34.648 15.1102 34.4604 15.1102 34.2671C15.3159 34.1991 15.5216 34.1312 15.7335 34.0612C16.8233 33.6525 17.7903 33.0446 18.7823 32.4428C19.1549 32.2192 19.5275 31.9956 19.9002 31.7721C20.0633 31.6735 20.2263 31.5749 20.3943 31.4733C20.796 31.2346 20.796 31.2346 21.1751 31.0451C21.2993 30.5661 21.2993 30.5661 21.3646 30.0974ZM14.472 35.4842C14.3059 35.5838 14.1399 35.6834 13.9688 35.786C13.7904 35.8946 13.6119 36.0031 13.4281 36.115C13.0524 36.3405 12.6766 36.5658 12.3005 36.7909C12.1077 36.9065 11.9148 37.0221 11.7161 37.1412C10.6207 37.7914 9.51201 38.4181 8.40382 39.0462C8.2473 39.1351 8.09079 39.2239 7.92953 39.3155C7.7923 39.3931 7.65508 39.4707 7.51369 39.5507C7.19594 39.7365 6.88763 39.9383 6.58136 40.1425C6.80883 40.8249 6.93778 40.8595 7.54973 41.1923C7.80125 41.3313 7.80125 41.3313 8.05784 41.4731C8.24296 41.5735 8.42807 41.6738 8.6188 41.7771C9.01956 41.9988 9.42008 42.2209 9.82038 42.4435C10.1403 42.621 10.1403 42.621 10.4666 42.8022C11.6026 43.4372 12.7217 44.1014 13.8427 44.7622C14.3105 45.0376 14.7784 45.3127 15.2464 45.5877C15.3619 45.6556 15.4773 45.7235 15.5963 45.7934C16.9769 46.604 18.3637 47.4038 19.7529 48.1996C20.7884 48.7937 21.8176 49.396 22.8394 50.0135C23.0472 50.1381 23.2551 50.2626 23.4692 50.391C23.8652 50.6288 24.2599 50.8687 24.6531 51.1112C24.8298 51.2168 25.0065 51.3225 25.1885 51.4313C25.3428 51.5253 25.497 51.6194 25.6559 51.7163C26.2179 51.9388 26.4804 51.8899 27.0505 51.7037C27.4806 51.4955 27.4806 51.4955 27.8989 51.2277C28.0562 51.1315 28.2136 51.0353 28.3756 50.9362C28.5403 50.8337 28.705 50.7313 28.8747 50.6258C29.2171 50.4165 29.5596 50.2074 29.9023 49.9987C30.0656 49.8991 30.229 49.7994 30.3972 49.6967C31.0597 49.2977 31.7364 48.9296 32.4188 48.5661C33.4841 47.9907 34.5298 47.3796 35.5793 46.776C35.1216 46.2684 34.6297 45.9602 34.0372 45.6233C33.8401 45.5105 33.6431 45.3977 33.4401 45.2816C33.2274 45.161 33.0147 45.0404 32.7956 44.9162C32.459 44.724 32.1226 44.5315 31.7863 44.339C31.5563 44.2074 31.3262 44.0759 31.0961 43.9445C29.9961 43.3161 28.9019 42.6778 27.8086 42.0377C26.2124 41.1048 24.613 40.1774 23.0112 39.254C22.8058 39.1356 22.6003 39.0171 22.3887 38.8951C21.4379 38.3469 20.4867 37.7992 19.5352 37.2521C19.2132 37.0666 18.8911 36.881 18.5691 36.6954C18.4258 36.6133 18.2826 36.5311 18.135 36.4465C17.5322 36.0987 16.9449 35.7465 16.3747 35.3472C15.5818 34.843 15.2219 35.0295 14.472 35.4842ZM15.8683 46.5864C15.7977 48.0856 15.744 49.5841 15.7112 51.0846C15.6954 51.7816 15.6741 52.4774 15.6395 53.1738C15.3725 56.0816 15.3725 56.0816 16.1417 58.7626C16.8291 59.4282 17.6218 59.7792 18.5162 60.092C19.0522 60.2879 19.5181 60.5729 20.0039 60.87C20.3387 61.0569 20.6738 61.2432 21.0093 61.4289C22.626 62.3335 24.2268 63.261 25.8191 64.2079C27.4068 65.1507 29.0062 66.0724 30.6078 66.9915C31.8809 67.7235 33.1473 68.4648 34.3903 69.2472C34.9002 69.5617 35.1556 69.709 35.7688 69.709C35.7688 62.3287 35.7688 54.9485 35.7688 47.3446C34.9384 47.6214 34.3668 47.8437 33.6389 48.2744C33.4536 48.3834 33.2684 48.4923 33.0776 48.6046C32.8829 48.7204 32.6882 48.8362 32.4876 48.9556C32.2866 49.0735 32.0855 49.1914 31.8784 49.3128C30.9487 49.8589 30.0235 50.4109 29.1079 50.9804C28.963 51.0693 28.8181 51.1583 28.6688 51.2499C28.4027 51.4137 28.1382 51.5802 27.8758 51.7496C27.3202 52.09 26.9698 52.2813 26.3108 52.2272C25.7225 52.0825 25.2954 51.8939 24.7724 51.5919C24.5959 51.491 24.4193 51.3902 24.2373 51.2862C24.0516 51.1777 23.8659 51.0692 23.6745 50.9575C23.4818 50.8466 23.2891 50.7358 23.0906 50.6217C22.5141 50.2894 21.9392 49.9546 21.3646 49.6189C21.2039 49.5253 21.0431 49.4318 20.8775 49.3354C19.4368 48.4962 18.0022 47.6481 16.5857 46.7686C16.2558 46.5565 16.2558 46.5565 15.8683 46.5864Z" fill="#151D29"/>
<path d="M48.2774 18.915C49.089 19.2128 49.827 19.6128 50.5755 20.0404C50.7748 20.1534 50.7748 20.1534 50.9781 20.2688C51.4051 20.5116 51.8314 20.7555 52.2575 20.9999C52.391 21.0764 52.5244 21.1529 52.6619 21.2317C54.8753 22.5032 57.0782 23.7932 59.2782 25.0878C59.5124 25.2256 59.7466 25.3634 59.9809 25.5012C60.096 25.5689 60.2112 25.6367 60.3299 25.7065C61.0954 26.1562 61.864 26.5999 62.6343 27.0411C62.8291 27.1536 63.024 27.2662 63.2248 27.3821C63.5894 27.5925 63.9549 27.8013 64.3214 28.0083C64.4812 28.101 64.641 28.1938 64.8057 28.2893C64.9454 28.3691 65.0851 28.4488 65.229 28.531C65.3266 28.61 65.4241 28.6891 65.5246 28.7706C65.5246 28.9582 65.5246 29.1458 65.5246 29.3391C65.1702 29.6112 65.1702 29.6112 64.6695 29.8951C64.4845 30.0015 64.2995 30.1079 64.1089 30.2175C63.9076 30.3303 63.7064 30.443 63.499 30.5592C63.2949 30.6753 63.0908 30.7914 62.8806 30.9109C62.4563 31.1522 62.0317 31.3928 61.6067 31.6327C61.007 31.9748 60.4133 32.3251 59.8209 32.6796C59.642 32.7855 59.4631 32.8914 59.2788 33.0006C58.9393 33.2016 58.601 33.4045 58.2638 33.6094C58.1105 33.6991 57.9571 33.7888 57.799 33.8812C57.6662 33.9606 57.5334 34.0399 57.3965 34.1217C56.8596 34.3162 56.5909 34.2499 56.0481 34.0774C55.6613 33.8854 55.2817 33.6785 54.908 33.4621C54.8002 33.4002 54.6924 33.3382 54.5813 33.2744C54.2324 33.0735 53.8846 32.8707 53.5369 32.6677C53.2965 32.5287 53.056 32.3898 52.8155 32.251C52.123 31.8508 51.432 31.4481 50.7413 31.0449C50.5655 30.9424 50.3896 30.84 50.2084 30.7344C48.6733 29.8389 47.1451 28.9318 45.624 28.0124C45.6905 27.2319 45.8189 26.6238 46.1571 25.9158C46.6393 24.8853 46.9267 23.8172 47.2227 22.7211C47.3856 22.1211 47.5533 21.5224 47.7204 20.9236C47.9069 20.2543 48.0922 19.5847 48.2774 18.915Z" fill="#FCFCFD"/>
<path d="M42.0075 3.99174C42.1375 4.03792 42.2675 4.08409 42.4014 4.13167C42.4314 4.25529 42.4615 4.37891 42.4925 4.50628C42.7901 5.62114 43.067 6.37149 43.9176 7.16413C44.921 7.74298 45.8177 7.86257 46.9501 7.73272C47.4781 7.55976 47.4781 7.55976 47.8977 7.35366C48.0854 7.35366 48.273 7.35366 48.4663 7.35366C48.4807 8.39092 48.4908 9.42811 48.4976 10.4654C48.5004 10.8164 48.5042 11.1674 48.5092 11.5184C48.5553 14.8436 48.2697 18.0371 47.2699 21.2248C47.1826 21.5115 47.1826 21.5115 47.0936 21.804C46.9229 22.3584 46.7479 22.9112 46.571 23.4636C46.5244 23.6124 46.4777 23.7612 46.4296 23.9145C44.8385 28.9397 42.1061 33.6395 38.9899 37.8678C38.8957 37.9967 38.8015 38.1255 38.7045 38.2583C38.3943 38.682 38.0825 39.1044 37.7698 39.5262C37.671 39.6599 37.5723 39.7935 37.4705 39.9312C37.378 40.0546 37.2854 40.178 37.1901 40.3051C37.1076 40.4154 37.0252 40.5258 36.9403 40.6395C36.7155 40.9003 36.7155 40.9003 36.3365 41.0898C33.8063 41.2033 30.8819 40.0086 28.9448 38.4364C25.8305 35.5449 24.6399 31.3366 24.4502 27.2039C24.4349 26.6854 24.4246 26.1672 24.4178 25.6486C24.4112 25.2961 24.3995 24.9436 24.3828 24.5914C24.2372 21.4957 24.2372 21.4957 25.0687 20.5255C25.6206 19.9893 26.237 19.5539 26.86 19.1045C28.7402 17.119 29.8825 14.5494 30.3558 11.8855C30.5391 10.9469 30.8559 10.2608 31.5982 9.62801C32.1616 9.25344 32.7503 8.94249 33.3514 8.63298C33.6929 8.45125 34.0342 8.26912 34.3753 8.08661C34.5458 7.9959 34.7163 7.9052 34.892 7.81175C35.6247 7.4157 36.3426 6.99657 37.059 6.57185C37.2538 6.45731 37.2538 6.45731 37.4525 6.34045C38.1114 5.95124 38.7634 5.55353 39.4096 5.14372C39.5383 5.06325 39.667 4.98278 39.7996 4.89987C40.0425 4.74749 40.284 4.59282 40.5237 4.43549C41.0622 4.09923 41.365 3.93419 42.0075 3.99174ZM39.9449 6.71696C39.7516 6.82506 39.5582 6.93315 39.359 7.04452C38.4998 7.53094 37.6409 8.01777 36.7837 8.50759C36.1922 8.84413 35.598 9.17533 35.0031 9.50585C34.6616 9.70025 34.3203 9.89494 33.9792 10.09C33.8202 10.1769 33.6612 10.2638 33.4973 10.3534C32.7678 10.7783 32.4215 10.9876 32.0898 11.7854C32.0527 12.0116 32.0156 12.2379 31.9773 12.4709C31.219 15.2942 29.7903 19.4351 27.0798 21.0133C26.6345 21.2922 26.3904 21.5037 26.1019 21.9474C25.9418 22.8745 25.943 23.7728 25.9706 24.7112C25.9832 25.1505 25.9861 25.589 25.9871 26.0286C26.0252 29.8375 26.8106 33.8437 29.4068 36.7781C31.0169 38.2842 33.2825 39.1422 35.4273 39.4796C36.0044 39.4294 36.0044 39.4294 36.4164 38.9036C36.5675 38.6835 36.7144 38.4604 36.8577 38.2351C36.938 38.1154 37.0184 37.9958 37.1012 37.8725C37.2703 37.62 37.4377 37.3663 37.6036 37.1116C37.8407 36.749 38.0836 36.3914 38.3295 36.0347C40.1302 33.408 41.6898 30.6455 43.1595 27.8228C43.2328 27.6884 43.3061 27.5541 43.3816 27.4156C45.3547 23.7121 46.2872 19.4435 46.7606 15.3139C46.788 15.1074 46.788 15.1074 46.8159 14.8967C46.9638 13.7347 46.972 12.587 46.9619 11.4167C46.9611 11.2255 46.9602 11.0343 46.9593 10.8374C46.9571 10.3711 46.954 9.90478 46.9501 9.43848C46.7898 9.4336 46.6295 9.42871 46.4644 9.42368C44.634 9.33216 43.4854 9.10809 42.2356 7.73272C41.8312 7.25124 41.527 6.78789 41.2642 6.21649C40.7246 6.21649 40.4151 6.45326 39.9449 6.71696Z" fill="#F6F7F7"/>
<path d="M45.0552 28.3916C45.9359 28.7111 46.7288 29.1541 47.5428 29.6117C47.6917 29.695 47.8406 29.7783 47.994 29.8642C50.7197 31.3942 53.41 32.9687 56.0479 34.6461C55.2122 35.3712 54.2961 35.8857 53.3353 36.4229C52.9754 36.6263 52.6156 36.8299 52.2559 37.0337C52.0689 37.1395 51.8819 37.2453 51.6893 37.3543C50.7569 37.8854 49.8311 38.4276 48.9051 38.9697C47.0822 40.0356 45.2552 41.094 43.4253 42.1477C42.4777 42.6935 41.5305 43.24 40.5858 43.7908C40.4232 43.8855 40.2607 43.9801 40.0933 44.0776C39.7971 44.2502 39.5012 44.4231 39.2055 44.5965C38.3285 45.1071 37.4383 45.5721 36.5264 46.0178C36.4988 45.2795 36.4821 44.5413 36.4672 43.8027C36.4593 43.5937 36.4513 43.3847 36.4431 43.1693C36.4196 41.6084 36.4196 41.6084 36.9314 40.9412C37.1105 40.8027 37.2896 40.6642 37.4741 40.5215C40.5071 37.0053 43.3037 32.698 45.0552 28.3916Z" fill="#96D6F9"/>
<path d="M38.9902 2.04712C39.396 2.25941 39.7947 2.48545 40.1866 2.72232C40.4904 2.90446 40.4904 2.90446 40.8004 3.09027C40.9536 3.18385 41.1067 3.27742 41.2646 3.37383C40.6672 4.03925 40.0062 4.44843 39.2271 4.86637C38.9569 5.0148 38.687 5.16364 38.4172 5.3128C38.1941 5.43607 38.1941 5.43607 37.9665 5.56183C37.0135 6.09565 36.0716 6.64867 35.1286 7.19995C34.9395 7.31022 34.7505 7.4205 34.5557 7.53412C34.1888 7.74855 33.8223 7.96373 33.4563 8.1797C33.1035 8.38658 32.749 8.59052 32.3928 8.79142C31.1542 9.48765 31.1542 9.48765 30.2719 10.5759C30.0935 11.2238 30.0935 11.2238 29.9994 11.9263C29.7717 13.2374 29.3786 14.3303 28.7556 15.5037C28.6733 15.6776 28.591 15.8516 28.5061 16.0308C27.5736 17.8423 26.1455 19.1428 24.6753 20.5252C24.0223 21.1934 24.1762 22.005 24.1751 22.8813C24.1745 23.0516 24.1739 23.2219 24.1732 23.3973C24.1722 23.7595 24.1718 24.1216 24.1718 24.4838C24.1714 25.0299 24.168 25.576 24.1644 26.1221C24.1567 28.5338 24.1938 30.8847 25.1072 33.1536C25.1561 33.2799 25.205 33.4063 25.2554 33.5365C25.6419 34.5078 26.106 35.4226 26.6331 36.326C26.8604 36.7309 26.8604 36.7309 27.0499 37.2995C25.2109 36.6713 23.8033 34.9778 22.8802 33.3194C21.3629 30.0378 20.9273 26.8993 20.8353 23.3203C20.8245 22.9901 20.809 22.66 20.7887 22.3303C20.6142 19.4306 20.6142 19.4306 21.5119 18.4102C22.0201 17.9172 22.5738 17.5037 23.1439 17.0858C24.0089 16.3612 24.5679 15.3147 25.1546 14.3665C25.2972 14.1514 25.2972 14.1514 25.4426 13.9319C26.3069 12.5401 26.6294 10.882 26.9736 9.29587C27.1866 8.46228 27.4243 8.04729 28.1582 7.58122C28.3116 7.4837 28.465 7.38617 28.623 7.28569C29.5591 6.7171 30.5052 6.16742 31.4564 5.62448C31.7825 5.43816 32.1085 5.25183 32.4345 5.06544C32.7636 4.8773 33.0928 4.68924 33.422 4.50119C34.0298 4.15076 34.6334 3.7941 35.2359 3.43454C35.4163 3.32804 35.5966 3.22155 35.7825 3.11184C36.121 2.91179 36.4583 2.7097 36.7942 2.50531C37.0211 2.37232 37.0211 2.37232 37.2526 2.23665C37.383 2.15847 37.5135 2.08029 37.6478 1.99974C38.1667 1.81289 38.4671 1.89093 38.9902 2.04712Z" fill="#95D4F6"/>
<path d="M39.9378 15.6931C41.0659 16.2572 41.6227 16.9819 42.0226 18.157C42.3306 20.9928 41.4102 23.9636 39.6981 26.2474C38.3846 27.8526 36.6666 29.7357 34.497 29.9611C33.7343 29.9856 33.0935 29.9651 32.3685 29.7183C31.3605 28.7409 30.9999 27.4132 30.9707 26.0461C31.0055 22.9636 32.475 20.204 34.5747 18.003C36.1842 16.4702 37.6287 15.3804 39.9378 15.6931Z" fill="#FAFBFB"/>
<path d="M20.4168 21C20.4295 21.3094 20.4295 21.3094 20.4425 21.625C20.4751 22.4009 20.5109 23.1765 20.5475 23.9521C20.5628 24.2859 20.5773 24.6196 20.591 24.9535C20.663 26.701 20.738 28.3544 21.2664 30.0365C21.378 30.5375 21.3957 30.7702 21.1749 31.2346C20.7682 31.5378 20.7682 31.5378 20.2361 31.8276C20.0443 31.9337 19.8525 32.0399 19.6549 32.1493C19.4529 32.2579 19.2508 32.3665 19.0427 32.4784C18.6468 32.6957 18.251 32.9131 17.8552 33.1306C17.6787 33.226 17.5022 33.3214 17.3204 33.4198C16.8097 33.6908 16.8097 33.6908 16.3361 34.0301C15.8681 34.267 15.8681 34.267 15.4063 34.2463C14.8196 34.0425 14.3181 33.7737 13.7803 33.4623C13.6724 33.4003 13.5645 33.3383 13.4534 33.2744C13.1045 33.0735 12.7568 32.8707 12.4092 32.6679C12.1701 32.5297 11.9311 32.3916 11.6919 32.2537C10.998 31.8527 10.3056 31.4493 9.6136 31.045C9.42767 30.9365 9.24175 30.828 9.05019 30.7162C8.16214 30.1972 7.27586 29.6753 6.3916 29.1498C6.91411 28.5328 7.59928 28.2014 8.29874 27.823C9.47117 27.1775 10.6194 26.5014 11.7576 25.7975C12.7893 25.1606 13.8247 24.5512 14.896 23.9829C15.9374 23.4043 16.9527 22.7809 17.9713 22.1631C18.1292 22.0676 18.287 21.972 18.4496 21.8736C18.5912 21.7876 18.7328 21.7015 18.8786 21.6128C19.9297 21 19.9297 21 20.4168 21Z" fill="#FBFBFB"/>
<path d="M14.1625 35.0254C14.2876 35.0879 14.4127 35.1505 14.5416 35.2149C14.3251 35.8643 14.2484 35.8987 13.6791 36.2151C13.5365 36.2958 13.3939 36.3765 13.247 36.4596C13.0918 36.5453 12.9365 36.631 12.7766 36.7193C12.4497 36.9036 12.1229 37.0882 11.7964 37.2731C11.5404 37.4177 11.5404 37.4177 11.2792 37.5652C10.2269 38.1691 9.19327 38.8051 8.15918 39.4397C8.00766 39.5317 7.85614 39.6237 7.70002 39.7185C7.56612 39.8005 7.43222 39.8825 7.29427 39.967C6.96042 40.1427 6.96042 40.1427 6.58136 40.1427C6.98149 40.5735 7.37013 40.8652 7.88289 41.151C8.10687 41.2772 8.10687 41.2772 8.33538 41.4059C8.58122 41.5429 8.58122 41.5429 8.83202 41.6826C10.5042 42.6257 12.1644 43.5875 13.819 44.5611C15.7913 45.7206 17.7675 46.8729 19.7528 48.0102C20.7884 48.6043 21.8176 49.2067 22.8394 49.8242C23.0472 49.9488 23.2551 50.0733 23.4692 50.2016C23.8652 50.4394 24.2599 50.6794 24.6531 50.9219C24.8298 51.0275 25.0065 51.1332 25.1885 51.242C25.3428 51.336 25.497 51.4301 25.6559 51.527C26.2179 51.7495 26.4804 51.7006 27.0505 51.5144C27.4806 51.3062 27.4806 51.3062 27.8989 51.0384C28.0563 50.9421 28.2137 50.8459 28.3758 50.7468C28.5405 50.6444 28.7051 50.542 28.8747 50.4365C29.2161 50.2276 29.5576 50.0191 29.8994 49.8109C30.0626 49.7113 30.2258 49.6117 30.3939 49.5091C31.0739 49.1 31.7694 48.7235 32.4706 48.3524C33.1458 47.9824 33.7941 47.5702 34.4429 47.156C34.5677 47.0932 34.6926 47.0304 34.8212 46.9657C35.2003 47.1553 35.2003 47.1553 35.3898 47.5343C35.1919 47.6425 34.994 47.7508 34.7901 47.8623C30.9798 49.8969 30.9798 49.8969 27.3506 52.2226C26.7116 52.5351 26.401 52.4642 25.7238 52.2725C25.2457 52.0549 25.2457 52.0549 24.7725 51.7817C24.5959 51.6808 24.4193 51.5799 24.2374 51.476C24.0517 51.3675 23.8659 51.259 23.6745 51.1472C23.4816 51.0363 23.2886 50.9253 23.0898 50.811C22.5135 50.4789 21.9388 50.1443 21.3646 49.8087C21.2059 49.7161 21.0471 49.6235 20.8836 49.5282C20.2265 49.1445 19.5706 48.7591 18.9163 48.3709C18.2651 47.9846 17.6113 47.6028 16.9571 47.2214C16.753 47.1024 16.5489 46.9834 16.3386 46.8608C16.1834 46.7703 16.0282 46.6799 15.8683 46.5867C15.0725 53.0975 15.0725 53.0975 16.5268 59.1644C17.6381 60.3734 19.2733 60.8538 20.8044 61.3096C21.9982 61.68 23.0206 62.3635 24.0773 63.0165C24.4814 63.2511 24.8864 63.4843 25.2922 63.7161C26.4646 64.3917 27.6347 65.0712 28.8036 65.7528C28.988 65.8603 29.1723 65.9677 29.3622 66.0785C30.3176 66.6364 31.2708 67.1976 32.2218 67.7628C32.4137 67.8768 32.6055 67.9907 32.8032 68.1081C33.1689 68.3256 33.5342 68.5435 33.8993 68.762C34.0621 68.8589 34.2248 68.9557 34.3925 69.0555C34.5353 69.1408 34.678 69.2262 34.8251 69.3141C35.2202 69.5451 35.2202 69.5451 35.7688 69.7092C35.7063 62.2664 35.6438 54.8236 35.5793 47.1553C35.7044 47.1553 35.8295 47.1553 35.9584 47.1553C35.9628 50.1388 35.9661 53.1223 35.9682 56.1059C35.9692 57.4911 35.9705 58.8764 35.9727 60.2616C35.9746 61.4687 35.9758 62.6758 35.9762 63.8829C35.9764 64.5223 35.977 65.1617 35.9784 65.8011C35.9798 66.5141 35.98 67.2271 35.9799 67.9401C35.9806 68.1531 35.9812 68.3662 35.982 68.5858C35.9817 68.7792 35.9814 68.9727 35.9812 69.1721C35.9814 69.4252 35.9814 69.4252 35.9817 69.6835C35.9584 70.0883 35.9584 70.0883 35.7688 70.4673C35.1094 70.2186 34.5135 69.929 33.9069 69.5708C33.7301 69.4669 33.5533 69.3631 33.3712 69.2561C33.1813 69.1437 32.9913 69.0314 32.7956 68.9156C32.3843 68.6738 31.9729 68.4323 31.5614 68.1908C31.3488 68.0658 31.1362 67.9409 30.9171 67.8122C29.8839 67.2074 28.8463 66.6105 27.8086 66.0134C26.0415 64.9957 24.2784 63.9715 22.518 62.9422C21.4923 62.3431 20.4652 61.7467 19.436 61.1538C19.3227 61.0885 19.2095 61.0232 19.0927 60.956C18.5417 60.6386 17.9904 60.3215 17.4389 60.0047C17.2419 59.8914 17.0449 59.778 16.8418 59.6612C16.6673 59.561 16.4928 59.4608 16.313 59.3575C15.9686 59.1547 15.6322 58.9382 15.2997 58.7165C15.2313 58.1889 15.2313 58.1889 15.2351 57.5078C15.235 57.322 15.235 57.322 15.2349 57.1323C15.2353 56.7221 15.2397 56.312 15.2442 55.9017C15.2452 55.6176 15.246 55.3334 15.2466 55.0492C15.2488 54.3008 15.2544 53.5524 15.2607 52.804C15.2665 52.0405 15.2691 51.277 15.2719 50.5135C15.278 49.015 15.2877 47.5165 15.2997 46.0181C15.1518 45.9598 15.0039 45.9015 14.8515 45.8415C14.3902 45.6545 13.9662 45.4452 13.5303 45.2059C13.3768 45.1218 13.2233 45.0377 13.0652 44.951C12.9035 44.8614 12.7418 44.7718 12.5752 44.6795C12.4074 44.5869 12.2396 44.4942 12.0667 44.3988C10.8097 43.7009 9.56988 42.9788 8.34413 42.2275C7.94122 41.9834 7.5342 41.7459 7.12255 41.5168C6.94787 41.419 6.77318 41.3213 6.5932 41.2206C6.44295 41.1393 6.2927 41.0579 6.13789 40.9741C6.03406 40.8874 5.93022 40.8006 5.82324 40.7113C5.82324 40.4611 5.82324 40.2109 5.82324 39.9531C6.32012 39.6091 6.79702 39.3248 7.32763 39.041C7.65516 38.8597 7.98238 38.6778 8.30933 38.4954C8.48713 38.3967 8.66493 38.2979 8.84812 38.1962C9.47426 37.8399 10.0906 37.4691 10.7051 37.0932C10.8123 37.0278 10.9196 36.9623 11.03 36.8949C11.5632 36.5694 12.0954 36.2425 12.6266 35.9139C12.821 35.7957 13.0154 35.6774 13.2156 35.5555C13.3892 35.4487 13.5628 35.3418 13.7417 35.2318C13.95 35.1296 13.95 35.1296 14.1625 35.0254Z" fill="#272A2C"/>
<path d="M41.2643 6.2168C41.5101 6.55662 41.5101 6.55662 41.7855 7.01045C42.4951 8.10861 43.2186 8.82852 44.4863 9.24926C44.9152 9.30256 45.346 9.34157 45.7774 9.36772C46.1076 9.38897 46.1076 9.38897 46.4445 9.41066C46.6113 9.41994 46.7782 9.42923 46.9501 9.43879C47.0144 12.9159 46.9244 16.3003 46.0025 19.6734C45.9634 19.8194 45.9243 19.9655 45.8839 20.116C43.9411 27.3341 40.3307 33.3664 35.9574 39.3844C33.546 39.3245 31.2475 38.3875 29.4912 36.7317C26.6557 33.7303 26.065 29.705 25.9939 25.7303C25.987 25.4279 25.9766 25.1255 25.9628 24.8234C25.8503 22.3065 25.8503 22.3065 26.4563 21.4424C26.8882 21.0656 27.332 20.75 27.8077 20.4315C30.1278 18.0817 31.4602 15.0017 32.1114 11.8152C32.4076 11.0043 32.6521 10.838 33.3929 10.4183C33.6053 10.2953 33.8178 10.1722 34.0367 10.0455C34.2662 9.91817 34.4958 9.79095 34.7255 9.66386C34.9582 9.53131 35.1906 9.39841 35.4229 9.26518C35.8864 9.0003 36.3513 8.73799 36.8176 8.4781C37.3998 8.1533 37.9795 7.82463 38.5583 7.4939C40.81 6.2168 40.81 6.2168 41.2643 6.2168ZM36.609 9.24926C36.3606 9.39081 36.3606 9.39081 36.1071 9.53522C35.7789 9.72302 35.4515 9.91227 35.125 10.103C34.7874 10.2966 34.4456 10.4831 34.1006 10.6632C33.0603 11.2175 33.0603 11.2175 32.4178 12.1766C32.378 12.4067 32.3382 12.6369 32.2972 12.874C31.6136 16.1932 29.9202 18.9345 27.6182 21.3791C27.4539 21.4852 27.2897 21.5913 27.1204 21.7007C26.6071 22.1988 26.557 22.4773 26.5437 23.1808C26.5475 23.3836 26.5475 23.3836 26.5513 23.5905C26.5509 23.7333 26.5504 23.876 26.5499 24.0231C26.5501 24.3262 26.5527 24.6294 26.5574 24.9326C26.5638 25.3849 26.5613 25.8364 26.5576 26.2887C26.5597 28.8713 26.8962 31.5039 28.1512 33.8051C28.2171 33.9301 28.283 34.055 28.3509 34.1838C29.6865 36.6404 31.6018 37.9046 34.2621 38.7151C34.8603 38.823 35.1896 38.8002 35.7679 38.6263C36.0985 38.3387 36.0985 38.3387 36.3609 37.9533C36.466 37.8109 36.571 37.6685 36.6792 37.5217C36.789 37.3663 36.8987 37.2109 37.0117 37.0508C37.1849 36.8106 37.1849 36.8106 37.3616 36.5655C38.4879 34.9782 39.4888 33.3229 40.4607 31.638C40.6569 31.3013 40.8601 30.9687 41.0651 30.6372C44.8709 24.4538 46.5252 17.2074 46.3816 10.0074C46.235 9.98881 46.0884 9.97024 45.9373 9.95111C43.9612 9.66741 42.8055 9.24832 41.5197 7.69601C41.2643 7.35397 41.2643 7.35397 41.0747 6.97491C39.7093 6.97491 37.7824 8.58048 36.609 9.24926Z" fill="#2C2732"/>
<path d="M57.3745 45.4492C57.3745 45.6369 57.3745 45.8245 57.3745 46.0178C57.2494 46.0178 57.1243 46.0178 56.9954 46.0178C57.0055 46.171 57.0156 46.3242 57.026 46.482C57.1178 47.9369 57.1867 49.3903 57.2311 50.8473C57.2547 51.5964 57.2866 52.3431 57.3386 53.0907C57.6637 57.8924 57.6637 57.8924 56.5749 59.2346C55.4989 60.1177 54.289 60.6545 52.9975 61.1513C52.295 61.4298 51.6937 61.7806 51.0512 62.1774C50.6754 62.3939 50.2995 62.6103 49.9236 62.8267C49.5071 63.0668 49.0905 63.3069 48.6739 63.547C48.4765 63.6608 48.2791 63.7745 48.0757 63.8918C47.3016 64.3379 46.5275 64.7842 45.754 65.2313C45.6169 65.3105 45.4798 65.3898 45.3386 65.4714C44.3992 66.0154 43.4629 66.5646 42.5276 67.1155C42.2796 67.2614 42.0317 67.4073 41.7837 67.5531C41.2974 67.8393 40.8116 68.1261 40.3259 68.4132C39.2034 69.0751 38.0821 69.7163 36.9053 70.2775C36.8428 70.0899 36.7803 69.9023 36.7158 69.7089C37.3521 69.3243 37.9887 68.9403 38.6257 68.5568C38.9461 68.3637 39.2663 68.1701 39.5865 67.9765C40.7224 67.293 41.8658 66.6337 43.0329 66.005C43.9116 65.5254 44.7726 65.0159 45.6355 64.5087C47.4894 63.423 49.348 62.3458 51.2108 61.2753C51.5979 61.0525 51.9816 60.8236 52.3619 60.5892C52.8805 60.3061 53.3183 60.1215 53.8705 59.9357C54.8283 59.5715 55.6406 59.1994 56.2373 58.3372C56.7689 56.5565 56.6128 54.5989 56.5464 52.7598C56.5248 52.0636 56.5216 51.3674 56.5168 50.6709C56.5047 49.3087 56.4724 47.948 56.4268 46.5864C55.7315 46.978 55.0364 47.37 54.3413 47.7621C54.146 47.872 53.9507 47.982 53.7494 48.0953C52.6785 48.6997 51.6144 49.3123 50.5633 49.9505C50.233 50.1494 49.9026 50.3481 49.5721 50.5467C49.3244 50.696 49.077 50.846 48.83 50.9965C48.4224 51.2433 48.0125 51.4857 47.6019 51.7274C47.4777 51.8038 47.3535 51.8802 47.2255 51.9589C46.3992 52.4385 45.9702 52.5032 45.0551 52.2723C44.5452 52.0199 44.5452 52.0199 44.0275 51.6985C43.8346 51.5804 43.6417 51.4623 43.4429 51.3406C43.1386 51.1509 43.1386 51.1509 42.8281 50.9574C42.4052 50.6983 41.9819 50.4397 41.5584 50.1815C41.3495 50.054 41.1405 49.9265 40.9252 49.7951C39.6071 49.0026 38.2568 48.2676 36.9053 47.534C37.0304 47.4089 37.1555 47.2839 37.2844 47.155C37.9712 47.2251 38.5143 47.5886 39.1012 47.9316C39.3078 48.0517 39.5143 48.1718 39.7271 48.2955C39.8352 48.3589 39.9433 48.4223 40.0546 48.4877C40.3891 48.6838 40.7244 48.8785 41.0599 49.0729C41.9964 49.6159 42.9309 50.1619 43.8587 50.7198C43.9803 50.7919 44.1019 50.8641 44.2271 50.9385C44.5333 51.1207 44.838 51.3054 45.1425 51.4905C45.7005 51.7377 45.8215 51.7006 46.3818 51.5142C46.6171 51.4024 46.8484 51.2819 47.0755 51.1543C47.2748 51.0431 47.2748 51.0431 47.4782 50.9297C47.6207 50.8489 47.7631 50.7682 47.9099 50.685C48.06 50.6007 48.2102 50.5164 48.3649 50.4295C50.3919 49.2877 52.4024 48.1166 54.4087 46.9388C54.574 46.8422 54.7392 46.7455 54.9095 46.6459C55.2284 46.4595 55.5469 46.2724 55.8649 46.0845C56.0076 46.0012 56.1503 45.9178 56.2973 45.832C56.4232 45.7579 56.5492 45.6838 56.679 45.6075C56.9954 45.4492 56.9954 45.4492 57.3745 45.4492Z" fill="#2D3132"/>
<path d="M44.8655 59.8533C45.1104 62.1912 45.1104 62.1912 44.8655 63.2648C44.2907 63.9735 43.6121 64.2473 42.7807 64.5915C42.4352 64.7774 42.0916 64.9669 41.7501 65.1601C41.5805 65.2505 41.411 65.3409 41.2363 65.434C40.4386 65.8689 39.6614 66.3373 38.8827 66.8051C38.4215 67.0554 38.4215 67.0554 38.0424 67.0554C37.9006 65.9211 37.7616 64.7665 38.0424 63.6439C38.6116 62.9695 39.2772 62.6787 40.0776 62.3292C40.9602 61.9142 41.7871 61.3903 42.6267 60.8957C42.9722 60.695 43.3183 60.4955 43.6654 60.2975C43.8145 60.2118 43.9635 60.1262 44.1171 60.038C44.4864 59.8533 44.4864 59.8533 44.8655 59.8533Z" fill="#161D26"/>
<path d="M40.329 15.2584C41.3961 15.7989 42.0593 16.5969 42.4612 17.7068C43.0257 20.6455 42.1677 23.4871 40.54 25.9394C39.0529 27.9471 37.4191 29.6733 35.0103 30.4763C33.8939 30.5847 32.839 30.6312 31.8831 29.9832C30.8417 29.0123 30.4992 27.9386 30.4394 26.5487C30.3603 23.0747 31.9157 19.9605 34.2759 17.4462C35.9245 15.872 37.98 14.4532 40.329 15.2584ZM33.5652 19.1164C32.9904 19.8918 32.5452 20.7223 32.1081 21.5803C32.0441 21.7055 31.9801 21.8307 31.9141 21.9597C31.0343 23.7574 30.6331 25.8072 31.1738 27.7777C31.5566 28.6894 32.0148 29.4524 32.9255 29.9077C34.6141 30.1468 35.8883 29.716 37.2847 28.7705C39.6358 26.8138 41.5797 23.9031 42.0229 20.8103C42.1324 19.3081 42.2338 17.8776 41.2648 16.6407C40.3153 15.759 39.6807 15.6119 38.41 15.6301C36.437 15.8531 34.7811 17.6711 33.5652 19.1164Z" fill="#2E2733"/>
<path d="M35.5784 47.155C35.7035 47.155 35.8286 47.155 35.9575 47.155C35.9619 50.1386 35.9652 53.1221 35.9673 56.1057C35.9683 57.4909 35.9696 58.8762 35.9718 60.2614C35.9736 61.4685 35.9749 62.6756 35.9753 63.8826C35.9755 64.5221 35.9761 65.1615 35.9775 65.8009C35.9789 66.5139 35.9791 67.2268 35.979 67.9398C35.9797 68.1529 35.9803 68.366 35.981 68.5855C35.9808 68.779 35.9805 68.9725 35.9803 69.1718C35.9804 69.3406 35.9806 69.5094 35.9808 69.6833C35.9575 70.0881 35.9575 70.0881 35.7679 70.4671C35.1085 70.2183 34.5126 69.9288 33.906 69.5705C33.729 69.4666 33.5521 69.3627 33.3699 69.2556C33.0852 69.0872 33.0852 69.0872 32.7947 68.9153C32.3858 68.6751 31.9769 68.435 31.5679 68.195C31.3556 68.0702 31.1433 67.9455 30.9245 67.8169C29.8489 67.1871 28.7692 66.5644 27.6893 65.9421C27.4826 65.8229 27.2758 65.7038 27.0629 65.581C25.6073 64.7424 24.1504 63.9063 22.6904 63.0755C23.0173 62.8617 23.0173 62.8617 23.4485 62.6964C23.8475 62.8284 23.8475 62.8284 24.2829 63.0851C24.5321 63.2289 24.5321 63.2289 24.7862 63.3756C24.9663 63.4838 25.1464 63.5919 25.332 63.7033C25.5205 63.8132 25.7091 63.9232 25.9033 64.0365C26.4265 64.3423 26.948 64.6507 27.469 64.96C28.0615 65.3104 28.6566 65.6564 29.2514 66.0028C33.0059 68.1921 33.0059 68.1921 34.8204 69.3059C35.2176 69.5456 35.2176 69.5456 35.7679 69.709C35.7054 62.2662 35.6428 54.8234 35.5784 47.155Z" fill="#574822"/>
<path d="M48.7211 6.80417C49.5258 7.72578 49.3701 9.00838 49.3187 10.1605C49.2918 10.528 49.2645 10.8954 49.2369 11.2629C49.2207 11.6377 49.206 12.0125 49.1928 12.3874C49.1575 13.3015 49.1021 14.2122 49.0355 15.1245C48.9729 15.1245 48.9104 15.1245 48.846 15.1245C48.7834 14.7492 48.7209 14.374 48.6564 13.9873C48.5939 13.9873 48.5313 13.9873 48.4669 13.9873C48.4669 11.7983 48.4669 9.60921 48.4669 7.35381C47.9665 7.54145 47.4662 7.72908 46.9507 7.9224C46.4295 7.97793 46.4295 7.97793 46.003 7.95794C45.8584 7.95281 45.7137 7.94768 45.5647 7.94239C45.4592 7.93579 45.3536 7.9292 45.2449 7.9224C45.2227 7.80122 45.2004 7.68004 45.1775 7.55519C45.1372 7.42619 45.0969 7.29719 45.0554 7.16428C44.7431 7.02925 44.4266 6.90387 44.1077 6.78523C43.6694 6.38248 43.6694 6.38248 43.3496 6.02711C43.4562 5.6599 43.4562 5.6599 43.7287 5.26899C45.5371 4.83363 47.308 5.67394 48.7211 6.80417Z" fill="#2E3540"/>
<path d="M28.5667 15.5037C28.7544 15.5037 28.942 15.5037 29.1353 15.5037C28.9172 17.2332 27.3007 18.8448 26.1029 20.0524C25.997 20.126 25.8912 20.1997 25.7821 20.2756C25.057 20.8026 25.057 20.8026 24.6551 21.5792C24.6134 22.0385 24.6119 22.481 24.6266 22.9419C24.6271 23.1103 24.6277 23.2786 24.6282 23.452C24.6306 23.8081 24.6362 24.1642 24.6448 24.5201C24.6575 25.0555 24.6604 25.5903 24.6614 26.1258C24.6821 28.6407 25.0193 30.9044 25.7238 33.3194C25.364 33.2631 25.364 33.2631 24.9657 33.1299C23.8344 30.8673 23.9323 28.1177 23.9166 25.6462C23.9131 25.2873 23.9066 24.9284 23.8971 24.5695C23.808 21.1962 23.808 21.1962 24.6288 20.2426C24.9939 19.929 24.9939 19.929 25.3447 19.6733C25.5089 19.514 25.6731 19.3547 25.8422 19.1906C25.9908 19.0528 26.1393 18.915 26.2924 18.773C27.1674 17.918 27.7315 17.0194 28.2876 15.9345C28.3797 15.7924 28.4718 15.6502 28.5667 15.5037Z" fill="#222E3B"/>
<path d="M14.1616 35.0254C14.2867 35.0879 14.4118 35.1505 14.5407 35.2149C14.3242 35.8643 14.2475 35.8987 13.6782 36.2151C13.5356 36.2958 13.393 36.3765 13.2461 36.4596C13.0909 36.5453 12.9356 36.631 12.7757 36.7193C12.4488 36.9036 12.122 37.0882 11.7955 37.2731C11.5395 37.4177 11.5395 37.4177 11.2783 37.5652C10.226 38.1691 9.19237 38.8051 8.15828 39.4397C8.00676 39.5317 7.85524 39.6237 7.69912 39.7185C7.56522 39.8005 7.43132 39.8825 7.29337 39.967C6.95952 40.1427 6.95952 40.1427 6.58046 40.1427C6.99557 40.5931 7.40786 40.8867 7.94196 41.1843C8.10047 41.2735 8.25899 41.3627 8.42231 41.4546C8.59239 41.5494 8.76248 41.6442 8.93773 41.7418C9.29572 41.9444 9.65355 42.1473 10.0112 42.3504C10.195 42.4547 10.3788 42.5589 10.5682 42.6663C11.4734 43.1815 12.3752 43.7018 13.2732 44.2294C13.4383 44.3242 13.6035 44.419 13.7736 44.5166C13.9244 44.6058 14.0751 44.695 14.2305 44.7869C14.3639 44.8647 14.4974 44.9425 14.6349 45.0227C14.7759 45.1402 14.7759 45.1402 14.9197 45.26C14.9197 45.4476 14.9197 45.6352 14.9197 45.8285C14.2597 45.5781 13.653 45.2884 13.0393 44.9401C12.862 44.8398 12.6847 44.7395 12.502 44.6361C12.3148 44.5293 12.1276 44.4224 11.9347 44.3123C11.7419 44.2028 11.5492 44.0932 11.3507 43.9804C10.1558 43.2996 8.96377 42.614 7.77686 41.9195C7.64658 41.8435 7.5163 41.7675 7.38207 41.6893C6.77249 41.33 6.18708 40.9623 5.63281 40.5217C5.91289 39.7829 6.27968 39.5509 6.96544 39.1824C7.16075 39.0757 7.35607 38.9689 7.5573 38.859C7.76657 38.747 7.97584 38.6351 8.19146 38.5198C9.87957 37.6 11.5382 36.6554 13.1555 35.6154C13.4843 35.4079 13.8221 35.2149 14.1616 35.0254Z" fill="#2A313B"/>
<path d="M27.6187 7.16406C27.7438 7.22661 27.8689 7.28915 27.9978 7.35359C27.9081 7.43197 27.8185 7.51035 27.7261 7.5911C27.3909 7.96491 27.322 8.1831 27.2278 8.67067C27.1831 8.88854 27.1831 8.88854 27.1375 9.11081C27.1087 9.26192 27.0798 9.41303 27.0501 9.56871C26.469 12.5407 25.1423 15.9097 22.5997 17.7366C21.798 18.3427 21.2581 18.7772 21.004 19.7743C20.9462 20.5411 20.9405 21.2864 20.9615 22.0539C20.9619 22.3201 20.9614 22.5863 20.96 22.8524C20.96 23.4989 20.9687 24.144 20.9852 24.7903C20.9227 24.7903 20.8601 24.7903 20.7957 24.7903C20.7909 24.645 20.7862 24.4997 20.7813 24.3499C20.7593 23.6912 20.736 23.0325 20.7128 22.3738C20.7016 22.0308 20.7016 22.0308 20.6902 21.6808C20.6822 21.4609 20.6743 21.241 20.6661 21.0145C20.6592 20.812 20.6522 20.6095 20.6451 20.4009C20.6237 19.8759 20.6237 19.8759 20.4936 19.4343C20.4166 19.1044 20.4166 19.1044 20.6417 18.7387C20.7551 18.617 20.8684 18.4953 20.9852 18.37C21.1083 18.2371 21.2315 18.1042 21.3583 17.9672C21.6954 17.6354 22.0378 17.3384 22.4067 17.0433C24.495 15.2999 25.8909 12.1903 26.3757 9.55168C26.5714 8.4921 26.8622 7.94047 27.6187 7.16406Z" fill="#28313D"/>
<path d="M48.6566 7.354C48.7192 7.354 48.7817 7.354 48.8461 7.354C48.851 8.61491 48.8543 9.87581 48.8565 11.1367C48.8575 11.565 48.8588 11.9933 48.8604 12.4216C48.8628 13.0398 48.8638 13.658 48.8646 14.2763C48.8656 14.4655 48.8666 14.6547 48.8676 14.8496C48.8677 16.0268 48.7977 17.178 48.6566 18.3467C48.7764 18.414 48.8963 18.4812 49.0197 18.5506C49.4998 18.8206 49.9784 19.093 50.4571 19.3654C50.7148 19.5098 50.7148 19.5098 50.9776 19.6571C51.1401 19.7499 51.3025 19.8428 51.4699 19.9384C51.6208 20.0238 51.7717 20.1092 51.9271 20.1971C52.0362 20.2745 52.1453 20.3518 52.2577 20.4315C52.2577 20.5566 52.2577 20.6817 52.2577 20.8106C51.2902 20.7056 50.5584 20.2371 49.7346 19.7563C49.524 19.6356 49.524 19.6356 49.3092 19.5124C48.9647 19.3145 48.621 19.1151 48.2776 18.9153C48.2369 19.1828 48.2369 19.1828 48.1954 19.4557C48.0995 19.9888 47.9765 20.3468 47.709 20.8106C47.6464 20.8106 47.5839 20.8106 47.5194 20.8106C47.4908 19.8144 47.5924 18.9091 47.78 17.9321C47.8554 17.5271 47.9303 17.122 48.0039 16.7167C48.0622 16.4013 48.1237 16.0865 48.1877 15.7722C48.5187 14.0285 48.5509 12.2974 48.5855 10.5286C48.5928 10.2194 48.6002 9.91018 48.6077 9.60096C48.6257 8.852 48.6417 8.10303 48.6566 7.354Z" fill="#1F2732"/>
<path d="M57.3746 45.4492C57.3746 45.6369 57.3746 45.8245 57.3746 46.0178C57.2495 46.0178 57.1245 46.0178 56.9956 46.0178C56.9956 50.2083 56.9956 54.3988 56.9956 58.7163C56.8079 58.6537 56.6203 58.5912 56.427 58.5267C56.4895 54.5239 56.5521 50.521 56.6165 46.3969C56.3663 46.4594 56.1162 46.522 55.8584 46.5864C56.0506 46.1058 56.1712 45.8697 56.6165 45.5914C56.9956 45.4492 56.9956 45.4492 57.3746 45.4492Z" fill="#1B222E"/>
<path d="M39.18 19.4836C39.3051 19.4836 39.4302 19.4836 39.5591 19.4836C39.4437 20.0267 39.2788 20.4503 38.9964 20.9273C38.9202 21.0568 38.8439 21.1863 38.7653 21.3198C38.6833 21.4566 38.6012 21.5934 38.5167 21.7343C38.4329 21.8754 38.3491 22.0165 38.2628 22.1618C37.4628 23.5006 36.624 24.8133 35.7685 26.1172C35.0989 26.0142 34.6447 25.8668 34.0983 25.4657C33.9264 25.3429 33.9264 25.3429 33.751 25.2176C33.6663 25.1392 33.5815 25.0608 33.4941 24.98C33.4941 24.8549 33.4941 24.7298 33.4941 24.6009C34.289 24.7281 34.8973 25.1422 35.579 25.5486C35.6312 25.4103 35.6834 25.2719 35.7372 25.1294C35.9457 24.6305 36.1813 24.1889 36.4592 23.7258C36.6049 23.4829 36.6049 23.4829 36.7535 23.235C36.8545 23.0681 36.9556 22.9013 37.0597 22.7293C37.1585 22.5639 37.2573 22.3985 37.3591 22.2281C37.9282 21.2832 38.5008 20.3538 39.18 19.4836Z" fill="#28303A"/>
<path d="M20.6067 19.6736C20.6692 19.6736 20.7318 19.6736 20.7962 19.6736C20.8 19.8097 20.8037 19.9459 20.8076 20.0862C20.9019 23.4681 20.9019 23.4681 21.1634 26.8402C21.1776 26.9823 21.1917 27.1244 21.2063 27.2709C21.296 28.0683 21.4804 28.7734 21.7438 29.5291C21.6965 29.9674 21.6965 29.9674 21.5543 30.2872C21.3667 30.381 21.3667 30.381 21.1753 30.4767C20.2604 27.2833 20.3932 24.1052 20.4171 20.8108C20.2921 20.7482 20.167 20.6857 20.0381 20.6212C20.2217 20.3019 20.4114 19.986 20.6067 19.6736Z" fill="#161F2B"/>
<path d="M15.8683 58.3374C17.7627 59.3489 19.6216 60.4231 21.4842 61.4915C22.0758 61.8306 22.6678 62.1689 23.26 62.507C23.1974 62.6321 23.1349 62.7572 23.0704 62.8861C22.3736 62.7767 21.8607 62.5889 21.2529 62.2339C21.0897 62.1395 20.9266 62.0451 20.7585 61.9479C20.5871 61.8471 20.4158 61.7462 20.2393 61.6423C19.8835 61.4358 19.5276 61.2292 19.1717 61.0226C18.9975 60.9209 18.8232 60.8191 18.6437 60.7142C17.9541 60.3123 17.2609 59.9168 16.5672 59.522C16.0282 59.214 16.0282 59.214 15.4893 58.906C15.6143 58.8434 15.7394 58.7809 15.8683 58.7165C15.8683 58.5914 15.8683 58.4663 15.8683 58.3374Z" fill="#282B2E"/>
<path d="M24.3962 21.5686C24.4588 21.5686 24.5213 21.5686 24.5858 21.5686C24.5885 21.7834 24.5913 21.9981 24.5941 22.2194C24.6053 23.0302 24.6199 23.8408 24.6355 24.6515C24.6417 24.9997 24.6471 25.348 24.6514 25.6963C24.6856 28.3623 24.9739 30.7544 25.7229 33.3194C25.3631 33.2631 25.3631 33.2631 24.9648 33.1299C24.1854 31.5711 23.9835 29.7396 24.0172 28.0126C24.0797 28.0126 24.1423 28.0126 24.2067 28.0126C24.2692 25.8861 24.3318 23.7596 24.3962 21.5686Z" fill="#454E58"/>
<path d="M45.0554 5.45882C45.5636 5.72322 46.0402 6.01665 46.5205 6.32873C46.9554 6.62203 46.9554 6.62203 47.5192 6.78553C47.5192 6.91062 47.5192 7.03571 47.5192 7.16458C44.7018 7.36039 44.7018 7.36039 43.8353 6.61969C43.3496 6.11576 43.3496 6.11576 43.3496 5.64835C44.0151 5.42652 44.3538 5.36953 45.0554 5.45882Z" fill="#90CDEF"/>
<path d="M47.3289 20.0522C47.6198 20.2914 47.6198 20.2914 47.8975 20.6208C47.809 21.2206 47.6852 21.7468 47.5184 22.3266C47.4603 22.5406 47.4021 22.7546 47.3422 22.9751C47.0107 24.1726 46.6532 25.3425 46.1917 26.4962C46.0041 26.4962 45.8164 26.4962 45.6231 26.4962C45.5606 26.3711 45.498 26.2461 45.4336 26.1172C45.5909 25.6584 45.7601 25.2153 45.943 24.7668C46.5501 23.2242 46.9638 21.667 47.3289 20.0522Z" fill="#2E353F"/>
<path d="M41.2645 43.1748C41.6436 43.3643 41.6436 43.3643 41.8331 43.7434C41.6983 43.8218 41.5635 43.9002 41.4246 43.981C40.8144 44.3359 40.2043 44.6912 39.5943 45.0464C39.3821 45.1698 39.1699 45.2932 38.9513 45.4203C38.7479 45.5388 38.5445 45.6573 38.335 45.7793C38.1474 45.8885 37.9598 45.9977 37.7665 46.1102C37.4101 46.3221 37.0608 46.5459 36.7158 46.7759C36.7158 46.4631 36.7158 46.1504 36.7158 45.8282C36.8132 45.7748 36.9106 45.7213 37.0109 45.6663C37.4578 45.4207 37.9041 45.1743 38.3505 44.9279C38.5037 44.8439 38.6569 44.7599 38.8147 44.6733C39.6583 44.2069 40.472 43.7237 41.2645 43.1748Z" fill="#25303D"/>
<path d="M42.402 3.75269C42.5897 3.8465 42.5897 3.8465 42.7811 3.94221C42.8995 4.52265 42.8995 4.52265 42.9706 5.07939C44.0026 4.98557 44.0026 4.98557 45.0554 4.88986C45.0554 5.01495 45.0554 5.14004 45.0554 5.26892C44.6176 5.33146 44.1798 5.39401 43.7287 5.45845C43.7287 5.70863 43.7287 5.9588 43.7287 6.21656C44.0171 6.49293 44.0171 6.49293 44.3921 6.70223C44.7652 6.92804 44.7652 6.92804 45.0554 7.16421C45.0554 7.35184 45.0554 7.53948 45.0554 7.7328C43.9374 7.49322 43.4002 6.94418 42.7811 6.02703C42.4299 5.24484 42.3614 4.60582 42.402 3.75269Z" fill="#1B232F"/>
<path d="M24.5861 20.8108C24.6486 20.9359 24.7112 21.061 24.7756 21.1898C24.7131 21.3149 24.6505 21.44 24.5861 21.5689C24.5564 22.08 24.5371 22.5869 24.5261 23.0985C24.5222 23.2494 24.5182 23.4003 24.5142 23.5558C24.5018 24.0385 24.4906 24.5213 24.4795 25.0041C24.4713 25.3311 24.463 25.6581 24.4547 25.9851C24.4344 26.7874 24.4152 27.5896 24.3966 28.392C23.9148 27.9102 23.9687 27.5967 23.96 26.9394C23.9601 26.7933 23.9603 26.6472 23.9605 26.4967C23.9597 26.3467 23.9589 26.1966 23.958 26.0421C23.9569 25.7247 23.9569 25.4074 23.9577 25.09C23.9583 24.6033 23.9538 24.1167 23.949 23.63C23.9486 23.3221 23.9485 23.0141 23.9486 22.7061C23.9469 22.56 23.9452 22.4139 23.9434 22.2634C23.9469 21.8532 23.9469 21.8532 24.0175 21.1898C24.2051 21.0648 24.3928 20.9397 24.5861 20.8108Z" fill="#131B28"/>
<path d="M59.838 36.3518C60.6363 36.4603 61.2873 36.9095 61.9702 37.3113C62.0934 37.3828 62.2165 37.4542 62.3434 37.5278C62.6459 37.7036 62.9478 37.8805 63.2496 38.0576C63.187 38.2452 63.1245 38.4328 63.06 38.6262C62.2273 38.3236 61.4888 37.9097 60.7265 37.4653C60.6042 37.3947 60.4819 37.3241 60.3559 37.2513C60.0566 37.0784 59.7578 36.9047 59.459 36.7309C59.5841 36.6058 59.7092 36.4807 59.838 36.3518Z" fill="#2C333D"/>
<path d="M21.7427 17.5886C21.8678 17.6512 21.9929 17.7137 22.1218 17.7782C21.3874 18.8916 21.3874 18.8916 21.1741 19.1049C21.144 19.525 21.1265 19.9461 21.1142 20.3671C21.1102 20.4931 21.1063 20.619 21.1022 20.7488C21.0898 21.1524 21.0786 21.556 21.0675 21.9596C21.0593 22.2327 21.0511 22.5058 21.0427 22.7788C21.0224 23.4494 21.0032 24.1201 20.9846 24.7907C20.9221 24.7907 20.8595 24.7907 20.7951 24.7907C20.7903 24.6454 20.7856 24.5001 20.7807 24.3504C20.7587 23.6917 20.7354 23.0329 20.7122 22.3742C20.7047 22.1456 20.6973 21.9169 20.6896 21.6813C20.6816 21.4614 20.6737 21.2415 20.6655 21.015C20.6586 20.8125 20.6516 20.61 20.6445 20.4014C20.6238 19.8765 20.6238 19.8765 20.4901 19.4373C20.4656 19.3276 20.4412 19.2179 20.416 19.1049C20.6877 18.6991 20.6877 18.6991 21.0675 18.2994C21.2548 18.0985 21.2548 18.0985 21.4458 17.8936C21.5438 17.793 21.6418 17.6923 21.7427 17.5886Z" fill="#354756"/>
<path d="M31.0298 23.4639C31.0924 23.4639 31.1549 23.4639 31.2193 23.4639C31.1568 24.9024 31.0943 26.3409 31.0298 27.823C30.9047 27.823 30.7796 27.823 30.6508 27.823C30.2931 26.6144 30.2394 25.1525 30.7455 23.9851C30.8393 23.8131 30.9332 23.6411 31.0298 23.4639Z" fill="#2B1D29"/>
<path d="M42.0225 18.1572C42.1476 18.1572 42.2727 18.1572 42.4016 18.1572C42.879 19.1121 42.6673 20.525 42.4016 21.5214C42.3391 21.6621 42.2765 21.8028 42.2121 21.9478C42.087 21.9478 41.9619 21.9478 41.833 21.9478C41.8956 20.6969 41.9581 19.446 42.0225 18.1572Z" fill="#261E2A"/>
<path d="M14.1623 35.0254C14.2874 35.0879 14.4125 35.1505 14.5413 35.2149C14.2865 35.9796 13.7921 36.1866 13.1317 36.5772C13.0182 36.6469 12.9047 36.7167 12.7878 36.7885C11.9409 37.2997 11.9409 37.2997 11.5089 37.2997C11.4463 37.1121 11.3838 36.9245 11.3193 36.7312C11.7842 36.441 12.2502 36.1531 12.7171 35.8664C12.8495 35.7835 12.982 35.7005 13.1184 35.6151C13.4595 35.4068 13.8104 35.2148 14.1623 35.0254Z" fill="#303741"/>
<path d="M52.258 20.6208C53.3888 20.9184 54.3104 21.5212 55.2904 22.1371C55.2279 22.3247 55.1653 22.5124 55.1009 22.7057C54.3346 22.4242 53.6583 22.0558 52.9569 21.6396C52.653 21.46 52.653 21.46 52.3431 21.2768C52.1899 21.1854 52.0367 21.0941 51.8789 20.9999C52.004 20.8748 52.1291 20.7497 52.258 20.6208Z" fill="#2C343E"/>
<path d="M20.9855 26.4966C21.048 26.4966 21.1106 26.4966 21.175 26.4966C21.2002 26.6749 21.2253 26.8533 21.2513 27.037C21.2847 27.273 21.3182 27.5091 21.3527 27.7522C21.3857 27.9853 21.4187 28.2184 21.4526 28.4585C21.5423 29.0695 21.6396 29.6784 21.7436 30.2872C21.556 30.3497 21.3683 30.4123 21.175 30.4767C21.0788 30.1178 20.9844 29.7583 20.8907 29.3987C20.8379 29.1987 20.7852 28.9986 20.7308 28.7924C20.5418 27.8957 20.5128 27.2943 20.9855 26.4966Z" fill="#2B3845"/>
<path d="M25.1543 32.9404C26.008 33.636 26.4371 34.5986 26.8601 35.5938C26.8601 35.7189 26.8601 35.844 26.8601 35.9729C26.6725 36.0354 26.4848 36.098 26.2915 36.1624C26.0996 35.8044 25.9107 35.4447 25.7229 35.0845C25.6174 34.8844 25.5118 34.6843 25.4031 34.4781C25.1606 33.9028 25.0997 33.5545 25.1543 32.9404Z" fill="#202B38"/>
<path d="M55.1006 22.3267C56.2083 22.6182 57.2095 23.1712 58.1331 23.8429C58.1331 23.968 58.1331 24.0931 58.1331 24.222C57.3478 24.1085 56.7719 23.8416 56.0838 23.452C55.8988 23.3482 55.7139 23.2443 55.5233 23.1373C55.3838 23.0575 55.2443 22.9776 55.1006 22.8952C55.1006 22.7076 55.1006 22.52 55.1006 22.3267Z" fill="#242B36"/>
<path d="M7.71763 27.8232C7.51886 28.3202 7.40504 28.5423 6.93583 28.8183C6.81855 28.8652 6.70128 28.9121 6.58046 28.9604C6.70555 29.2106 6.83064 29.4608 6.95952 29.7185C6.05925 29.5527 6.05925 29.5527 5.63281 29.3395C5.63281 29.1518 5.63281 28.9642 5.63281 28.7709C5.9445 28.5081 5.9445 28.5081 6.35539 28.2615C6.55659 28.1373 6.55659 28.1373 6.76184 28.0106C7.14905 27.8232 7.14905 27.8232 7.71763 27.8232Z" fill="#252C37"/>
<path d="M33.4941 24.6008C34.289 24.728 34.8973 25.1421 35.579 25.5485C35.579 25.4234 35.579 25.2983 35.579 25.1694C35.7666 25.1069 35.9542 25.0443 36.1475 24.9799C36.085 25.2926 36.0225 25.6053 35.958 25.9275C35.579 26.0934 35.579 26.0934 35.0104 26.1171C34.4521 25.8003 33.9527 25.4294 33.4941 24.9799C33.4941 24.8548 33.4941 24.7297 33.4941 24.6008Z" fill="#242B36"/>
<path d="M30.0829 17.2092C30.208 17.3343 30.333 17.4594 30.4619 17.5883C30.0338 18.7375 29.5771 19.568 28.4126 20.1114C28.2074 20.1759 28.2074 20.1759 27.998 20.2417C28.1047 20.1039 28.1047 20.1039 28.2135 19.9633C28.8917 19.075 29.5072 18.167 30.0829 17.2092Z" fill="#292934"/>
<path d="M46.7137 5.75447C46.8652 5.84072 47.0166 5.92696 47.1727 6.01582C47.287 6.08203 47.4014 6.14824 47.5192 6.21645C47.1905 6.43411 47.1905 6.43411 46.7611 6.59551C46.3672 6.42523 46.3672 6.42523 45.9556 6.14538C45.088 5.61451 44.5427 5.55663 43.5391 5.64786C43.6016 5.52278 43.6642 5.39769 43.7286 5.26881C44.9734 5.01046 45.6316 5.13389 46.7137 5.75447Z" fill="#283643"/>
<path d="M38.6113 38.6262C38.6738 38.7513 38.7364 38.8764 38.8008 39.0053C37.9564 40.1311 37.9564 40.1311 37.095 41.2796C36.8449 41.1545 36.5947 41.0294 36.3369 40.9006C36.4737 40.7677 36.6105 40.6348 36.7515 40.4978C37.1237 40.1278 37.4632 39.7444 37.7939 39.337C38.2322 38.8157 38.2322 38.8157 38.6113 38.6262Z" fill="#212B38"/>
<path d="M41.6439 21.7581C41.8316 21.8206 42.0192 21.8831 42.2125 21.9476C42.1272 22.2876 42.04 22.627 41.9519 22.9663C41.9035 23.1554 41.8552 23.3445 41.8053 23.5393C41.6439 24.0324 41.6439 24.0324 41.2649 24.4115C41.0772 24.474 40.8896 24.5366 40.6963 24.601C41.0122 23.6533 41.3281 22.7057 41.6439 21.7581Z" fill="#332D38"/>
<path d="M19.4688 48.1028C20.4463 48.3716 21.3261 48.7991 22.1222 49.4295C22.1222 49.5546 22.1222 49.6797 22.1222 49.8085C21.4095 49.6984 20.8845 49.4954 20.2624 49.1333C20.1126 49.0471 19.9629 48.9609 19.8086 48.872C19.6964 48.8058 19.5843 48.7396 19.4688 48.6714C19.4688 48.4837 19.4688 48.2961 19.4688 48.1028Z" fill="#25292C"/>
<path d="M15.8683 58.3374C16.2134 58.508 16.5566 58.6825 16.8989 58.8586C17.0902 58.9554 17.2815 59.0521 17.4786 59.1518C17.9531 59.4746 17.9531 59.4746 18.1138 59.8921C18.1281 60.0607 18.1281 60.0607 18.1427 60.2327C17.2003 59.8983 16.3546 59.3999 15.4893 58.906C15.6143 58.8434 15.7394 58.7809 15.8683 58.7165C15.8683 58.5914 15.8683 58.4663 15.8683 58.3374Z" fill="#323536"/>
<path d="M26.2917 10.0071C26.3542 10.1322 26.4168 10.2573 26.4812 10.3861C26.6063 10.3861 26.7314 10.3861 26.8603 10.3861C26.6727 11.1367 26.485 11.8872 26.2917 12.6605C26.1041 12.6605 25.9164 12.6605 25.7231 12.6605C25.5336 12.2814 25.5336 12.2814 25.6809 11.7469C25.7535 11.5402 25.826 11.3335 25.9008 11.1206C25.9729 10.9129 26.0449 10.7052 26.1192 10.4913C26.1761 10.3315 26.2331 10.1717 26.2917 10.0071Z" fill="#2D3845"/>
<path d="M31.2198 9.24902C31.3449 9.31157 31.47 9.37411 31.5989 9.43855C31.4777 9.634 31.3565 9.82946 31.2316 10.0308C30.8754 10.6489 30.7211 11.1861 30.6512 11.9024C30.4636 11.8399 30.2759 11.7773 30.0826 11.7129C29.9944 11.1099 29.986 10.7172 30.3358 10.2048C30.6214 9.87569 30.9126 9.55801 31.2198 9.24902Z" fill="#222E3C"/>
<path d="M46.3826 64.0232C46.7617 64.2127 46.7617 64.2127 46.9512 64.5918C46.6438 64.7823 46.3357 64.9716 46.0272 65.1604C45.77 65.3187 45.77 65.3187 45.5075 65.4802C45.0559 65.729 45.0559 65.729 44.6768 65.729C44.6143 65.5413 44.5517 65.3537 44.4873 65.1604C44.7941 64.9651 45.1024 64.772 45.4113 64.5799C45.5828 64.4722 45.7543 64.3644 45.931 64.2534C46.1545 64.1395 46.1545 64.1395 46.3826 64.0232Z" fill="#303434"/>
<path d="M64.0089 27.4438C64.8633 27.6823 65.4288 27.9943 66.0938 28.581C65.9061 28.8625 65.9061 28.8625 65.7147 29.1496C65.0267 28.7118 64.3387 28.274 63.6299 27.8229C63.755 27.6978 63.8801 27.5727 64.0089 27.4438Z" fill="#353C46"/>
<path d="M9.42459 26.4966C9.80365 26.6861 9.80365 26.6861 9.99318 27.0652C9.68582 27.2557 9.37768 27.445 9.06922 27.6338C8.81196 27.7921 8.81196 27.7921 8.5495 27.9536C8.09788 28.2023 8.09788 28.2023 7.71883 28.2023C7.65628 28.0147 7.59374 27.8271 7.5293 27.6338C7.83613 27.4385 8.14438 27.2454 8.45325 27.0533C8.62476 26.9456 8.79627 26.8378 8.97298 26.7268C9.19652 26.6129 9.19652 26.6129 9.42459 26.4966Z" fill="#333944"/>
<path d="M39.7485 15.3144C39.7485 15.3769 39.7485 15.4395 39.7485 15.5039C39.6315 15.5225 39.5145 15.541 39.3939 15.5602C38.2198 15.7675 37.2139 16.1105 36.1475 16.6411C36.2822 15.9244 36.2822 15.9244 36.7753 15.5513C37.7685 15.2146 38.7095 15.269 39.7485 15.3144Z" fill="#1B1B26"/>
<path d="M45.0557 7.16406C45.6811 7.16406 46.3066 7.16406 46.951 7.16406C46.951 7.41424 46.951 7.66442 46.951 7.92218C46.3881 7.92218 45.8252 7.92218 45.2452 7.92218C45.1826 7.672 45.1201 7.42182 45.0557 7.16406Z" fill="#3C4B59"/>
<path d="M32.5457 4.32129C32.9247 4.51082 32.9247 4.51082 33.1143 4.88988C32.3637 5.26514 31.6132 5.64041 30.8399 6.02705C30.7774 5.83942 30.7148 5.65178 30.6504 5.45846C30.9572 5.26316 31.2655 5.07009 31.5743 4.87803C31.7459 4.77029 31.9174 4.66255 32.0941 4.55154C32.3176 4.43756 32.3176 4.43756 32.5457 4.32129Z" fill="#2C3743"/>
<path d="M55.6687 58.7161C55.8564 58.7786 56.044 58.8412 56.2373 58.9056C55.7057 59.531 55.0681 59.8693 54.342 60.2323C54.1544 60.1698 53.9668 60.1072 53.7734 60.0428C54.305 59.4174 54.9427 59.0791 55.6687 58.7161Z" fill="#22282E"/>
<path d="M37.0953 22.7058C37.3625 23.5074 37.081 23.8585 36.7162 24.6011C36.3964 25.0631 36.3964 25.0631 36.1476 25.3592C36.0225 25.2967 35.8974 25.2341 35.7686 25.1697C36.0797 24.2645 36.577 23.503 37.0953 22.7058Z" fill="#2E353F"/>
<path d="M23.6385 16.0723C23.7011 16.1974 23.7636 16.3224 23.8281 16.4513C22.4798 18.1221 22.4798 18.1221 21.5537 18.3466C22.1745 17.4677 22.7486 16.7005 23.6385 16.0723Z" fill="#1E2A38"/>
<path d="M8.09766 41.6584C8.99883 41.7677 9.60829 42.1419 10.372 42.6061C10.372 42.7312 10.372 42.8563 10.372 42.9852C9.47083 42.8759 8.86137 42.5017 8.09766 42.0375C8.09766 41.9124 8.09766 41.7873 8.09766 41.6584Z" fill="#252D37"/>
<path d="M38.8006 68.7612C38.8006 68.9489 38.8006 69.1365 38.8006 69.3298C37.8625 69.7989 37.8625 69.7989 36.9053 70.2775C36.8428 70.0898 36.7803 69.9022 36.7158 69.7089C36.9556 69.5494 37.1968 69.3918 37.4384 69.2351C37.5725 69.1471 37.7067 69.0591 37.8449 68.9685C38.2321 68.7612 38.2321 68.7612 38.8006 68.7612Z" fill="#282D30"/>
<path d="M10.9404 31.9924C11.8416 32.1017 12.4511 32.4759 13.2148 32.9401C13.2148 33.0652 13.2148 33.1903 13.2148 33.3191C12.3587 33.2184 11.8148 32.8851 11.13 32.3715C11.0674 32.2464 11.0049 32.1213 10.9404 31.9924Z" fill="#232B36"/>
<path d="M43.1602 6.2168C43.9191 6.33356 44.4547 6.70021 45.0554 7.16444C45.0554 7.35208 45.0554 7.53971 45.0554 7.73303C44.2221 7.50576 43.7101 7.2727 43.1602 6.59586C43.1602 6.47077 43.1602 6.34568 43.1602 6.2168Z" fill="#212B37"/>
<path d="M24.9648 63.834C25.7597 63.9612 26.368 64.3752 27.0497 64.7816C27.0497 64.9067 27.0497 65.0318 27.0497 65.1607C26.1953 65.0602 25.6434 64.7338 24.9648 64.213C24.9648 64.088 24.9648 63.9629 24.9648 63.834Z" fill="#24282C"/>
<path d="M40.5068 49.05C41.275 49.2823 41.9176 49.5616 42.5917 49.9977C42.5291 50.1853 42.4666 50.373 42.4021 50.5663C42.1206 50.4224 41.8405 50.2758 41.5611 50.128C41.405 50.0466 41.2489 49.9653 41.088 49.8815C40.6964 49.6186 40.6964 49.6186 40.5068 49.05Z" fill="#252A2E"/>
<path d="M31.4085 21.7581C31.5336 21.7581 31.6587 21.7581 31.7876 21.7581C31.6556 22.9019 31.5112 23.6289 30.6504 24.4115C30.7525 23.4112 30.9865 22.6571 31.4085 21.7581Z" fill="#33232F"/>
<path d="M46.0032 18.5364C46.2404 19.2086 46.1402 19.621 45.9203 20.2895C45.8658 20.4586 45.8114 20.6277 45.7552 20.8018C45.712 20.9299 45.6687 21.0579 45.6242 21.1898C45.4991 21.0647 45.374 20.9396 45.2451 20.8107C45.2496 20.3591 45.2496 20.3591 45.3162 19.8394C45.3372 19.6669 45.3582 19.4944 45.3799 19.3167C45.3979 19.1843 45.416 19.0519 45.4346 18.9154C45.5597 18.978 45.6848 19.0405 45.8137 19.105C45.8762 18.9173 45.9388 18.7297 46.0032 18.5364Z" fill="#3A343E"/>
<path d="M38.4217 1.47838C38.4842 1.60347 38.5467 1.72856 38.6112 1.85744C38.3669 1.98472 38.1219 2.11086 37.8768 2.2365C37.7404 2.30686 37.6041 2.37722 37.4636 2.44972C37.095 2.61556 37.095 2.61556 36.7159 2.61556C36.6534 2.42792 36.5908 2.24029 36.5264 2.04697C37.782 1.26516 37.782 1.26516 38.4217 1.47838Z" fill="#2D3844"/>
<path d="M52.2576 37.1099C52.2576 37.2975 52.2576 37.4851 52.2576 37.6785C51.3194 38.1475 51.3194 38.1475 50.3623 38.6261C50.7515 37.8476 51.3008 37.1099 52.2576 37.1099Z" fill="#1E2733"/>
<path d="M24.965 31.0454C25.0275 31.0454 25.0901 31.0454 25.1545 31.0454C25.3422 31.7959 25.5298 32.5465 25.7231 33.3198C25.4729 33.2572 25.2228 33.1947 24.965 33.1302C24.8399 32.6299 24.7148 32.1295 24.5859 31.614C24.711 31.614 24.8361 31.614 24.965 31.614C24.965 31.4264 24.965 31.2387 24.965 31.0454Z" fill="#333C47"/>
<path d="M41.0748 24.2224C41.1373 24.3475 41.1998 24.4726 41.2643 24.6015C41.0474 25.0464 41.0474 25.0464 40.7312 25.561C40.6284 25.7312 40.5255 25.9015 40.4195 26.077C40.1271 26.4968 40.1271 26.4968 39.748 26.6863C40.2609 24.8678 40.2609 24.8678 41.0748 24.2224Z" fill="#231E2A"/>
<path d="M28.5657 15.5037C28.7534 15.5037 28.941 15.5037 29.1343 15.5037C29.039 16.3378 28.7386 16.7758 28.1867 17.399C28.1867 17.2739 28.1867 17.1488 28.1867 17.0199C28.0616 16.9574 27.9365 16.8948 27.8076 16.8304C28.0578 16.3926 28.308 15.9547 28.5657 15.5037Z" fill="#283441"/>
<path d="M32.9255 8.30127C33.0506 8.36381 33.1757 8.42636 33.3045 8.4908C32.6556 9.21607 32.166 9.57543 31.2197 9.8175C31.4194 9.19637 31.7196 8.9448 32.2621 8.6211C32.481 8.51556 32.6999 8.41001 32.9255 8.30127Z" fill="#1C2632"/>
<path d="M45.0548 20.4316C45.4339 20.8107 45.4339 20.8107 45.4813 21.3556C45.4361 21.9206 45.3477 22.2301 45.0548 22.706C44.9298 22.706 44.8047 22.706 44.6758 22.706C44.8653 21.0815 44.8653 21.0815 45.0548 20.4316Z" fill="#27212D"/>
<path d="M48.2774 15.125C48.4651 15.1875 48.6527 15.2501 48.846 15.3145C48.7835 15.94 48.7209 16.5654 48.6565 17.2098C48.4688 17.2098 48.2812 17.2098 48.0879 17.2098C48.1504 16.5218 48.213 15.8338 48.2774 15.125Z" fill="#313842"/>
<path d="M29.7041 66.6768C30.4511 66.7835 30.9836 66.995 31.5994 67.4349C31.5994 67.56 31.5994 67.6851 31.5994 67.8139C30.971 67.7092 30.4337 67.5925 29.8936 67.2453C29.8311 67.0577 29.7685 66.8701 29.7041 66.6768Z" fill="#23272B"/>
<path d="M31.0303 23.4639C31.0929 23.4639 31.1554 23.4639 31.2199 23.4639C31.1982 23.8273 31.174 24.1905 31.1488 24.5537C31.1356 24.756 31.1224 24.9582 31.1088 25.1667C31.0355 25.7007 30.9248 26.0382 30.6513 26.4963C30.6409 26.1687 30.6336 25.8409 30.6276 25.5132C30.6232 25.3306 30.6188 25.1481 30.6143 24.9601C30.6529 24.3872 30.7899 23.9817 31.0303 23.4639Z" fill="#151C28"/>
<path d="M33.6831 10.3862C33.8708 10.4488 34.0584 10.5113 34.2517 10.5758C33.9451 10.913 33.7107 11.1318 33.2922 11.322C32.8386 11.5708 32.7347 11.8096 32.546 12.2815C32.392 11.9617 32.392 11.9617 32.3564 11.5234C32.7661 11.0473 33.1183 10.6687 33.6831 10.3862Z" fill="#26202C"/>
<path d="M31.4088 49.4292C30.5322 50.3532 30.5322 50.3532 29.8926 50.5664C29.8926 50.3162 29.8926 50.066 29.8926 49.8083C30.6843 49.1877 30.6843 49.1877 31.4088 49.4292Z" fill="#2F3437"/>
<path d="M57.3746 45.4492C57.3746 45.6369 57.3746 45.8245 57.3746 46.0178C57.043 46.3495 57.043 46.3495 56.6165 46.5864C56.1901 46.5272 56.1901 46.5272 55.8584 46.3969C56.7755 45.4492 56.7755 45.4492 57.3746 45.4492Z" fill="#1F2631"/>
<path d="M65.9035 28.5811C66.1537 28.6436 66.4039 28.7061 66.6617 28.7706C66.6617 28.9582 66.6617 29.1459 66.6617 29.3392C66.3181 29.5405 66.3181 29.5405 65.9035 29.7182C65.7159 29.6557 65.5283 29.5931 65.335 29.5287C65.3975 29.4036 65.4601 29.2785 65.5245 29.1496C65.6496 29.1496 65.7747 29.1496 65.9035 29.1496C65.9035 28.962 65.9035 28.7744 65.9035 28.5811Z" fill="#212833"/>
<path d="M47.8988 18.7258C47.9613 18.7258 48.0239 18.7258 48.0883 18.7258C48.1425 20.1338 48.1425 20.1338 47.7092 20.8107C47.6467 20.8107 47.5842 20.8107 47.5197 20.8107C47.4656 19.4027 47.4656 19.4027 47.8988 18.7258Z" fill="#1A222E"/>
<path d="M37.663 45.26C37.7881 45.3226 37.9131 45.3851 38.042 45.4495C37.7667 46.1753 37.3921 46.42 36.7153 46.7762C36.6561 46.338 36.6561 46.338 36.7153 45.8286C37.1655 45.4732 37.1655 45.4732 37.663 45.26Z" fill="#36424F"/>
<path d="M58.1322 44.6914C58.3198 44.754 58.5075 44.8165 58.7008 44.8809C58.3931 45.2048 58.0766 45.5205 57.7532 45.8286C57.6281 45.8286 57.503 45.8286 57.3741 45.8286C57.3116 45.6409 57.249 45.4533 57.1846 45.26C57.6229 44.9639 57.6229 44.9639 58.1322 44.6914Z" fill="#2E3540"/>
<path d="M66.0931 39.9526C66.2807 40.0152 66.4683 40.0777 66.6617 40.1422C66.4721 40.7108 66.4721 40.7108 65.8917 41.0306C65.708 41.1127 65.5243 41.1948 65.335 41.2793C65.3975 41.0292 65.4601 40.779 65.5245 40.5212C65.6496 40.5212 65.7747 40.5212 65.9035 40.5212C65.9661 40.3336 66.0286 40.146 66.0931 39.9526Z" fill="#1E2530"/>
<path d="M53.015 36.3518C53.3941 36.5413 53.3941 36.5413 53.5836 36.9204C52.6834 37.489 52.6834 37.489 52.2569 37.489C52.1944 37.3013 52.1318 37.1137 52.0674 36.9204C52.5175 36.6243 52.5175 36.6243 53.015 36.3518Z" fill="#2C3744"/>
<path d="M26.1022 34.4568C26.5104 34.9537 26.7467 35.337 26.8603 35.973C26.6727 36.0356 26.485 36.0981 26.2917 36.1625C25.9848 35.6751 25.9043 35.4657 25.9837 34.8832C26.0228 34.7425 26.0619 34.6018 26.1022 34.4568Z" fill="#2A333F"/>
<path d="M35.7686 29.7183C35.706 29.9059 35.6435 30.0935 35.579 30.2868C34.8285 30.2243 34.078 30.1618 33.3047 30.0973C33.3047 30.0348 33.3047 29.9722 33.3047 29.9078C33.5731 29.8757 33.8416 29.8442 34.1102 29.813C34.3345 29.7866 34.3345 29.7866 34.5633 29.7597C35.0104 29.7183 35.0104 29.7183 35.7686 29.7183Z" fill="#353943"/>
<path d="M39.3695 4.51123C39.7486 4.70076 39.7486 4.70076 39.9381 5.07982C39.0378 5.64841 39.0378 5.64841 38.6114 5.64841C38.5489 5.46077 38.4863 5.27314 38.4219 5.07982C38.872 4.78368 38.872 4.78368 39.3695 4.51123Z" fill="#2B3643"/>
<path d="M24.9648 51.3245C25.5216 51.4666 25.5216 51.4666 26.102 51.7035C26.2679 52.1063 26.2679 52.1063 26.2915 52.4616C25.8537 52.274 25.4159 52.0864 24.9648 51.8931C24.9648 51.7054 24.9648 51.5178 24.9648 51.3245Z" fill="#232729"/>
<path d="M7.33925 39.0056C7.71831 39.1951 7.71831 39.1951 7.90783 39.5742C7.00757 40.1428 7.00757 40.1428 6.58113 40.1428C6.51859 39.9552 6.45604 39.7675 6.3916 39.5742C6.84173 39.2781 6.84173 39.2781 7.33925 39.0056Z" fill="#323943"/>
<path d="M48.2769 50.7559C48.2769 50.9435 48.2769 51.1311 48.2769 51.3244C47.6202 51.6059 47.6202 51.6059 46.9502 51.893C46.9976 51.5377 46.9976 51.5377 47.1397 51.1349C47.5466 50.8724 47.7915 50.7559 48.2769 50.7559Z" fill="#23292F"/>
<path d="M52.8258 48.1028C52.8258 48.2904 52.8258 48.4781 52.8258 48.6714C52.388 48.7965 51.9502 48.9215 51.4991 49.0504C51.4366 48.9253 51.374 48.8003 51.3096 48.6714C52.1861 48.1028 52.1861 48.1028 52.8258 48.1028Z" fill="#30363C"/>
<path d="M65.1457 39.384C65.5209 39.5091 65.8962 39.6342 66.2828 39.7631C66.0952 40.0133 65.9076 40.2634 65.7142 40.5212C65.7142 40.3961 65.7142 40.271 65.7142 40.1421C65.2452 39.9545 65.2452 39.9545 64.7666 39.7631C64.8917 39.638 65.0168 39.5129 65.1457 39.384Z" fill="#343A45"/>
<path d="M55.2894 35.0254C55.4145 35.0879 55.5396 35.1505 55.6685 35.2149C55.606 35.4026 55.5434 35.5902 55.479 35.7835C54.9933 36.0086 54.9933 36.0086 54.5313 36.1626C54.4688 35.9749 54.4062 35.7873 54.3418 35.594C54.7919 35.2978 54.7919 35.2978 55.2894 35.0254Z" fill="#253240"/>
<path d="M62.6816 26.686C63.5819 27.0414 63.5819 27.0414 64.0083 27.2546C64.0083 27.3797 64.0083 27.5048 64.0083 27.6337C63.1081 27.4678 63.1081 27.4678 62.6816 27.2546C62.6816 27.067 62.6816 26.8794 62.6816 26.686Z" fill="#242C37"/>
<path d="M45.8127 25.1694C46.0003 25.1694 46.1879 25.1694 46.3812 25.1694C46.3187 25.6072 46.2562 26.0451 46.1917 26.4961C46.0041 26.4961 45.8164 26.4961 45.6231 26.4961C45.5606 26.371 45.498 26.246 45.4336 26.1171C45.6113 25.6196 45.6113 25.6196 45.8127 25.1694Z" fill="#3C434D"/>
<path d="M29.1352 18.7258C29.2603 18.976 29.3854 19.2262 29.5143 19.4839C28.9514 19.8592 28.9514 19.8592 28.3771 20.2421C28.252 20.1795 28.1269 20.117 27.998 20.0525C28.3733 19.6147 28.7486 19.1769 29.1352 18.7258Z" fill="#383741"/>
<path d="M40.8853 3.94263C40.8853 4.13026 40.8853 4.31789 40.8853 4.51121C40.3167 4.89027 40.3167 4.89027 39.9021 4.8192C39.7888 4.78011 39.6754 4.74102 39.5586 4.70074C40.2837 3.94263 40.2837 3.94263 40.8853 3.94263Z" fill="#202A37"/>
<path d="M35.4127 69.697C35.5926 69.7635 35.7724 69.8299 35.9576 69.8984C35.8951 70.086 35.8325 70.2736 35.7681 70.467C35.2156 70.2634 34.8625 70.13 34.4414 69.7088C34.8205 69.5193 34.8205 69.5193 35.4127 69.697Z" fill="#2C3137"/>
<path d="M10.9635 42.9734C11.1433 43.0398 11.3232 43.1063 11.5084 43.1747C11.3208 43.3624 11.1332 43.55 10.9398 43.7433C10.6271 43.4932 10.3144 43.243 9.99219 42.9852C10.3712 42.7957 10.3712 42.7957 10.9635 42.9734Z" fill="#343B45"/>
<path d="M62.7047 37.8562C62.8846 37.9226 63.0644 37.9891 63.2496 38.0576C63.1871 38.2452 63.1245 38.4328 63.0601 38.6261C62.5076 38.4226 62.1545 38.2891 61.7334 37.868C62.1125 37.6785 62.1125 37.6785 62.7047 37.8562Z" fill="#333A44"/>
<path d="M13.8063 33.3076C13.9861 33.3741 14.1659 33.4405 14.3512 33.509C14.1636 33.6966 13.9759 33.8842 13.7826 34.0776C13.4699 33.8274 13.1572 33.5772 12.835 33.3194C13.214 33.1299 13.214 33.1299 13.8063 33.3076Z" fill="#333A44"/>
<path d="M63.44 30.666C63.3097 31.0332 63.3097 31.0332 63.0609 31.4241C62.5634 31.5663 62.5634 31.5663 62.1133 31.6137C62.3697 30.8444 62.6298 30.666 63.44 30.666Z" fill="#242C36"/>
<path d="M58.7252 24.2102C58.9051 24.2766 59.0849 24.3431 59.2701 24.4116C59.0825 24.5992 58.8949 24.7868 58.7016 24.9801C58.3888 24.73 58.0761 24.4798 57.7539 24.222C58.133 24.0325 58.133 24.0325 58.7252 24.2102Z" fill="#343B45"/>
<path d="M18.1421 21.7581C18.1421 21.9457 18.1421 22.1333 18.1421 22.3266C17.7986 22.528 17.7986 22.528 17.384 22.7057C17.1964 22.6432 17.0087 22.5806 16.8154 22.5162C17.5406 21.7581 17.5406 21.7581 18.1421 21.7581Z" fill="#242B36"/>
<path d="M52.8502 20.7986C53.0301 20.865 53.2099 20.9315 53.3951 20.9999C53.2075 21.1876 53.0199 21.3752 52.8266 21.5685C52.5138 21.3183 52.2011 21.0682 51.8789 20.8104C52.258 20.6209 52.258 20.6209 52.8502 20.7986Z" fill="#353B45"/>
<path d="M37.0951 15.5037C37.2202 15.5662 37.3453 15.6288 37.4742 15.6932C37.4742 15.8183 37.4742 15.9434 37.4742 16.0722C36.8174 16.3537 36.8174 16.3537 36.1475 16.6408C36.1948 16.2855 36.1948 16.2855 36.337 15.8827C36.7042 15.634 36.7042 15.634 37.0951 15.5037Z" fill="#24212C"/>
<path d="M30.2718 11.5234C30.3344 11.5234 30.3969 11.5234 30.4614 11.5234C30.485 12.6132 30.485 12.6132 30.2718 13.0397C30.1467 13.0397 30.0216 13.0397 29.8928 13.0397C29.8691 12.4948 29.8691 12.4948 29.8928 11.9025C30.0179 11.7774 30.1429 11.6523 30.2718 11.5234Z" fill="#18212E"/>
<path d="M30.082 10.5762C30.3322 10.6387 30.5824 10.7013 30.8401 10.7657C30.7776 11.141 30.7151 11.5162 30.6506 11.9029C30.463 11.8403 30.2754 11.7778 30.082 11.7133C30.082 11.3381 30.082 10.9628 30.082 10.5762Z" fill="#293543"/>
<path d="M29.5377 66.2854C29.7176 66.3518 29.8974 66.4183 30.0826 66.4868C30.0201 66.6744 29.9575 66.862 29.8931 67.0553C29.3406 66.8518 28.9875 66.7183 28.5664 66.2972C28.9455 66.1077 28.9455 66.1077 29.5377 66.2854Z" fill="#323639"/>
<path d="M26.292 28.771C26.3545 29.0212 26.4171 29.2714 26.4815 29.5291C26.6692 29.5917 26.8568 29.6542 27.0501 29.7186C27.0501 29.9063 27.0501 30.0939 27.0501 30.2872C26.8625 30.3498 26.6748 30.4123 26.4815 30.4768C26.419 29.9139 26.3564 29.351 26.292 28.771Z" fill="#35313C"/>
<path d="M46.7609 22.3267C46.8234 22.4517 46.886 22.5768 46.9504 22.7057C47.0755 22.7057 47.2006 22.7057 47.3295 22.7057C47.2669 23.0184 47.2044 23.3312 47.14 23.6534C46.8898 23.7159 46.6396 23.7785 46.3818 23.8429C46.5069 23.3425 46.632 22.8422 46.7609 22.3267Z" fill="#393F49"/>
<path d="M26.8607 18.5364C26.9233 18.724 26.9858 18.9116 27.0503 19.105C26.7375 19.3551 26.4248 19.6053 26.1026 19.8631C26.0401 19.6129 25.9775 19.3627 25.9131 19.105C26.2258 18.9173 26.5385 18.7297 26.8607 18.5364Z" fill="#2F3743"/>
<path d="M25.7239 12.4714C25.8542 12.8031 25.8542 12.8031 25.9134 13.2296C25.6409 13.656 25.6409 13.656 25.3448 13.9877C25.2145 13.656 25.2145 13.656 25.1553 13.2296C25.4277 12.8031 25.4277 12.8031 25.7239 12.4714Z" fill="#1E2733"/>
<path d="M27.8077 32.9404C28.1387 33.4369 28.2601 33.7058 28.3763 34.2671C28.1886 34.2671 28.001 34.2671 27.8077 34.2671C27.7354 33.8897 27.6725 33.5104 27.6182 33.13C27.6807 33.0674 27.7433 33.0049 27.8077 32.9404Z" fill="#2F1D29"/>
<path d="M43.3498 31.0454C43.4801 31.3889 43.4801 31.3889 43.5394 31.8035C43.2669 32.1352 43.2669 32.1352 42.9708 32.3721C42.8405 32.0286 42.8405 32.0286 42.7812 31.614C43.0537 31.2823 43.0537 31.2823 43.3498 31.0454Z" fill="#1F2A37"/>
<path d="M36.3371 23.843C36.4622 23.9681 36.5873 24.0932 36.7162 24.2221C36.5911 24.5973 36.466 24.9726 36.3371 25.3593C36.1495 25.2967 35.9619 25.2342 35.7686 25.1697C36.1239 24.2695 36.1239 24.2695 36.3371 23.843Z" fill="#343A45"/>
<path d="M24.0178 15.125C24.1429 15.3752 24.268 15.6254 24.3969 15.8831C23.9278 16.1646 23.9278 16.1646 23.4492 16.4517C23.4492 15.7851 23.6055 15.6232 24.0178 15.125Z" fill="#343D49"/>
</svg>
