<svg width="112" height="32" viewBox="0 0 112 32" fill="none" xmlns="http://www.w3.org/2000/svg">
<path d="M38.3348 25.5804C43.3039 25.5804 47.3321 21.3127 47.3321 16.0482C47.3321 10.7838 43.3039 6.51611 38.3348 6.51611C33.3658 6.51611 29.3375 10.7838 29.3375 16.0482C29.3375 21.3127 33.3658 25.5804 38.3348 25.5804Z" fill="#019681"/>
<path fill-rule="evenodd" clip-rule="evenodd" d="M47.0494 29.745C46.2228 30.3583 45.3249 30.869 44.3644 31.2596C43.6795 31.5577 42.9694 31.8035 42.2386 31.9953L69.342 32.0001L75.8672 10.8749L82.8565 32.0001L88.7299 31.9947L98.5123 0.033492H92.2332L86.2337 19.6256C85.7315 21.7744 85.4603 20.4812 85.1016 19.321L78.9933 0.0323033L72.8055 0.0412111L66.6323 20.0092C66.3425 20.9806 66.0349 21.3469 65.814 20.2811L59.6565 0.0263672L40.629 0.033492C48.1014 1.10403 53.8621 9.33704 53.8621 16.2549C53.8621 23.1733 51.1569 26.8374 47.0494 29.745Z" fill="#019681"/>
<path fill-rule="evenodd" clip-rule="evenodd" d="M15.9849 18.6783L7.42806 18.8452C6.03593 18.8725 5.98157 18.5168 5.98998 17.1031L5.98829 6.41018L14.0278 6.36505C15.6066 6.35615 16.9813 7.00987 18.3 8.58213C20.9352 11.7243 19.5868 18.6077 15.9849 18.6783ZM0 31.8805L6.07236 31.8621L6.0746 25.9946C6.1284 25.3094 6.12504 25.1295 6.77235 25.1301L14.6101 25.1396L18.6413 31.9755L25.3857 31.9933C25.3997 31.4821 25.3324 31.2119 25.1178 30.8277L20.6544 22.8471C30.266 15.9447 25.8777 0.447099 13.6512 0.00890777C13.5167 0.00415773 13.3811 0.00118751 13.2449 0L0 0.0326594V31.8805Z" fill="#019681"/>
<path d="M110.41 2.63829V0.0263672H111.863V7.13896H110.41V4.52703H104.159V2.63829H110.41ZM105.59 15.3155H104.159V8.15368H111.863V15.1641H110.433V10.0305H108.76V13.8205H107.373V10.0305H105.59V15.3155ZM104.027 19.8601C104.027 19.0283 104.198 18.276 104.539 17.6039C104.88 16.9317 105.353 16.4027 105.959 16.018C106.564 15.6332 107.248 15.4408 108.011 15.4408C108.774 15.4408 109.459 15.6332 110.064 16.018C110.669 16.4027 111.142 16.9317 111.484 17.6039C111.825 18.276 111.995 19.0324 111.995 19.8714C111.995 20.5792 111.878 21.2187 111.643 21.7899C111.408 22.361 111.071 22.8414 110.631 23.2297L109.574 22.0173C110.175 21.4651 110.476 20.7811 110.476 19.9652C110.476 19.46 110.372 19.0087 110.163 18.6127C109.954 18.216 109.662 17.9073 109.288 17.6858C108.914 17.4638 108.488 17.3533 108.011 17.3533C107.534 17.3533 107.109 17.4638 106.734 17.6858C106.361 17.9073 106.069 18.216 105.86 18.6127C105.65 19.0087 105.546 19.46 105.546 19.9652C105.546 20.7811 105.851 21.4651 106.459 22.0173L105.403 23.2297C104.956 22.8414 104.614 22.3593 104.379 21.7839C104.145 21.2086 104.027 20.5673 104.027 19.8601ZM111.863 31.9864H104.159V30.0977H107.318V26.3897H104.159V24.5009H111.863V26.3897H108.826V30.0977H111.863V31.9864Z" fill="#019681"/>
</svg>
