<svg width="72" height="73" viewBox="0 0 72 73" fill="none" xmlns="http://www.w3.org/2000/svg">
<path d="M51.033 8.51837C54.697 11.9479 54.697 11.9479 54.9338 13.1603C54.7957 13.9468 54.3771 14.3554 53.8434 14.9283C53.6568 15.1356 53.4704 15.343 53.284 15.5505C53.1942 15.6489 53.1044 15.7472 53.0118 15.8486C52.7945 16.0922 52.5888 16.3462 52.3855 16.6017C51.5752 17.6085 50.484 18.3758 49.4764 19.1763C49.378 19.2551 49.2796 19.3338 49.1782 19.4149C48.4458 19.9908 47.6803 20.4905 46.8822 20.9707C50.297 23.0092 53.7829 24.9197 57.2591 26.851C57.3162 34.3846 57.3733 41.9183 57.4321 49.6802C58.4594 50.1368 59.4867 50.5934 60.5452 51.0638C62.5481 52.2113 64.8083 53.7784 65.5607 56.0793C65.8111 58.0083 65.3486 59.3278 64.296 60.9192C61.8354 64.1121 56.4394 66.1559 52.5895 66.8022C52.1821 66.7292 52.1821 66.7292 51.8977 66.6292C51.8977 66.3439 51.8977 66.0585 51.8977 65.7645C52.1108 65.6976 52.324 65.6307 52.5436 65.5618C53.1385 65.3749 53.7329 65.1867 54.3271 64.9977C54.8 64.8474 55.2729 64.7002 55.7485 64.5586C58.9728 63.5683 62.4019 61.9502 64.1771 58.9546C64.5286 57.6805 64.5257 56.5303 63.8771 55.3619C63.3121 54.5353 62.7023 53.9211 61.8855 53.3446C61.7296 53.2337 61.7296 53.2337 61.5704 53.1207C60.3795 52.2986 59.1009 51.6462 57.778 51.0638C57.6554 51.0052 57.5327 50.9466 57.4064 50.8861C57.0312 50.8542 57.0312 50.8542 56.6972 51.2862C56.2203 51.7568 55.7938 52.0359 55.2067 52.3528C55.012 52.4592 54.8172 52.5655 54.6166 52.6751C54.5149 52.7298 54.4133 52.7844 54.3086 52.8407C53.7794 53.1253 53.2528 53.4146 52.726 53.7033C52.6229 53.7596 52.5199 53.8159 52.4138 53.8739C51.6249 54.3062 50.8492 54.7562 50.0817 55.2254C49.0888 55.8307 48.0794 56.3936 47.0551 56.9441C45.2394 57.9291 43.4362 58.9298 41.6599 59.9843C40.8671 60.4543 40.0683 60.9076 39.2535 61.3387C38.848 61.5618 38.454 61.7938 38.0591 62.0346C37.9364 62.1078 37.8137 62.181 37.6872 62.2565C37.4446 62.4015 37.2037 62.5493 36.9646 62.7001C36.8529 62.7661 36.7412 62.832 36.6262 62.9C36.5278 62.9604 36.4294 63.0209 36.328 63.0831C35.5318 63.2862 34.7288 62.7298 34.0536 62.346C33.7992 62.2025 33.7992 62.2025 33.5398 62.056C33.3591 61.9529 33.1784 61.8497 32.9922 61.7434C32.6038 61.5236 32.2153 61.3038 31.8268 61.084C31.6261 60.9701 31.4253 60.8562 31.2245 60.7422C30.4602 60.3099 29.6932 59.8826 28.9261 59.4554C27.4373 58.6257 25.9563 57.7863 24.4915 56.915C23.0274 56.0479 21.5373 55.2267 20.0515 54.3978C19.065 53.8474 18.0831 53.2896 17.1046 52.7251C16.5321 52.3997 15.9516 52.091 15.3656 51.7907C14.9988 51.5413 14.7883 51.2558 14.5407 50.8909C12.4941 51.4391 10.5545 52.5664 9.00636 54.004C8.89221 54.004 8.77807 54.004 8.66046 54.004C8.61766 54.1003 8.57485 54.1966 8.53075 54.2958C8.31456 54.6957 8.31456 54.6957 7.96867 55.1173C7.19418 56.1096 7.14277 57.1088 7.27687 58.3277C7.8506 60.3503 9.72036 61.6486 11.449 62.6439C14.0066 64.0661 16.7517 64.9091 19.5779 65.624C19.7405 65.6651 19.9031 65.7063 20.0707 65.7486C25.3762 67.0481 30.6648 67.3875 36.1053 67.3751C36.225 67.3749 36.3446 67.3747 36.4679 67.3745C40.2952 67.3673 40.2952 67.3673 44.115 67.1481C44.1721 67.4334 44.2292 67.7188 44.288 68.0128C43.6377 68.4289 42.9708 68.4348 42.222 68.4641C42.0799 68.4705 41.9378 68.477 41.7913 68.4836C39.8546 68.5619 37.9162 68.5702 35.9781 68.5732C35.3233 68.5749 34.6685 68.5803 34.0137 68.5857C30.3501 68.6014 26.653 68.4274 23.0666 67.6217C22.4433 67.4821 21.818 67.3751 21.1885 67.267C16.2577 66.3627 10.2814 64.6459 7.00664 60.5544C6.082 59.1824 5.89143 57.9027 6.06623 56.2523C6.56699 54.1291 8.62056 52.5052 10.39 51.4097C11.6162 50.7145 12.8562 50.1216 14.1948 49.6802C14.1943 49.5644 14.1937 49.4486 14.1932 49.3293C14.1805 46.5101 14.1764 43.6911 14.1818 40.8719C14.1843 39.5086 14.1838 38.1454 14.1765 36.782C14.1701 35.5936 14.1692 34.4053 14.1748 33.2168C14.1776 32.5876 14.1777 31.9587 14.1712 31.3295C14.164 30.6266 14.1691 29.9244 14.1752 29.2215C14.1712 29.0134 14.1672 28.8052 14.1631 28.5908C14.189 27.2104 14.189 27.2104 14.7072 26.6698C15.103 26.4019 15.4921 26.1888 15.9243 25.9862C16.1114 25.876 16.2985 25.7658 16.4913 25.6522C16.6633 25.5578 16.8354 25.4633 17.0127 25.366C17.2061 25.2593 17.3995 25.1526 17.5988 25.0427C17.7989 24.9332 17.9989 24.8236 18.2051 24.7107C18.5188 24.5378 18.8324 24.3647 19.146 24.1915C19.4485 24.0245 19.751 23.8577 20.0536 23.6908C21.6359 22.8156 23.1998 21.9104 24.7447 20.9707C24.615 20.8869 24.4852 20.803 24.3515 20.7167C21.5886 18.9072 18.4049 16.5049 16.7891 13.5339C16.7737 12.6253 17.201 12.0965 17.7835 11.4477C17.8682 11.3512 17.9528 11.2547 18.0401 11.1552C18.3116 10.8496 18.5871 10.5482 18.8645 10.2479C18.953 10.1515 19.0415 10.0552 19.1327 9.95592C20.5204 8.46319 22.0319 7.25182 23.707 6.09708C23.8513 5.99408 23.9955 5.89108 24.1441 5.78496C26.1361 4.39452 28.3099 3.64339 30.625 2.984C30.9527 2.88902 30.9527 2.88902 31.2871 2.79213C38.3934 1.06912 45.7366 3.79462 51.033 8.51837Z" fill="#0A0A08"/>
<path d="M48.8314 8.01019C52.509 10.999 52.509 10.999 53.6271 12.842C53.665 13.7129 53.0404 14.2735 52.4921 14.885C52.3973 14.9925 52.3026 15.1 52.2049 15.2108C51.9317 15.5186 51.6559 15.8238 51.3787 16.1281C51.2579 16.2616 51.1371 16.3952 51.0126 16.5327C49.2773 18.3537 47.1942 19.6461 44.9796 20.7977C44.7948 20.8958 44.61 20.9939 44.4196 21.0949C39.7171 23.4372 34.0598 23.4813 29.1436 21.8622C24.9527 20.4296 20.3118 17.4034 17.9996 13.5338C17.9792 12.6916 18.528 12.1641 19.0589 11.5665C19.1461 11.4666 19.2333 11.3666 19.3232 11.2636C19.5717 10.9808 19.8228 10.7004 20.075 10.4208C20.1773 10.3057 20.2796 10.1907 20.3851 10.0721C23.188 7.10347 27.0006 4.93284 30.9822 4.0946C31.2973 4.02586 31.6098 3.94573 31.922 3.8649C37.7689 2.45537 44.1752 4.33711 48.8314 8.01019Z" fill="#EBEDF5"/>
<path d="M56.222 28.2346C56.2584 31.103 56.2858 33.9714 56.3026 36.84C56.3106 38.1719 56.3216 39.5038 56.3394 40.8357C56.3549 41.9967 56.365 43.1576 56.3684 44.3187C56.3705 44.9335 56.3752 45.548 56.3865 46.1626C56.3991 46.8492 56.3994 47.5354 56.3987 48.2221C56.4043 48.4254 56.4099 48.6287 56.4156 48.8381C56.4003 50.1878 56.4003 50.1878 55.881 50.7246C55.4857 50.9918 55.0965 51.2066 54.6654 51.4098C54.4203 51.5567 54.4203 51.5567 54.1702 51.7065C54.0304 51.7843 53.8907 51.862 53.7466 51.9421C53.5872 52.0314 53.4277 52.1207 53.2634 52.2127C53.0983 52.3044 52.9331 52.3962 52.763 52.4907C51.5303 53.181 50.3028 53.8776 49.0878 54.5985C48.1934 55.1282 47.2949 55.6447 46.3794 56.1375C44.3368 57.2376 42.3095 58.3659 40.289 59.506C40.1274 59.597 39.9657 59.6881 39.7991 59.782C38.8627 60.3117 37.9387 60.8568 37.0247 61.4244C36.6787 61.6138 36.6787 61.6138 36.3328 61.6138C36.2721 58.7318 36.2264 55.8501 36.1984 52.9677C36.1851 51.6292 36.1669 50.2911 36.1371 48.9528C36.1112 47.7859 36.0945 46.6193 36.0888 45.452C36.0854 44.8342 36.0775 44.2173 36.0586 43.5997C35.9477 39.8459 35.9477 39.8459 36.5854 38.9476C37.278 38.3162 38.0477 38.0355 38.9271 37.7468C39.2299 37.588 39.53 37.4238 39.8242 37.2496C40.1593 37.0694 40.4944 36.8892 40.8295 36.7091C42.6457 35.7239 44.4492 34.7225 46.2263 33.6681C47.1824 33.1015 48.1525 32.5663 49.1311 32.0395C49.6794 31.7416 50.2269 31.4422 50.7741 31.1423C50.9209 31.0619 51.0678 30.9815 51.2191 30.8986C52.4429 30.2251 53.6518 29.5275 54.8529 28.8145C54.9823 28.7384 55.1117 28.6623 55.2451 28.5839C55.3589 28.5163 55.4728 28.4487 55.5901 28.3791C55.8761 28.2346 55.8761 28.2346 56.222 28.2346Z" fill="#EDAC3B"/>
<path d="M15.4053 28.2346C16.0715 28.4949 16.6856 28.7939 17.3118 29.1406C17.4112 29.1954 17.5105 29.2503 17.6128 29.3068C17.9366 29.4857 18.26 29.6654 18.5833 29.8452C18.8088 29.9702 19.0344 30.0952 19.26 30.2202C24.8393 33.3146 24.8393 33.3146 27.2442 34.7898C28.4053 35.4887 29.6123 36.111 30.8052 36.753C30.9801 36.8472 31.155 36.9414 31.3352 37.0385C31.6922 37.2307 32.0494 37.4225 32.4067 37.6141C32.5809 37.708 32.7552 37.802 32.9347 37.8988C33.0892 37.9819 33.2437 38.0649 33.403 38.1505C33.5706 38.2456 33.7382 38.3407 33.9109 38.4386C34.0253 38.4854 34.1397 38.5322 34.2576 38.5805C34.6797 38.781 34.9701 38.9647 35.2945 39.3034C35.5002 40.0159 35.4694 40.7125 35.4515 41.4496C35.4518 41.6673 35.452 41.885 35.4522 42.1093C35.4526 42.7051 35.4444 43.3005 35.4348 43.8962C35.4261 44.5191 35.4253 45.1421 35.4237 45.7651C35.4194 46.9443 35.408 48.1232 35.3941 49.3023C35.3786 50.6449 35.371 51.9875 35.3641 53.3301C35.3496 56.0914 35.3253 58.8526 35.2945 61.6138C34.6525 61.3628 34.0617 61.0788 33.4603 60.7409C33.2758 60.6375 33.0913 60.534 32.9012 60.4275C32.7101 60.3195 32.5189 60.2116 32.3219 60.1005C32.1341 59.9952 31.9463 59.89 31.7527 59.7816C30.9021 59.3034 30.0561 58.8203 29.2217 58.3142C28.4832 57.8675 27.7315 57.4509 26.9721 57.0408C26.0742 56.5548 25.1829 56.0567 24.2906 55.5606C24.1912 55.5053 24.0918 55.45 23.9893 55.3931C23.3647 55.0457 22.7401 54.6981 22.1157 54.3503C21.9098 54.2356 21.7039 54.121 21.498 54.0063C20.818 53.6277 20.1383 53.2485 19.4588 52.869C19.2854 52.7724 19.1119 52.6758 18.9331 52.5762C15.9294 50.8961 15.9294 50.8961 15.4053 50.3721C15.3628 49.9838 15.3628 49.9838 15.3637 49.4901C15.3633 49.3033 15.3628 49.1166 15.3623 48.9242C15.3642 48.6155 15.3642 48.6155 15.3661 48.3007C15.366 48.0847 15.366 47.8687 15.3659 47.6462C15.3661 47.0531 15.3679 46.46 15.3703 45.8668C15.3724 45.2473 15.3726 44.6278 15.373 44.0082C15.3741 42.8347 15.377 41.6611 15.3804 40.4875C15.3843 39.1516 15.3862 37.8158 15.3879 36.4799C15.3916 33.7314 15.3976 30.983 15.4053 28.2346Z" fill="#FAD244"/>
<path d="M26.6475 21.836C27.0473 21.9896 27.4435 22.1526 27.8366 22.3225C29.1953 22.8916 30.5753 23.2408 32.009 23.5655C32.1091 23.5961 32.2092 23.6266 32.3123 23.658C33.2261 23.8473 34.1915 23.7776 35.1228 23.78C35.5141 23.7817 35.9053 23.787 36.2965 23.7925C38.6567 23.8101 40.8099 23.4219 43.0345 22.6035C43.1834 22.551 43.3323 22.4985 43.4858 22.4444C44.1009 22.2238 44.6056 22.0281 45.1531 21.6631C46.171 21.6829 46.9353 22.2214 47.7797 22.7332C48.0762 22.909 48.3728 23.0847 48.6695 23.2602C48.8105 23.3441 48.9516 23.428 49.0969 23.5145C49.5282 23.7688 49.9649 24.0105 50.4064 24.2465C51.5423 24.8559 52.6557 25.5054 53.7711 26.1513C53.9235 26.239 54.0759 26.3268 54.2329 26.4172C54.4389 26.5363 54.4389 26.5363 54.6491 26.6579C55.0266 26.8729 55.0266 26.8729 55.53 27.0245C55.53 27.1387 55.53 27.2528 55.53 27.3704C55.2186 27.5947 55.2186 27.5947 54.7842 27.846C54.6457 27.9272 54.5073 28.0083 54.3646 28.0919C53.7201 28.4532 53.0714 28.8064 52.4224 29.1595C51.5172 29.6538 50.616 30.1552 49.7146 30.6564C49.6145 30.7121 49.5143 30.7678 49.4111 30.8252C46.712 32.3255 44.0161 33.8315 41.3281 35.3516C40.993 35.5409 40.6577 35.73 40.3222 35.9187C39.5765 36.3387 38.8343 36.7625 38.1 37.2021C37.9738 37.2765 37.8477 37.3509 37.7177 37.4276C37.4878 37.5635 37.2591 37.7016 37.0322 37.8425C36.3068 38.2677 35.9271 38.29 35.122 38.0932C34.6442 37.8739 34.6442 37.8739 34.1512 37.594C33.966 37.4899 33.7808 37.3858 33.59 37.2785C33.2943 37.1093 33.2943 37.1093 32.9926 36.9366C32.7854 36.8195 32.578 36.7025 32.3706 36.5856C31.9427 36.3443 31.5153 36.1022 31.0881 35.8594C30.2952 35.4092 29.4988 34.9652 28.7025 34.521C27.2196 33.6934 25.7404 32.8596 24.2675 32.0144C23.6284 31.6489 22.9872 31.2873 22.3454 30.9267C22.2303 30.862 22.1152 30.7973 21.9966 30.7306C21.4055 30.3986 20.8142 30.067 20.2228 29.7356C18.8398 28.9602 17.4638 28.1751 16.0977 27.3704C16.7018 26.6758 17.4056 26.3051 18.2055 25.8787C18.4858 25.7264 18.7659 25.5737 19.0459 25.4207C19.1882 25.3429 19.3306 25.2652 19.4773 25.1851C20.1418 24.8164 20.7951 24.4295 21.4483 24.0411C22.4046 23.4736 23.3664 22.9223 24.3479 22.3988C24.7588 22.1846 24.7588 22.1846 25.164 21.884C25.7517 21.5928 26.0206 21.6624 26.6475 21.836Z" fill="#FAD144"/>
<path d="M35.3077 5.90395C37.5138 5.83465 39.5395 6.51786 41.1643 8.04284C42.6756 9.67461 43.1582 11.5434 43.1087 13.7225C42.9883 15.6711 42.172 17.4016 40.7401 18.7474C38.7496 20.234 36.6957 20.661 34.2572 20.4519C32.3542 20.0555 30.8895 18.8891 29.7605 17.3388C28.6354 15.4965 28.2462 13.532 28.6627 11.3998C29.0158 10.1012 29.523 9.14373 30.4523 8.17255C30.6101 8.00735 30.6101 8.00735 30.7712 7.83881C32.0488 6.61878 33.5544 6.00301 35.3077 5.90395Z" fill="#3D8DC4"/>
<path d="M35.3077 5.90395C37.5138 5.83465 39.5395 6.51786 41.1643 8.04284C42.6756 9.67461 43.1582 11.5434 43.1087 13.7225C42.9883 15.6711 42.172 17.4016 40.7401 18.7474C38.7496 20.234 36.6957 20.661 34.2572 20.4519C32.3542 20.0555 30.8895 18.8891 29.7605 17.3388C28.6354 15.4965 28.2462 13.532 28.6627 11.3998C29.0158 10.1012 29.523 9.14373 30.4523 8.17255C30.6101 8.00735 30.6101 8.00735 30.7712 7.83881C32.0488 6.61878 33.5544 6.00301 35.3077 5.90395ZM30.9901 9.04743C29.6671 10.7461 29.6159 12.6674 29.7605 14.7446C30.1065 16.2552 30.976 17.5373 32.2358 18.4306C33.9071 19.4528 35.5504 19.6366 37.4784 19.3061C39.0072 18.9073 40.3044 17.9578 41.1751 16.6471C41.8612 15.2958 42.2192 13.8433 42.0399 12.3233C41.8687 12.1521 41.8687 12.1521 41.694 11.9774C41.5977 12.1344 41.5014 12.2913 41.4021 12.453C40.723 13.4074 40.0864 13.8437 38.9268 14.0528C37.8228 14.0686 37.0201 13.9256 36.1596 13.1881C35.3 12.2568 35.0272 11.4374 35.0571 10.1838C35.189 9.2587 35.6148 8.50136 36.3136 7.8834C36.5984 7.67733 36.8969 7.4904 37.1973 7.30781C35.2649 6.01953 32.3604 7.5553 30.9901 9.04743Z" fill="#080A0A"/>
<path d="M39.2722 8.1725C39.9175 8.45306 40.3663 8.85472 40.8287 9.38314C41.1257 10.2742 41.0967 11.0007 40.699 11.8477C40.4255 12.3903 40.1469 12.708 39.6181 13.0151C38.708 13.1899 37.7773 13.2473 36.9536 12.7779C36.2868 12.1208 36.0746 11.5114 36.0186 10.583C36.0699 9.68149 36.3001 9.18553 36.936 8.5542C37.625 8.0026 38.4287 8.09788 39.2722 8.1725Z" fill="#F6CE43"/>
</svg>
